<svg xmlns="http://www.w3.org/2000/svg" xmlns:xlink="http://www.w3.org/1999/xlink" width="250" zoomAndPan="magnify" viewBox="0 0 187.5 187.499992" height="250" preserveAspectRatio="xMidYMid meet" version="1.0"><path fill="#215520" d="M 93.5 0 C 91.96875 0 90.441406 0.0390625 88.914062 0.113281 C 87.382812 0.1875 85.859375 0.300781 84.335938 0.449219 C 82.8125 0.601562 81.292969 0.789062 79.78125 1.011719 C 78.269531 1.238281 76.761719 1.5 75.257812 1.796875 C 73.757812 2.09375 72.265625 2.429688 70.78125 2.800781 C 69.296875 3.175781 67.824219 3.582031 66.359375 4.027344 C 64.894531 4.46875 63.441406 4.949219 62 5.464844 C 60.558594 5.980469 59.132812 6.53125 57.71875 7.117188 C 56.304688 7.703125 54.90625 8.324219 53.523438 8.976562 C 52.140625 9.632812 50.773438 10.320312 49.425781 11.039062 C 48.074219 11.761719 46.746094 12.515625 45.433594 13.300781 C 44.121094 14.089844 42.828125 14.90625 41.554688 15.757812 C 40.28125 16.609375 39.03125 17.488281 37.800781 18.398438 C 36.574219 19.3125 35.367188 20.253906 34.183594 21.222656 C 33 22.195312 31.84375 23.195312 30.710938 24.222656 C 29.574219 25.25 28.46875 26.304688 27.386719 27.386719 C 26.304688 28.46875 25.25 29.574219 24.222656 30.710938 C 23.195312 31.84375 22.195312 33 21.222656 34.183594 C 20.253906 35.367188 19.3125 36.574219 18.398438 37.800781 C 17.488281 39.03125 16.609375 40.28125 15.757812 41.554688 C 14.90625 42.828125 14.089844 44.121094 13.300781 45.433594 C 12.515625 46.746094 11.761719 48.074219 11.039062 49.425781 C 10.320312 50.773438 9.632812 52.140625 8.976562 53.523438 C 8.324219 54.90625 7.703125 56.304688 7.117188 57.71875 C 6.53125 59.132812 5.980469 60.558594 5.464844 62 C 4.949219 63.441406 4.46875 64.894531 4.027344 66.359375 C 3.582031 67.824219 3.175781 69.296875 2.800781 70.78125 C 2.429688 72.265625 2.09375 73.757812 1.796875 75.257812 C 1.5 76.761719 1.238281 78.269531 1.011719 79.78125 C 0.789062 81.292969 0.601562 82.8125 0.449219 84.335938 C 0.300781 85.859375 0.1875 87.382812 0.113281 88.914062 C 0.0390625 90.441406 0 91.96875 0 93.5 C 0 95.03125 0.0390625 96.558594 0.113281 98.089844 C 0.1875 99.617188 0.300781 101.140625 0.449219 102.664062 C 0.601562 104.1875 0.789062 105.707031 1.011719 107.21875 C 1.238281 108.734375 1.5 110.242188 1.796875 111.742188 C 2.09375 113.242188 2.429688 114.734375 2.800781 116.21875 C 3.175781 117.703125 3.582031 119.179688 4.027344 120.640625 C 4.46875 122.105469 4.949219 123.558594 5.464844 125 C 5.980469 126.441406 6.53125 127.867188 7.117188 129.28125 C 7.703125 130.695312 8.324219 132.09375 8.976562 133.476562 C 9.632812 134.859375 10.320312 136.226562 11.039062 137.578125 C 11.761719 138.925781 12.515625 140.257812 13.300781 141.570312 C 14.089844 142.882812 14.90625 144.175781 15.757812 145.445312 C 16.609375 146.71875 17.488281 147.96875 18.398438 149.199219 C 19.3125 150.429688 20.253906 151.632812 21.222656 152.816406 C 22.195312 154 23.195312 155.15625 24.222656 156.292969 C 25.25 157.425781 26.304688 158.535156 27.386719 159.617188 C 28.46875 160.699219 29.574219 161.753906 30.710938 162.78125 C 31.84375 163.808594 33 164.808594 34.183594 165.777344 C 35.367188 166.75 36.574219 167.691406 37.800781 168.601562 C 39.03125 169.511719 40.28125 170.394531 41.554688 171.242188 C 42.828125 172.09375 44.121094 172.914062 45.433594 173.699219 C 46.746094 174.484375 48.074219 175.238281 49.425781 175.960938 C 50.773438 176.683594 52.140625 177.371094 53.523438 178.023438 C 54.90625 178.679688 56.304688 179.296875 57.71875 179.882812 C 59.132812 180.46875 60.558594 181.019531 62 181.535156 C 63.441406 182.050781 64.894531 182.53125 66.359375 182.976562 C 67.824219 183.417969 69.296875 183.828125 70.78125 184.199219 C 72.265625 184.570312 73.757812 184.90625 75.257812 185.203125 C 76.761719 185.503906 78.269531 185.765625 79.78125 185.988281 C 81.292969 186.214844 82.8125 186.402344 84.335938 186.550781 C 85.859375 186.699219 87.382812 186.8125 88.914062 186.890625 C 90.441406 186.964844 91.96875 187 93.5 187 C 95.03125 187 96.558594 186.964844 98.089844 186.890625 C 99.617188 186.8125 101.140625 186.699219 102.664062 186.550781 C 104.1875 186.402344 105.707031 186.214844 107.21875 185.988281 C 108.734375 185.765625 110.242188 185.503906 111.742188 185.203125 C 113.242188 184.90625 114.734375 184.570312 116.21875 184.199219 C 117.703125 183.828125 119.179688 183.417969 120.640625 182.976562 C 122.105469 182.53125 123.558594 182.050781 125 181.535156 C 126.441406 181.019531 127.867188 180.46875 129.28125 179.882812 C 130.695312 179.296875 132.09375 178.679688 133.476562 178.023438 C 134.859375 177.371094 136.226562 176.683594 137.578125 175.960938 C 138.925781 175.238281 140.257812 174.484375 141.570312 173.699219 C 142.882812 172.914062 144.175781 172.09375 145.445312 171.242188 C 146.71875 170.394531 147.96875 169.511719 149.199219 168.601562 C 150.429688 167.691406 151.632812 166.75 152.816406 165.777344 C 154 164.808594 155.15625 163.808594 156.292969 162.78125 C 157.425781 161.753906 158.535156 160.699219 159.617188 159.617188 C 160.699219 158.535156 161.753906 157.425781 162.78125 156.292969 C 163.808594 155.15625 164.808594 154 165.777344 152.816406 C 166.75 151.632812 167.691406 150.429688 168.601562 149.199219 C 169.511719 147.96875 170.394531 146.71875 171.242188 145.445312 C 172.09375 144.175781 172.914062 142.882812 173.699219 141.570312 C 174.484375 140.257812 175.238281 138.925781 175.960938 137.578125 C 176.683594 136.226562 177.371094 134.859375 178.023438 133.476562 C 178.679688 132.09375 179.296875 130.695312 179.882812 129.28125 C 180.46875 127.867188 181.019531 126.441406 181.535156 125 C 182.050781 123.558594 182.53125 122.105469 182.976562 120.640625 C 183.417969 119.179688 183.828125 117.703125 184.199219 116.21875 C 184.570312 114.734375 184.90625 113.242188 185.203125 111.742188 C 185.503906 110.242188 185.765625 108.734375 185.988281 107.21875 C 186.214844 105.707031 186.402344 104.1875 186.550781 102.664062 C 186.699219 101.140625 186.8125 99.617188 186.890625 98.089844 C 186.964844 96.558594 187 95.03125 187 93.5 C 187 91.972656 186.960938 90.441406 186.882812 88.914062 C 186.808594 87.386719 186.691406 85.863281 186.542969 84.339844 C 186.390625 82.816406 186.203125 81.300781 185.976562 79.785156 C 185.75 78.273438 185.488281 76.765625 185.1875 75.265625 C 184.886719 73.765625 184.550781 72.273438 184.179688 70.792969 C 183.804688 69.308594 183.398438 67.835938 182.953125 66.371094 C 182.507812 64.90625 182.027344 63.457031 181.507812 62.015625 C 180.992188 60.574219 180.441406 59.148438 179.855469 57.734375 C 179.269531 56.324219 178.648438 54.925781 177.996094 53.542969 C 177.339844 52.160156 176.652344 50.792969 175.929688 49.445312 C 175.207031 48.097656 174.453125 46.765625 173.667969 45.453125 C 172.878906 44.144531 172.0625 42.851562 171.210938 41.578125 C 170.359375 40.308594 169.480469 39.058594 168.570312 37.828125 C 167.65625 36.601562 166.714844 35.394531 165.746094 34.214844 C 164.773438 33.03125 163.777344 31.871094 162.75 30.738281 C 161.722656 29.605469 160.667969 28.5 159.585938 27.417969 C 158.503906 26.335938 157.394531 25.28125 156.261719 24.253906 C 155.128906 23.226562 153.972656 22.226562 152.789062 21.257812 C 151.605469 20.285156 150.402344 19.34375 149.171875 18.433594 C 147.945312 17.519531 146.695312 16.640625 145.421875 15.789062 C 144.148438 14.941406 142.859375 14.121094 141.546875 13.335938 C 140.234375 12.546875 138.90625 11.792969 137.554688 11.070312 C 136.207031 10.351562 134.839844 9.660156 133.457031 9.007812 C 132.074219 8.351562 130.679688 7.730469 129.265625 7.144531 C 127.851562 6.558594 126.425781 6.007812 124.984375 5.492188 C 123.546875 4.976562 122.09375 4.496094 120.628906 4.050781 C 119.167969 3.605469 117.695312 3.195312 116.210938 2.824219 C 114.726562 2.449219 113.234375 2.113281 111.734375 1.8125 C 110.234375 1.515625 108.726562 1.25 107.214844 1.027344 C 105.703125 0.800781 104.183594 0.609375 102.660156 0.460938 C 101.140625 0.308594 99.613281 0.195312 98.085938 0.117188 C 96.558594 0.0390625 95.03125 0 93.5 0 Z M 135.695312 128.65625 C 135.429688 128.964844 135.136719 129.246094 134.816406 129.5 C 134.496094 129.753906 134.152344 129.972656 133.789062 130.160156 C 133.425781 130.347656 133.050781 130.496094 132.660156 130.609375 C 132.265625 130.722656 131.867188 130.800781 131.460938 130.835938 C 131.054688 130.875 130.648438 130.871094 130.242188 130.828125 C 129.835938 130.789062 129.4375 130.707031 129.046875 130.589844 C 128.660156 130.472656 128.28125 130.316406 127.921875 130.125 C 127.5625 129.933594 127.222656 129.710938 126.90625 129.453125 L 89.503906 98.289062 C 88.796875 97.695312 88.246094 96.980469 87.855469 96.144531 C 87.460938 95.304688 87.265625 94.425781 87.265625 93.5 L 87.265625 49.867188 C 87.265625 49.457031 87.308594 49.050781 87.386719 48.652344 C 87.46875 48.25 87.585938 47.859375 87.742188 47.480469 C 87.898438 47.101562 88.089844 46.746094 88.316406 46.402344 C 88.546875 46.0625 88.804688 45.75 89.09375 45.460938 C 89.382812 45.171875 89.699219 44.910156 90.039062 44.683594 C 90.378906 44.457031 90.738281 44.265625 91.117188 44.109375 C 91.492188 43.953125 91.882812 43.832031 92.285156 43.753906 C 92.6875 43.671875 93.089844 43.632812 93.5 43.632812 C 93.910156 43.632812 94.316406 43.671875 94.714844 43.753906 C 95.117188 43.832031 95.507812 43.953125 95.886719 44.109375 C 96.265625 44.265625 96.625 44.457031 96.964844 44.683594 C 97.304688 44.910156 97.617188 45.171875 97.910156 45.460938 C 98.199219 45.75 98.457031 46.0625 98.683594 46.402344 C 98.910156 46.746094 99.101562 47.101562 99.257812 47.480469 C 99.417969 47.859375 99.535156 48.25 99.613281 48.652344 C 99.695312 49.050781 99.734375 49.457031 99.734375 49.867188 L 99.734375 90.582031 L 134.898438 119.878906 C 135.210938 120.140625 135.496094 120.433594 135.753906 120.75 C 136.011719 121.070312 136.234375 121.410156 136.425781 121.773438 C 136.613281 122.132812 136.765625 122.511719 136.882812 122.902344 C 137 123.296875 137.074219 123.695312 137.113281 124.101562 C 137.148438 124.511719 137.144531 124.917969 137.101562 125.324219 C 137.058594 125.730469 136.976562 126.128906 136.855469 126.519531 C 136.734375 126.910156 136.574219 127.285156 136.378906 127.644531 C 136.183594 128.003906 135.957031 128.34375 135.695312 128.65625 Z M 135.695312 128.65625 " fill-opacity="1" fill-rule="nonzero"/></svg>