<svg xmlns="http://www.w3.org/2000/svg" xmlns:xlink="http://www.w3.org/1999/xlink" width="250" zoomAndPan="magnify" viewBox="0 0 187.5 187.499992" height="250" preserveAspectRatio="xMidYMid meet" version="1.0"><defs><clipPath id="6e0daaecf0"><path d="M 0 10 L 187 10 L 187 177.652344 L 0 177.652344 Z M 0 10 " clip-rule="nonzero"/></clipPath></defs><g clip-path="url(#6e0daaecf0)"><path fill="#215520" d="M 92.632812 10.425781 C 90.949219 10.695312 89.511719 11.734375 88.703125 13.179688 L 0.960938 168.675781 C 0 170.386719 0 172.582031 0.960938 174.285156 C 1.9375 176.011719 3.746094 177.140625 5.71875 177.140625 L 181.203125 177.140625 C 183.171875 177.140625 184.984375 176.011719 185.960938 174.285156 C 186.921875 172.582031 186.921875 170.386719 185.960938 168.675781 L 98.222656 13.179688 C 97.09375 11.171875 94.914062 10.0625 92.632812 10.425781 M 93.460938 28.316406 L 167.957031 162.535156 L 18.859375 162.535156 Z M 93.460938 28.316406 " fill-opacity="1" fill-rule="nonzero"/></g><path fill="#215520" d="M 93.941406 136.898438 C 88.898438 136.898438 84.796875 141.074219 84.796875 146.207031 C 84.796875 151.34375 88.898438 155.519531 93.941406 155.519531 C 98.984375 155.519531 103.085938 151.34375 103.085938 146.207031 C 103.085938 141.074219 98.984375 136.898438 93.941406 136.898438 Z M 93.941406 136.898438 " fill-opacity="1" fill-rule="nonzero"/><path fill="#215520" d="M 96.75 58.976562 L 90.378906 58.976562 C 86.085938 58.976562 82.722656 63.949219 82.726562 70.402344 L 85.445312 113.777344 C 85.445312 120.121094 88.808594 125.089844 93.105469 125.089844 L 94.027344 125.089844 C 98.316406 125.089844 101.679688 120.121094 101.675781 113.890625 L 104.402344 70.285156 C 104.40625 63.949219 101.042969 58.976562 96.75 58.976562 Z M 96.75 58.976562 " fill-opacity="1" fill-rule="nonzero"/></svg>