<svg xmlns="http://www.w3.org/2000/svg" xmlns:xlink="http://www.w3.org/1999/xlink" width="250" zoomAndPan="magnify" viewBox="0 0 187.5 187.499992" height="250" preserveAspectRatio="xMidYMid meet" version="1.0"><defs><clipPath id="eac34a8640"><path d="M 30 162 L 157 162 L 157 185.503906 L 30 185.503906 Z M 30 162 " clip-rule="nonzero"/></clipPath></defs><path fill="#215520" d="M 93.5 36.65625 L 27.222656 102.996094 L 24.507812 105.707031 C 24.449219 105.765625 24.398438 105.820312 24.335938 105.878906 L 24.335938 122.953125 C 28.777344 123.992188 32.820312 126.414062 36.046875 130.054688 C 38.238281 132.535156 41.121094 133.746094 44.007812 133.746094 L 44.179688 133.746094 C 47.0625 133.746094 50.007812 132.535156 52.136719 130.054688 C 56.578125 125.089844 62.464844 122.378906 68.808594 122.378906 C 75.15625 122.378906 81.097656 125.089844 85.480469 130.054688 C 87.5 132.363281 90.09375 133.632812 92.867188 133.804688 L 94.25 133.804688 C 96.960938 133.632812 99.554688 132.363281 101.574219 130.054688 C 106.011719 125.089844 111.953125 122.378906 118.246094 122.378906 C 118.304688 122.378906 118.304688 122.378906 118.304688 122.378906 C 124.589844 122.378906 130.53125 125.089844 134.976562 130.054688 C 137.113281 132.476562 139.820312 133.804688 142.761719 133.859375 L 143.226562 133.859375 C 146.109375 133.796875 148.875 132.476562 151.011719 130.054688 C 154.300781 126.421875 158.335938 123.992188 162.78125 122.953125 L 162.78125 105.996094 C 162.671875 105.886719 162.609375 105.824219 162.492188 105.707031 L 159.898438 103.113281 Z M 93.5 36.65625 " fill-opacity="1" fill-rule="nonzero"/><path fill="#215520" d="M 184.40625 141.585938 C 179.964844 136.625 174.078125 133.910156 167.734375 133.910156 C 161.386719 133.910156 155.445312 136.625 151 141.585938 C 148.871094 144.066406 145.984375 145.449219 142.984375 145.449219 C 139.984375 145.449219 137.15625 144.066406 134.964844 141.585938 C 130.523438 136.625 124.582031 133.910156 118.292969 133.910156 C 118.292969 133.910156 118.292969 133.910156 118.234375 133.910156 C 111.949219 133.910156 106.007812 136.625 101.5625 141.585938 C 99.371094 144.066406 96.539062 145.449219 93.542969 145.449219 C 90.542969 145.449219 87.660156 144.066406 85.464844 141.585938 C 81.078125 136.625 75.136719 133.910156 68.792969 133.910156 C 62.449219 133.910156 56.566406 136.625 52.121094 141.585938 C 47.734375 146.546875 40.410156 146.546875 36.023438 141.585938 C 31.636719 136.625 25.695312 133.910156 19.351562 133.910156 C 13.007812 133.910156 7.125 136.625 2.679688 141.585938 C 0.542969 143.949219 0.773438 147.640625 3.203125 149.714844 C 5.5625 151.851562 9.203125 151.621094 11.332031 149.253906 C 15.71875 144.292969 23.042969 144.292969 27.429688 149.253906 C 31.832031 154.214844 37.773438 156.988281 44.121094 156.988281 C 50.464844 156.988281 56.347656 154.222656 60.792969 149.257812 C 65.175781 144.296875 72.5 144.296875 76.886719 149.257812 C 81.273438 154.222656 87.214844 156.988281 93.558594 156.988281 C 99.90625 156.988281 105.847656 154.222656 110.230469 149.257812 C 114.617188 144.296875 121.941406 144.296875 126.328125 149.257812 C 130.714844 154.222656 136.65625 156.988281 143 156.988281 C 149.34375 156.988281 155.285156 154.222656 159.671875 149.257812 C 161.867188 146.777344 164.746094 145.453125 167.75 145.453125 C 170.746094 145.453125 173.578125 146.785156 175.769531 149.257812 C 177.90625 151.621094 181.539062 151.851562 183.902344 149.722656 C 186.308594 147.640625 186.480469 144.007812 184.40625 141.585938 Z M 184.40625 141.585938 " fill-opacity="1" fill-rule="nonzero"/><g clip-path="url(#eac34a8640)"><path fill="#215520" d="M 147.488281 170.425781 C 145.46875 172.90625 142.757812 174.289062 139.933594 174.289062 C 137.160156 174.289062 134.453125 172.90625 132.4375 170.425781 C 128.28125 165.460938 122.691406 162.695312 116.742188 162.695312 C 110.800781 162.757812 105.265625 165.46875 101.109375 170.425781 C 99.03125 172.90625 96.378906 174.289062 93.554688 174.289062 C 90.730469 174.289062 88.074219 172.90625 86 170.425781 C 81.84375 165.460938 76.304688 162.695312 70.363281 162.695312 C 64.363281 162.695312 58.828125 165.46875 54.671875 170.425781 C 50.578125 175.386719 43.714844 175.386719 39.5625 170.425781 C 37.601562 168.054688 34.195312 167.832031 31.945312 169.960938 C 29.695312 172.039062 29.523438 175.730469 31.484375 178.09375 C 35.347656 182.710938 40.421875 185.417969 45.90625 185.765625 C 46.078125 185.828125 46.25 185.828125 46.480469 185.765625 C 46.714844 185.828125 46.886719 185.828125 47.117188 185.828125 C 47.347656 185.828125 47.519531 185.828125 47.75 185.765625 C 48.042969 185.828125 48.269531 185.765625 48.5 185.765625 C 53.925781 185.363281 59 182.652344 62.804688 178.09375 C 66.898438 173.132812 73.765625 173.132812 77.914062 178.09375 C 81.71875 182.710938 86.859375 185.363281 92.335938 185.707031 C 92.449219 185.765625 92.570312 185.765625 92.742188 185.765625 L 92.914062 185.765625 C 93.144531 185.828125 93.316406 185.828125 93.546875 185.828125 C 93.78125 185.828125 93.953125 185.828125 94.183594 185.765625 C 94.46875 185.828125 94.699219 185.765625 94.929688 185.707031 C 100.355469 185.304688 105.371094 182.652344 109.175781 178.09375 C 113.332031 173.132812 120.191406 173.132812 124.285156 178.09375 C 128.152344 182.710938 133.226562 185.363281 138.710938 185.707031 C 138.828125 185.765625 138.941406 185.765625 139.113281 185.765625 L 139.285156 185.765625 C 139.515625 185.828125 139.6875 185.828125 139.921875 185.828125 C 140.152344 185.828125 140.324219 185.828125 140.554688 185.765625 C 140.785156 185.828125 141.070312 185.765625 141.304688 185.765625 C 146.78125 185.363281 151.800781 182.652344 155.605469 178.09375 C 157.570312 175.730469 157.394531 172.039062 155.144531 169.960938 C 152.914062 167.832031 149.503906 168.0625 147.488281 170.425781 Z M 147.488281 170.425781 " fill-opacity="1" fill-rule="nonzero"/></g><path fill="#215520" d="M 56.0625 25.699219 L 58.945312 22.816406 L 58.945312 18.546875 C 58.945312 15.378906 56.351562 12.777344 53.175781 12.777344 L 41.636719 12.777344 C 38.464844 12.777344 35.871094 15.371094 35.871094 18.546875 L 35.871094 45.945312 L 38.753906 43.058594 Z M 56.0625 25.699219 " fill-opacity="1" fill-rule="nonzero"/><path fill="#215520" d="M 20.414062 101.613281 L 27.222656 94.804688 L 93.5 28.523438 L 159.890625 94.976562 L 166.527344 101.613281 C 170.96875 105.996094 178.121094 105.996094 182.503906 101.613281 C 186.945312 97.171875 186.945312 90.019531 182.503906 85.632812 L 103.589844 6.660156 C 103.074219 5.792969 102.492188 4.933594 101.746094 4.179688 C 98.398438 0.832031 93.433594 0.0234375 89.285156 1.808594 C 87.84375 2.386719 86.515625 3.191406 85.304688 4.351562 C 84.902344 4.8125 84.496094 5.328125 84.152344 5.792969 L 61.832031 28.117188 L 35.929688 54.023438 L 4.378906 85.574219 C -0.0078125 90.015625 -0.0078125 97.164062 4.378906 101.613281 C 8.816406 105.992188 15.96875 105.992188 20.414062 101.613281 Z M 20.414062 101.613281 " fill-opacity="1" fill-rule="nonzero"/></svg>