<svg xmlns="http://www.w3.org/2000/svg" xmlns:xlink="http://www.w3.org/1999/xlink" width="250" zoomAndPan="magnify" viewBox="0 0 187.5 187.499992" height="250" preserveAspectRatio="xMidYMid meet" version="1.0"><defs><clipPath id="6b69ba59f8"><path d="M 0 32.300781 L 187 32.300781 L 187 154.972656 L 0 154.972656 Z M 0 32.300781 " clip-rule="nonzero"/></clipPath></defs><g clip-path="url(#6b69ba59f8)"><path fill="#215520" d="M 183.683594 78.550781 L 121.230469 78.550781 C 113.792969 56.683594 97.203125 34.972656 96.175781 33.652344 C 95.875 33.273438 95.507812 32.976562 95.070312 32.761719 C 94.636719 32.546875 94.179688 32.4375 93.695312 32.429688 L 93.308594 32.429688 C 92.828125 32.441406 92.375 32.554688 91.945312 32.769531 C 91.519531 32.980469 91.15625 33.277344 90.859375 33.652344 C 89.828125 34.972656 73.242188 56.683594 65.769531 78.550781 L 3.316406 78.550781 C 2.890625 78.550781 2.480469 78.632812 2.085938 78.796875 C 1.691406 78.960938 1.339844 79.191406 1.039062 79.496094 C 0.738281 79.796875 0.503906 80.144531 0.339844 80.539062 C 0.175781 80.933594 0.0976562 81.34375 0.0976562 81.773438 L 0.0976562 112.082031 C 0.0820312 112.175781 0.0820312 112.273438 0.0976562 112.371094 C 0.078125 112.476562 0.078125 112.585938 0.0976562 112.691406 L 0.0976562 151.472656 C 0.0976562 151.898438 0.175781 152.308594 0.339844 152.703125 C 0.503906 153.097656 0.738281 153.445312 1.039062 153.75 C 1.339844 154.050781 1.691406 154.285156 2.085938 154.449219 C 2.480469 154.609375 2.890625 154.691406 3.316406 154.691406 L 183.683594 154.691406 C 184.113281 154.691406 184.523438 154.609375 184.917969 154.449219 C 185.3125 154.285156 185.660156 154.050781 185.960938 153.75 C 186.265625 153.445312 186.496094 153.097656 186.660156 152.703125 C 186.824219 152.308594 186.90625 151.898438 186.90625 151.472656 L 186.90625 81.675781 C 186.894531 81.257812 186.800781 80.855469 186.632812 80.472656 C 186.464844 80.089844 186.230469 79.753906 185.929688 79.460938 C 185.628906 79.167969 185.285156 78.945312 184.894531 78.789062 C 184.507812 78.628906 184.101562 78.550781 183.683594 78.550781 Z M 180.464844 84.800781 L 180.464844 106.378906 L 179.980469 106.605469 L 179.753906 106.605469 C 177.820312 107.554688 175.804688 108.273438 173.703125 108.761719 C 171.605469 109.25 169.476562 109.492188 167.324219 109.492188 C 165.167969 109.492188 163.039062 109.25 160.941406 108.761719 C 158.839844 108.273438 156.824219 107.554688 154.890625 106.605469 L 154.695312 106.539062 C 152.289062 105.320312 149.773438 104.394531 147.144531 103.765625 C 144.519531 103.136719 141.855469 102.824219 139.15625 102.824219 C 136.457031 102.824219 133.792969 103.136719 131.167969 103.765625 C 128.539062 104.394531 126.023438 105.320312 123.617188 106.539062 L 123.324219 106.703125 C 124.34375 103.109375 124.832031 99.449219 124.792969 95.71875 C 124.753906 91.988281 124.191406 88.335938 123.101562 84.769531 Z M 147.257812 127.765625 L 147.257812 130.988281 C 147.167969 131.335938 147.027344 131.660156 146.832031 131.960938 C 146.636719 132.261719 146.398438 132.523438 146.113281 132.742188 C 145.832031 132.964844 145.519531 133.132812 145.179688 133.25 C 144.839844 133.367188 144.492188 133.425781 144.132812 133.425781 C 143.773438 133.425781 143.425781 133.367188 143.085938 133.25 C 142.746094 133.132812 142.433594 132.964844 142.152344 132.742188 C 141.867188 132.523438 141.628906 132.261719 141.433594 131.960938 C 141.238281 131.660156 141.09375 131.335938 141.007812 130.988281 L 141.007812 127.765625 C 141.09375 127.417969 141.238281 127.09375 141.433594 126.792969 C 141.628906 126.492188 141.867188 126.230469 142.152344 126.011719 C 142.433594 125.789062 142.746094 125.621094 143.085938 125.503906 C 143.425781 125.386719 143.773438 125.328125 144.132812 125.328125 C 144.492188 125.328125 144.839844 125.386719 145.179688 125.503906 C 145.519531 125.621094 145.832031 125.789062 146.113281 126.011719 C 146.398438 126.230469 146.636719 126.492188 146.832031 126.792969 C 147.027344 127.09375 147.167969 127.417969 147.257812 127.765625 Z M 111.085938 134.980469 L 111.085938 138.203125 C 111.144531 138.4375 111.179688 138.679688 111.183594 138.925781 C 111.1875 139.171875 111.164062 139.410156 111.113281 139.652344 C 111.0625 139.890625 110.984375 140.121094 110.882812 140.34375 C 110.777344 140.566406 110.652344 140.773438 110.5 140.964844 C 110.351562 141.160156 110.179688 141.332031 109.992188 141.488281 C 109.800781 141.640625 109.59375 141.773438 109.375 141.878906 C 109.15625 141.988281 108.925781 142.066406 108.6875 142.121094 C 108.449219 142.179688 108.207031 142.207031 107.960938 142.207031 C 107.71875 142.207031 107.476562 142.179688 107.238281 142.121094 C 107 142.066406 106.769531 141.988281 106.550781 141.878906 C 106.328125 141.773438 106.125 141.640625 105.933594 141.488281 C 105.742188 141.332031 105.574219 141.160156 105.421875 140.964844 C 105.273438 140.773438 105.144531 140.566406 105.042969 140.34375 C 104.9375 140.121094 104.863281 139.890625 104.8125 139.652344 C 104.761719 139.410156 104.738281 139.171875 104.742188 138.925781 C 104.746094 138.679688 104.777344 138.4375 104.839844 138.203125 L 104.839844 134.980469 C 104.925781 134.632812 105.066406 134.308594 105.261719 134.007812 C 105.457031 133.707031 105.699219 133.445312 105.980469 133.226562 C 106.265625 133.003906 106.574219 132.835938 106.914062 132.71875 C 107.253906 132.601562 107.601562 132.542969 107.960938 132.542969 C 108.320312 132.542969 108.671875 132.601562 109.011719 132.71875 C 109.347656 132.835938 109.660156 133.003906 109.945312 133.226562 C 110.226562 133.445312 110.464844 133.707031 110.660156 134.007812 C 110.859375 134.308594 111 134.632812 111.085938 134.980469 Z M 68.667969 127.765625 C 68.753906 127.417969 68.898438 127.09375 69.09375 126.792969 C 69.289062 126.492188 69.527344 126.230469 69.8125 126.011719 C 70.09375 125.789062 70.40625 125.621094 70.746094 125.503906 C 71.082031 125.386719 71.433594 125.328125 71.792969 125.328125 C 72.152344 125.328125 72.5 125.386719 72.839844 125.503906 C 73.179688 125.621094 73.492188 125.789062 73.773438 126.011719 C 74.054688 126.230469 74.296875 126.492188 74.492188 126.792969 C 74.6875 127.09375 74.828125 127.417969 74.917969 127.765625 L 74.917969 130.988281 C 74.828125 131.335938 74.6875 131.660156 74.492188 131.960938 C 74.296875 132.261719 74.054688 132.523438 73.773438 132.742188 C 73.492188 132.964844 73.179688 133.132812 72.839844 133.25 C 72.5 133.367188 72.152344 133.425781 71.792969 133.425781 C 71.433594 133.425781 71.082031 133.367188 70.746094 133.25 C 70.40625 133.132812 70.09375 132.964844 69.8125 132.742188 C 69.527344 132.523438 69.289062 132.261719 69.09375 131.960938 C 68.898438 131.660156 68.753906 131.335938 68.667969 130.988281 Z M 38.746094 134.980469 L 38.746094 138.203125 C 38.660156 138.550781 38.515625 138.875 38.320312 139.175781 C 38.125 139.476562 37.886719 139.738281 37.601562 139.957031 C 37.320312 140.179688 37.007812 140.347656 36.667969 140.464844 C 36.332031 140.582031 35.980469 140.640625 35.621094 140.640625 C 35.261719 140.640625 34.914062 140.582031 34.574219 140.464844 C 34.234375 140.347656 33.921875 140.179688 33.640625 139.957031 C 33.359375 139.738281 33.117188 139.476562 32.921875 139.175781 C 32.726562 138.875 32.585938 138.550781 32.496094 138.203125 L 32.496094 134.980469 C 32.585938 134.632812 32.726562 134.308594 32.921875 134.007812 C 33.117188 133.707031 33.359375 133.445312 33.640625 133.226562 C 33.921875 133.003906 34.234375 132.835938 34.574219 132.71875 C 34.914062 132.601562 35.261719 132.542969 35.621094 132.542969 C 35.980469 132.542969 36.332031 132.601562 36.667969 132.71875 C 37.007812 132.835938 37.320312 133.003906 37.601562 133.226562 C 37.886719 133.445312 38.125 133.707031 38.320312 134.007812 C 38.515625 134.308594 38.660156 134.632812 38.746094 134.980469 Z M 93.5 40.546875 C 98.558594 47.566406 110.570312 65.378906 116.046875 82.125 C 116.046875 82.449219 116.273438 82.769531 116.367188 83.0625 C 118.914062 91.339844 119.589844 99.324219 117.238281 105.605469 C 116.605469 107.164062 115.757812 108.589844 114.695312 109.890625 C 114.550781 110.050781 114.402344 110.199219 114.242188 110.339844 C 112.136719 112.386719 109.742188 114.011719 107.0625 115.21875 C 104.386719 116.425781 101.582031 117.140625 98.652344 117.363281 L 88.476562 117.363281 C 79.910156 116.042969 74.175781 112.984375 71.148438 107.992188 L 71.148438 107.796875 C 70.703125 107.082031 70.324219 106.328125 70.019531 105.542969 C 67.476562 99.292969 68.347656 91.273438 70.953125 82.996094 C 70.988281 82.761719 71.054688 82.535156 71.148438 82.320312 C 76.398438 65.441406 88.476562 47.597656 93.5 40.546875 Z M 6.34375 84.800781 L 63.933594 84.800781 C 62.757812 88.558594 62.1875 92.40625 62.222656 96.347656 C 62.253906 100.285156 62.890625 104.121094 64.125 107.863281 C 62.304688 108.527344 60.429688 109.003906 58.507812 109.289062 C 56.589844 109.570312 54.660156 109.660156 52.71875 109.546875 C 50.78125 109.4375 48.875 109.132812 47 108.628906 C 45.121094 108.128906 43.316406 107.445312 41.582031 106.574219 C 39.167969 105.355469 36.648438 104.433594 34.019531 103.804688 C 31.390625 103.179688 28.726562 102.867188 26.023438 102.867188 C 23.320312 102.867188 20.65625 103.179688 18.027344 103.804688 C 15.398438 104.433594 12.878906 105.355469 10.46875 106.574219 C 9.125 107.25 7.742188 107.820312 6.3125 108.28125 Z M 6.34375 84.800781 " fill-opacity="1" fill-rule="nonzero"/></g><path fill="#215520" d="M 91.277344 109.953125 L 91.730469 109.953125 C 92.074219 109.882812 92.398438 109.761719 92.699219 109.585938 C 93.003906 109.410156 93.273438 109.1875 93.503906 108.925781 C 93.734375 108.660156 93.917969 108.367188 94.054688 108.042969 C 94.191406 107.71875 94.269531 107.382812 94.296875 107.035156 C 94.320312 106.683594 94.289062 106.339844 94.203125 106 C 94.117188 105.660156 93.976562 105.339844 93.785156 105.046875 C 93.59375 104.753906 93.363281 104.496094 93.085938 104.277344 C 92.8125 104.058594 92.511719 103.890625 92.179688 103.769531 C 90.355469 103.6875 88.625 103.234375 86.992188 102.417969 C 85.359375 101.597656 83.964844 100.480469 82.808594 99.070312 C 81.847656 97.273438 81.292969 95.363281 81.132812 93.332031 C 80.976562 91.304688 81.234375 89.328125 81.90625 87.410156 C 81.902344 87.046875 81.84375 86.699219 81.722656 86.359375 C 81.601562 86.019531 81.429688 85.707031 81.207031 85.425781 C 80.980469 85.140625 80.71875 84.902344 80.414062 84.710938 C 80.109375 84.515625 79.78125 84.378906 79.429688 84.292969 C 79.078125 84.210938 78.726562 84.1875 78.367188 84.222656 C 78.007812 84.257812 77.664062 84.351562 77.335938 84.503906 C 77.007812 84.652344 76.714844 84.855469 76.457031 85.105469 C 76.195312 85.351562 75.984375 85.640625 75.816406 85.960938 C 75.375 87.332031 75.082031 88.734375 74.9375 90.167969 C 74.792969 91.601562 74.800781 93.035156 74.957031 94.464844 C 75.117188 95.898438 75.421875 97.296875 75.875 98.664062 C 76.332031 100.03125 76.921875 101.335938 77.652344 102.578125 C 78.460938 103.644531 79.371094 104.609375 80.386719 105.480469 C 81.402344 106.347656 82.496094 107.101562 83.671875 107.738281 C 84.84375 108.375 86.074219 108.878906 87.355469 109.253906 C 88.636719 109.625 89.945312 109.859375 91.277344 109.953125 Z M 91.277344 109.953125 " fill-opacity="1" fill-rule="nonzero"/></svg>