<svg xmlns="http://www.w3.org/2000/svg" xmlns:xlink="http://www.w3.org/1999/xlink" width="250" zoomAndPan="magnify" viewBox="0 0 187.5 187.499992" height="250" preserveAspectRatio="xMidYMid meet" version="1.0"><defs><clipPath id="42bdcf15fb"><path d="M 4 18 L 182 18 L 182 174.824219 L 4 174.824219 Z M 4 18 " clip-rule="nonzero"/></clipPath></defs><g clip-path="url(#42bdcf15fb)"><path fill="#215520" d="M 93.183594 174.546875 C 92.332031 174.546875 91.511719 174.378906 90.726562 174.046875 C 89.941406 173.714844 89.25 173.238281 88.65625 172.625 L 18.433594 100.003906 C 17.390625 98.925781 16.398438 97.800781 15.460938 96.628906 C 14.519531 95.457031 13.636719 94.242188 12.8125 92.988281 C 11.984375 91.734375 11.21875 90.441406 10.515625 89.117188 C 9.808594 87.789062 9.167969 86.433594 8.585938 85.050781 C 8.007812 83.664062 7.496094 82.253906 7.046875 80.820312 C 6.601562 79.386719 6.21875 77.933594 5.90625 76.464844 C 5.59375 74.996094 5.351562 73.515625 5.179688 72.023438 C 5.003906 70.53125 4.898438 69.035156 4.867188 67.53125 C 4.832031 66.03125 4.867188 64.53125 4.972656 63.03125 C 5.078125 61.535156 5.253906 60.042969 5.496094 58.5625 C 5.742188 57.082031 6.054688 55.613281 6.4375 54.160156 C 6.816406 52.707031 7.265625 51.277344 7.78125 49.863281 C 8.296875 48.453125 8.875 47.070312 9.519531 45.710938 C 10.164062 44.355469 10.871094 43.03125 11.636719 41.742188 C 12.40625 40.449219 13.230469 39.199219 14.113281 37.984375 C 15 36.769531 15.9375 35.597656 16.933594 34.472656 C 17.925781 33.347656 18.96875 32.269531 20.0625 31.238281 C 21.15625 30.210938 22.296875 29.234375 23.484375 28.3125 C 24.667969 27.390625 25.894531 26.523438 27.160156 25.714844 C 28.425781 24.90625 29.726562 24.160156 31.0625 23.472656 C 32.398438 22.785156 33.761719 22.160156 35.15625 21.601562 C 36.550781 21.042969 37.964844 20.546875 39.40625 20.121094 C 40.847656 19.691406 42.304688 19.332031 43.777344 19.042969 C 45.25 18.75 46.734375 18.527344 48.226562 18.375 C 49.722656 18.222656 51.21875 18.136719 52.722656 18.125 C 54.222656 18.109375 55.722656 18.167969 57.21875 18.292969 C 58.714844 18.421875 60.203125 18.617188 61.683594 18.882812 C 63.160156 19.144531 64.625 19.480469 66.070312 19.882812 C 67.519531 20.28125 68.945312 20.75 70.347656 21.285156 C 71.75 21.820312 73.128906 22.417969 74.476562 23.082031 C 75.824219 23.746094 77.136719 24.46875 78.417969 25.253906 C 79.699219 26.039062 80.9375 26.882812 82.140625 27.785156 L 93.183594 36.070312 L 104.234375 27.785156 C 105.4375 26.882812 106.675781 26.039062 107.957031 25.253906 C 109.238281 24.46875 110.550781 23.746094 111.898438 23.082031 C 113.246094 22.421875 114.621094 21.820312 116.027344 21.289062 C 117.429688 20.753906 118.855469 20.285156 120.300781 19.882812 C 121.75 19.480469 123.210938 19.148438 124.691406 18.882812 C 126.167969 18.617188 127.65625 18.421875 129.152344 18.296875 C 130.648438 18.171875 132.148438 18.113281 133.652344 18.128906 C 135.152344 18.140625 136.652344 18.226562 138.144531 18.378906 C 139.636719 18.53125 141.121094 18.753906 142.59375 19.046875 C 144.070312 19.339844 145.527344 19.699219 146.964844 20.125 C 148.40625 20.554688 149.820312 21.046875 151.214844 21.605469 C 152.609375 22.167969 153.972656 22.789062 155.308594 23.476562 C 156.644531 24.164062 157.945312 24.910156 159.210938 25.71875 C 160.476562 26.527344 161.703125 27.394531 162.886719 28.316406 C 164.074219 29.238281 165.210938 30.214844 166.304688 31.246094 C 167.398438 32.273438 168.445312 33.351562 169.4375 34.476562 C 170.429688 35.605469 171.371094 36.773438 172.253906 37.988281 C 173.136719 39.203125 173.964844 40.453125 174.730469 41.746094 C 175.5 43.035156 176.203125 44.359375 176.847656 45.714844 C 177.492188 47.074219 178.074219 48.457031 178.585938 49.867188 C 179.101562 51.277344 179.550781 52.710938 179.933594 54.164062 C 180.3125 55.617188 180.625 57.082031 180.871094 58.566406 C 181.113281 60.046875 181.289062 61.535156 181.394531 63.035156 C 181.5 64.535156 181.535156 66.035156 181.503906 67.535156 C 181.46875 69.035156 181.363281 70.53125 181.191406 72.023438 C 181.015625 73.515625 180.773438 74.996094 180.460938 76.464844 C 180.148438 77.933594 179.769531 79.386719 179.320312 80.820312 C 178.875 82.253906 178.359375 83.664062 177.78125 85.050781 C 177.203125 86.433594 176.5625 87.792969 175.855469 89.117188 C 175.148438 90.441406 174.382812 91.734375 173.558594 92.988281 C 172.734375 94.242188 171.851562 95.457031 170.910156 96.628906 C 169.972656 97.800781 168.980469 98.925781 167.9375 100.003906 L 97.714844 172.625 C 97.121094 173.238281 96.433594 173.714844 95.644531 174.046875 C 94.859375 174.378906 94.039062 174.546875 93.183594 174.546875 Z M 53.203125 30.789062 C 51.460938 30.78125 49.722656 30.902344 47.996094 31.152344 C 46.273438 31.398438 44.574219 31.773438 42.902344 32.269531 C 41.230469 32.769531 39.605469 33.386719 38.023438 34.121094 C 36.441406 34.859375 34.921875 35.707031 33.46875 36.664062 C 32.011719 37.625 30.632812 38.683594 29.332031 39.847656 C 28.03125 41.007812 26.820312 42.257812 25.703125 43.597656 C 24.589844 44.9375 23.574219 46.351562 22.664062 47.839844 C 21.753906 49.328125 20.960938 50.875 20.277344 52.480469 C 19.59375 54.082031 19.03125 55.730469 18.59375 57.417969 C 18.152344 59.105469 17.835938 60.816406 17.644531 62.546875 C 17.457031 64.28125 17.394531 66.019531 17.460938 67.761719 C 17.527344 69.503906 17.71875 71.234375 18.039062 72.949219 C 18.355469 74.664062 18.800781 76.34375 19.367188 77.996094 C 19.929688 79.644531 20.613281 81.242188 21.417969 82.792969 C 22.21875 84.339844 23.128906 85.824219 24.144531 87.238281 C 25.164062 88.65625 26.28125 89.988281 27.496094 91.242188 L 93.183594 159.179688 L 158.875 91.242188 C 159.648438 90.441406 160.382812 89.609375 161.074219 88.742188 C 161.769531 87.878906 162.421875 86.980469 163.03125 86.054688 C 163.644531 85.125 164.210938 84.171875 164.730469 83.191406 C 165.253906 82.210938 165.726562 81.210938 166.15625 80.1875 C 166.582031 79.160156 166.964844 78.121094 167.292969 77.058594 C 167.625 76 167.90625 74.925781 168.136719 73.839844 C 168.367188 72.753906 168.546875 71.660156 168.675781 70.558594 C 168.804688 69.457031 168.882812 68.351562 168.90625 67.238281 C 168.933594 66.128906 168.90625 65.019531 168.828125 63.914062 C 168.75 62.804688 168.621094 61.703125 168.441406 60.609375 C 168.261719 59.515625 168.027344 58.429688 167.746094 57.355469 C 167.464844 56.28125 167.132812 55.222656 166.753906 54.179688 C 166.371094 53.136719 165.945312 52.113281 165.46875 51.113281 C 164.992188 50.109375 164.46875 49.128906 163.902344 48.175781 C 163.335938 47.222656 162.726562 46.296875 162.070312 45.398438 C 161.417969 44.5 160.722656 43.636719 159.988281 42.804688 C 159.253906 41.972656 158.484375 41.175781 157.675781 40.414062 C 156.867188 39.652344 156.023438 38.933594 155.148438 38.25 C 154.269531 37.566406 153.363281 36.929688 152.429688 36.332031 C 151.492188 35.734375 150.53125 35.179688 149.542969 34.671875 C 148.558594 34.164062 147.546875 33.703125 146.519531 33.292969 C 145.488281 32.878906 144.441406 32.511719 143.375 32.195312 C 142.3125 31.882812 141.234375 31.617188 140.144531 31.398438 C 139.058594 31.183594 137.960938 31.019531 136.855469 30.90625 C 135.75 30.792969 134.644531 30.734375 133.535156 30.722656 C 132.425781 30.710938 131.316406 30.753906 130.210938 30.847656 C 129.101562 30.941406 128.003906 31.085938 126.910156 31.28125 C 125.816406 31.480469 124.738281 31.726562 123.667969 32.023438 C 122.597656 32.320312 121.542969 32.664062 120.507812 33.0625 C 119.46875 33.457031 118.453125 33.898438 117.457031 34.390625 C 116.460938 34.878906 115.488281 35.414062 114.542969 35.996094 C 113.597656 36.578125 112.679688 37.199219 111.792969 37.867188 L 96.96875 48.988281 C 96.421875 49.398438 95.828125 49.714844 95.179688 49.929688 C 94.53125 50.144531 93.867188 50.253906 93.183594 50.253906 C 92.503906 50.253906 91.839844 50.144531 91.191406 49.929688 C 90.542969 49.714844 89.949219 49.398438 89.402344 48.988281 L 74.574219 37.867188 C 71.492188 35.558594 68.121094 33.800781 64.464844 32.589844 C 60.808594 31.378906 57.054688 30.777344 53.203125 30.789062 Z M 53.203125 30.789062 " fill-opacity="1" fill-rule="nonzero"/></g><path fill="#215520" d="M 86.882812 115.246094 C 86.046875 115.246094 85.242188 115.085938 84.46875 114.769531 C 83.699219 114.449219 83.015625 113.992188 82.425781 113.398438 L 63.515625 94.492188 C 63.234375 94.195312 62.980469 93.875 62.757812 93.53125 C 62.535156 93.1875 62.347656 92.828125 62.195312 92.449219 C 62.042969 92.066406 61.929688 91.675781 61.855469 91.273438 C 61.78125 90.871094 61.742188 90.464844 61.746094 90.054688 C 61.75 89.648438 61.792969 89.242188 61.875 88.839844 C 61.960938 88.441406 62.078125 88.050781 62.238281 87.675781 C 62.394531 87.296875 62.589844 86.9375 62.816406 86.597656 C 63.046875 86.257812 63.304688 85.945312 63.59375 85.65625 C 63.882812 85.363281 64.199219 85.105469 64.539062 84.878906 C 64.878906 84.648438 65.234375 84.457031 65.613281 84.296875 C 65.992188 84.140625 66.378906 84.019531 66.78125 83.9375 C 67.179688 83.855469 67.585938 83.8125 67.996094 83.808594 C 68.40625 83.804688 68.8125 83.839844 69.214844 83.917969 C 69.613281 83.992188 70.007812 84.105469 70.386719 84.257812 C 70.765625 84.410156 71.128906 84.597656 71.472656 84.816406 C 71.816406 85.039062 72.136719 85.292969 72.429688 85.578125 L 86.882812 100.03125 L 120.246094 66.667969 C 120.539062 66.382812 120.859375 66.128906 121.203125 65.910156 C 121.546875 65.6875 121.90625 65.5 122.289062 65.347656 C 122.667969 65.195312 123.058594 65.082031 123.460938 65.007812 C 123.863281 64.933594 124.269531 64.894531 124.679688 64.898438 C 125.085938 64.902344 125.492188 64.945312 125.894531 65.027344 C 126.292969 65.109375 126.683594 65.230469 127.0625 65.390625 C 127.4375 65.546875 127.796875 65.742188 128.136719 65.96875 C 128.476562 66.195312 128.792969 66.457031 129.082031 66.746094 C 129.371094 67.035156 129.628906 67.347656 129.855469 67.6875 C 130.085938 68.027344 130.277344 68.386719 130.4375 68.765625 C 130.59375 69.140625 130.714844 69.53125 130.796875 69.933594 C 130.878906 70.332031 130.921875 70.738281 130.925781 71.148438 C 130.929688 71.554688 130.894531 71.960938 130.820312 72.363281 C 130.742188 72.765625 130.628906 73.15625 130.476562 73.539062 C 130.324219 73.917969 130.140625 74.28125 129.917969 74.625 C 129.695312 74.96875 129.441406 75.285156 129.15625 75.582031 L 91.339844 113.398438 C 90.75 113.992188 90.066406 114.449219 89.292969 114.769531 C 88.523438 115.085938 87.71875 115.246094 86.882812 115.246094 Z M 86.882812 115.246094 " fill-opacity="1" fill-rule="nonzero"/></svg>