<svg xmlns="http://www.w3.org/2000/svg" xmlns:xlink="http://www.w3.org/1999/xlink" width="250" zoomAndPan="magnify" viewBox="0 0 187.5 187.499992" height="250" preserveAspectRatio="xMidYMid meet" version="1.0"><defs><clipPath id="9bfb6bac74"><path d="M 12.15625 1 L 175 1 L 175 186 L 12.15625 186 Z M 12.15625 1 " clip-rule="nonzero"/></clipPath></defs><g clip-path="url(#9bfb6bac74)"><path fill="#215520" d="M 93.789062 16.757812 C 94.261719 16.757812 94.675781 16.976562 95.207031 17.371094 C 104.269531 24.246094 114.328125 29.667969 125.082031 33.480469 C 135.121094 37.042969 146.152344 39.335938 157.859375 40.300781 L 157.886719 40.300781 C 158.664062 40.375 159.265625 41.027344 159.277344 41.828125 C 159.53125 59.394531 157.066406 77.097656 151.941406 94.472656 C 142.789062 125.484375 124.78125 150.101562 98.40625 167.628906 C 94.574219 170.175781 91.996094 170.328125 88.191406 168.222656 C 53.621094 149.042969 34.136719 118.636719 28.613281 75.257812 C 27.292969 64.898438 26.859375 54.273438 27.292969 42.78125 C 27.339844 41.460938 28.332031 40.363281 29.644531 40.195312 C 42.257812 38.476562 55.640625 36.34375 68.378906 30.753906 C 76.300781 27.277344 83.902344 23.027344 90.957031 18.144531 C 92.324219 17.191406 93.109375 16.757812 93.789062 16.757812 Z M 174.074219 40.902344 C 174 37.9375 173.789062 34.804688 172.402344 32.046875 C 170.777344 28.824219 167.992188 26.636719 163.867188 25.339844 C 160.542969 24.300781 156.851562 24.011719 153.601562 23.746094 L 153.542969 23.746094 C 137.8125 22.480469 122.488281 17.011719 109.210938 7.929688 C 108.792969 7.644531 108.378906 7.363281 107.964844 7.070312 C 103.902344 4.253906 99.699219 1.335938 94.582031 1.089844 C 88.832031 0.808594 83.769531 4.09375 79.304688 7.003906 C 78.925781 7.238281 78.558594 7.476562 78.199219 7.71875 C 67.867188 14.359375 56.601562 19.15625 44.703125 21.96875 C 39.472656 23.207031 33.863281 24.039062 27.046875 24.59375 C 20.597656 25.113281 16.066406 28.042969 13.949219 33.054688 C 12.464844 36.550781 12.269531 40.300781 12.183594 44.160156 C 12.117188 47.105469 12.109375 50.0625 12.144531 52.933594 C 12.550781 86.136719 19.511719 114.160156 32.84375 136.25 C 38.113281 144.984375 44.675781 153.226562 52.34375 160.753906 C 59.519531 167.796875 67.679688 174.238281 76.613281 179.902344 C 81.570312 183.046875 86.953125 185.929688 92.769531 185.929688 C 93.109375 185.929688 93.449219 185.917969 93.789062 185.898438 C 98.898438 185.597656 103.46875 183.046875 107.640625 180.328125 C 118.4375 173.292969 128.332031 164.464844 137.058594 154.066406 C 145.574219 143.90625 152.789062 132.5 158.472656 120.15625 C 169.476562 96.304688 174.867188 68.902344 174.074219 40.902344 " fill-opacity="1" fill-rule="nonzero"/></g><path fill="#215520" d="M 128.011719 77.550781 C 127.871094 78.4375 127.207031 79.128906 126.574219 79.761719 C 113.46875 92.867188 100.390625 105.992188 87.292969 119.101562 C 86.179688 120.214844 84.773438 121.421875 83.242188 121.074219 C 82.390625 120.875 81.730469 120.234375 81.117188 119.621094 C 74.054688 112.546875 66.992188 105.484375 59.925781 98.410156 C 59.105469 97.589844 58.226562 96.636719 58.226562 95.472656 C 58.238281 94.339844 59.085938 93.40625 59.890625 92.605469 C 62.023438 90.441406 64.15625 88.289062 66.292969 86.125 C 67.140625 85.265625 68.125 84.351562 69.332031 84.304688 C 70.671875 84.238281 71.789062 85.257812 72.730469 86.210938 C 76.472656 89.960938 80.210938 93.707031 83.949219 97.449219 C 93.855469 87.523438 103.761719 77.589844 113.667969 67.664062 C 114.515625 66.816406 115.480469 65.917969 116.679688 65.871094 C 118 65.824219 119.085938 66.832031 120.023438 67.769531 C 122.089844 69.855469 124.167969 71.953125 126.246094 74.046875 C 127.199219 75.019531 128.238281 76.210938 128.011719 77.550781 Z M 147.3125 52.648438 C 147.292969 51.160156 146.160156 49.902344 144.667969 49.78125 C 144.667969 49.769531 144.660156 49.769531 144.648438 49.769531 C 126.898438 48.304688 110.382812 42.980469 95.746094 31.894531 C 93.667969 30.328125 92.136719 31.253906 90.378906 32.460938 C 84.789062 36.332031 78.917969 39.609375 72.722656 42.328125 C 62.855469 46.652344 52.457031 48.34375 41.644531 49.796875 C 40.230469 49.988281 39.160156 51.160156 39.105469 52.585938 C 38.71875 61.894531 39.019531 70.6875 40.132812 79.441406 C 44.414062 113.039062 59.652344 138.65625 88.320312 154.570312 C 91.917969 156.5625 94.675781 156.371094 98.199219 154.03125 C 119.417969 139.933594 133.941406 120.328125 141.421875 94.972656 C 145.480469 81.214844 147.53125 67.109375 147.3125 52.648438 " fill-opacity="1" fill-rule="nonzero"/></svg>