<svg xmlns="http://www.w3.org/2000/svg" xmlns:xlink="http://www.w3.org/1999/xlink" width="250" zoomAndPan="magnify" viewBox="0 0 187.5 187.499992" height="250" preserveAspectRatio="xMidYMid meet" version="1.0"><defs><clipPath id="b4ae292063"><path d="M 84 5.492188 L 186 5.492188 L 186 124 L 84 124 Z M 84 5.492188 " clip-rule="nonzero"/></clipPath><clipPath id="aaa202fecc"><path d="M 98 142 L 138 142 L 138 181.273438 L 98 181.273438 Z M 98 142 " clip-rule="nonzero"/></clipPath><clipPath id="b74f59b040"><path d="M 0 142 L 39 142 L 39 181.273438 L 0 181.273438 Z M 0 142 " clip-rule="nonzero"/></clipPath><clipPath id="a936e1cfa8"><path d="M 51 5.492188 L 90 5.492188 L 90 41 L 51 41 Z M 51 5.492188 " clip-rule="nonzero"/></clipPath><clipPath id="e41789976d"><path d="M 1.855469 28 L 26 28 L 26 50.375 L 1.855469 50.375 Z M 1.855469 28 " clip-rule="nonzero"/></clipPath><clipPath id="8b3cee899a"><path d="M 115 27 L 139.488281 27 L 139.488281 50 L 115 50 Z M 115 27 " clip-rule="nonzero"/></clipPath></defs><path fill="#215520" d="M 91.78125 112 L 91.78125 110.679688 C 91.78125 107.183594 88.9375 104.339844 85.441406 104.339844 L 55.992188 104.339844 C 52.496094 104.339844 49.652344 107.183594 49.652344 110.679688 L 49.652344 123.648438 L 80.085938 123.648438 Z M 91.78125 112 " fill-opacity="1" fill-rule="nonzero"/><path fill="#215520" d="M 119.59375 84.289062 L 131.347656 72.578125 L 129.476562 70.710938 C 127.746094 68.980469 124.929688 68.980469 123.199219 70.710938 L 117.746094 76.164062 C 116.015625 77.894531 116.015625 80.710938 117.746094 82.441406 Z M 119.59375 84.289062 " fill-opacity="1" fill-rule="nonzero"/><g clip-path="url(#b4ae292063)"><path fill="#215520" d="M 176.996094 23.632812 C 178.445312 26.832031 177.75 30.652344 175.261719 33.132812 L 84.40625 123.648438 L 93.367188 123.648438 C 98.5625 116.578125 105.046875 110.625 112.90625 105.761719 L 182.042969 36.878906 C 185.90625 33.027344 187.007812 27.097656 184.785156 22.117188 L 178.464844 7.972656 C 178.03125 7.007812 177.25 6.273438 176.257812 5.902344 C 175.265625 5.535156 174.195312 5.582031 173.238281 6.03125 C 171.316406 6.933594 170.464844 9.242188 171.34375 11.179688 Z M 176.996094 23.632812 " fill-opacity="1" fill-rule="nonzero"/></g><path fill="#215520" d="M 157.335938 94.1875 C 128.605469 98.359375 108.597656 108.421875 96.21875 124.921875 C 99.339844 127.578125 102.007812 130.511719 104.160156 133.664062 C 104.367188 133.96875 104.566406 134.273438 104.761719 134.582031 C 117.164062 126.695312 129.167969 121.160156 141.402344 117.695312 C 154.710938 113.925781 168.007812 112.664062 181.992188 113.839844 C 181.554688 108.210938 178.929688 102.957031 174.625 99.234375 C 169.871094 95.121094 163.566406 93.28125 157.335938 94.1875 Z M 157.335938 94.1875 " fill-opacity="1" fill-rule="nonzero"/><path fill="#215520" d="M 147.730469 56.253906 L 159.484375 44.546875 L 157.5625 42.625 C 155.832031 40.890625 153.015625 40.890625 151.285156 42.625 L 145.832031 48.078125 C 144.101562 49.808594 144.101562 52.625 145.832031 54.355469 Z M 147.730469 56.253906 " fill-opacity="1" fill-rule="nonzero"/><path fill="#215520" d="M 46.605469 115.792969 L 44.609375 115.792969 C 41.632812 115.792969 39.207031 118.214844 39.207031 121.191406 L 39.207031 129.035156 C 41.597656 127.027344 44.132812 125.363281 46.605469 124.191406 Z M 46.605469 115.792969 " fill-opacity="1" fill-rule="nonzero"/><path fill="#215520" d="M 123.699219 140.117188 C 132.996094 142.457031 140.007812 150.585938 140.671875 160.433594 L 171.34375 160.433594 C 177.253906 160.433594 182.0625 155.625 182.0625 149.714844 L 182.0625 126.238281 C 161.632812 124.421875 142.484375 128.96875 123.699219 140.117188 Z M 123.699219 140.117188 " fill-opacity="1" fill-rule="nonzero"/><g clip-path="url(#aaa202fecc)"><path fill="#215520" d="M 118.203125 142.480469 C 107.464844 142.480469 98.726562 151.21875 98.726562 161.957031 C 98.726562 172.699219 107.464844 181.433594 118.203125 181.433594 C 128.941406 181.433594 137.679688 172.699219 137.679688 161.957031 C 137.679688 151.21875 128.941406 142.480469 118.203125 142.480469 Z M 118.203125 173.664062 C 111.738281 173.664062 106.496094 168.425781 106.496094 161.957031 C 106.496094 155.492188 111.738281 150.25 118.203125 150.25 C 124.667969 150.25 129.910156 155.492188 129.910156 161.957031 C 129.910156 168.425781 124.667969 173.664062 118.203125 173.664062 Z M 118.203125 173.664062 " fill-opacity="1" fill-rule="nonzero"/></g><path fill="#215520" d="M 106.316406 137.207031 C 107.097656 138.65625 107.785156 140.152344 108.386719 141.691406 C 111.355469 140.246094 114.6875 139.433594 118.203125 139.433594 C 118.453125 139.433594 118.703125 139.445312 118.949219 139.453125 C 138.964844 126.777344 160.1875 121.308594 182.0625 123.179688 L 182.0625 116.90625 C 155.769531 114.621094 131.625 121.09375 106.316406 137.207031 Z M 106.316406 137.207031 " fill-opacity="1" fill-rule="nonzero"/><path fill="#215520" d="M 105.714844 143.222656 C 104.671875 140.453125 103.304688 137.820312 101.640625 135.382812 C 99.496094 132.238281 96.792969 129.316406 93.597656 126.695312 L 48.445312 126.695312 C 45.199219 128.132812 41.773438 130.566406 38.761719 133.578125 C 35.667969 136.671875 33.300781 140.058594 31.984375 143.234375 C 38.019531 147.28125 42 154.164062 42 161.957031 C 42 165.84375 41.011719 169.5 39.273438 172.695312 C 49.097656 175.125 59.035156 176.355469 68.839844 176.355469 C 78.644531 176.355469 88.582031 175.125 98.40625 172.695312 C 96.667969 169.5 95.679688 165.84375 95.679688 161.957031 C 95.679688 154.15625 99.667969 147.269531 105.714844 143.222656 Z M 105.714844 143.222656 " fill-opacity="1" fill-rule="nonzero"/><g clip-path="url(#b74f59b040)"><path fill="#215520" d="M 19.476562 142.480469 C 8.738281 142.480469 0 151.21875 0 161.957031 C 0 172.699219 8.738281 181.433594 19.476562 181.433594 C 30.214844 181.433594 38.953125 172.699219 38.953125 161.957031 C 38.953125 151.21875 30.214844 142.480469 19.476562 142.480469 Z M 19.476562 173.664062 C 13.011719 173.664062 7.769531 168.425781 7.769531 161.957031 C 7.769531 155.492188 13.011719 150.25 19.476562 150.25 C 25.941406 150.25 31.183594 155.492188 31.183594 161.957031 C 31.183594 168.425781 25.941406 173.664062 19.476562 173.664062 Z M 19.476562 173.664062 " fill-opacity="1" fill-rule="nonzero"/></g><g clip-path="url(#a936e1cfa8)"><path fill="#215520" d="M 76.25 17.21875 L 89.054688 19.25 L 79.652344 28.167969 L 81.675781 40.972656 L 70.285156 34.792969 L 58.734375 40.679688 L 61.097656 27.933594 L 51.933594 18.765625 L 64.78125 17.070312 L 70.667969 5.523438 Z M 76.25 17.21875 " fill-opacity="1" fill-rule="nonzero"/><path fill="#ffffff" d="M 81.695312 41 L 81.667969 40.988281 L 70.285156 34.8125 L 58.722656 40.703125 L 61.078125 27.9375 L 51.90625 18.753906 L 51.933594 18.746094 L 64.773438 17.050781 L 70.667969 5.492188 L 70.679688 5.519531 L 76.261719 17.210938 L 89.078125 19.242188 L 89.058594 19.261719 L 79.667969 28.183594 Z M 70.285156 34.78125 L 81.664062 40.949219 L 79.644531 28.167969 L 79.652344 28.164062 L 89.019531 19.257812 L 76.242188 17.230469 L 70.667969 5.550781 L 64.789062 17.082031 L 64.78125 17.082031 L 51.957031 18.773438 L 61.109375 27.925781 L 61.109375 27.933594 L 58.753906 40.652344 Z M 70.285156 34.78125 " fill-opacity="1" fill-rule="nonzero"/></g><path fill="#215520" d="M 44.246094 26.691406 L 54.441406 28.304688 L 46.953125 35.417969 L 48.566406 45.617188 L 39.492188 40.699219 L 30.289062 45.378906 L 32.167969 35.226562 L 24.871094 27.925781 L 35.109375 26.574219 L 39.796875 17.371094 Z M 44.246094 26.691406 " fill-opacity="1" fill-rule="nonzero"/><path fill="#ffffff" d="M 48.585938 45.644531 L 48.5625 45.628906 L 39.492188 40.710938 L 30.277344 45.40625 L 32.15625 35.230469 L 24.835938 27.914062 L 24.863281 27.90625 L 35.09375 26.554688 L 39.796875 17.339844 L 39.808594 17.367188 L 44.253906 26.675781 L 54.472656 28.296875 L 54.453125 28.316406 L 46.96875 35.425781 Z M 39.492188 40.679688 L 48.554688 45.59375 L 46.949219 35.410156 L 46.953125 35.40625 L 54.421875 28.3125 L 44.238281 26.695312 L 39.796875 17.398438 L 35.113281 26.582031 L 35.109375 26.582031 L 24.894531 27.933594 L 32.179688 35.21875 L 32.179688 35.226562 L 30.308594 45.355469 Z M 39.492188 40.679688 " fill-opacity="1" fill-rule="nonzero"/><path fill="#215520" d="M 106.648438 26.691406 L 116.847656 28.304688 L 109.363281 35.417969 L 110.96875 45.617188 L 101.894531 40.699219 L 92.691406 45.378906 L 94.570312 35.226562 L 87.273438 27.925781 L 97.511719 26.574219 L 102.199219 17.371094 Z M 106.648438 26.691406 " fill-opacity="1" fill-rule="nonzero"/><path fill="#ffffff" d="M 110.988281 45.644531 L 110.964844 45.628906 L 101.894531 40.710938 L 92.679688 45.40625 L 92.6875 45.378906 L 94.566406 35.230469 L 87.253906 27.914062 L 97.511719 26.554688 L 102.210938 17.339844 L 102.222656 17.367188 L 106.667969 26.675781 L 116.886719 28.296875 L 116.867188 28.316406 L 109.386719 35.425781 Z M 101.894531 40.679688 L 110.957031 45.59375 L 109.351562 35.410156 L 109.355469 35.40625 L 116.824219 28.3125 L 106.640625 26.703125 L 102.199219 17.402344 L 97.515625 26.585938 L 97.511719 26.585938 L 87.296875 27.9375 L 94.582031 35.226562 L 94.582031 35.230469 L 92.710938 45.359375 Z M 101.894531 40.679688 " fill-opacity="1" fill-rule="nonzero"/><g clip-path="url(#e41789976d)"><path fill="#215520" d="M 17.320312 35.636719 L 25.433594 36.929688 L 19.480469 42.582031 L 20.757812 50.699219 L 13.539062 46.78125 L 6.21875 50.511719 L 7.710938 42.433594 L 1.902344 36.621094 L 10.050781 35.546875 L 13.78125 28.226562 Z M 17.320312 35.636719 " fill-opacity="1" fill-rule="nonzero"/><path fill="#ffffff" d="M 20.777344 50.722656 L 20.753906 50.710938 L 13.539062 46.792969 L 6.199219 50.53125 L 7.699219 42.433594 L 1.878906 36.613281 L 10.039062 35.535156 L 13.78125 28.195312 L 17.332031 35.628906 L 25.46875 36.921875 L 25.449219 36.941406 L 19.5 42.59375 Z M 13.542969 46.769531 L 20.746094 50.679688 L 19.46875 42.582031 L 19.472656 42.574219 L 25.410156 36.933594 L 17.3125 35.648438 L 13.78125 28.253906 L 10.058594 35.554688 L 10.050781 35.554688 L 1.933594 36.632812 L 7.730469 42.429688 L 6.238281 50.484375 Z M 13.542969 46.769531 " fill-opacity="1" fill-rule="nonzero"/></g><g clip-path="url(#8b3cee899a)"><path fill="#215520" d="M 131.269531 34.882812 L 139.382812 36.171875 L 133.429688 41.828125 L 134.714844 49.945312 L 127.492188 46.03125 L 120.167969 49.757812 L 121.664062 41.675781 L 115.851562 35.867188 L 124 34.792969 L 127.730469 27.476562 Z M 131.269531 34.882812 " fill-opacity="1" fill-rule="nonzero"/><path fill="#ffffff" d="M 134.726562 49.972656 L 134.703125 49.957031 L 127.484375 46.042969 L 120.148438 49.777344 L 120.15625 49.753906 L 121.648438 41.683594 L 115.828125 35.855469 L 123.988281 34.773438 L 127.730469 27.4375 L 131.28125 34.871094 L 139.417969 36.164062 L 139.398438 36.183594 L 133.449219 41.835938 Z M 127.492188 46.015625 L 134.695312 49.925781 L 133.414062 41.828125 L 133.421875 41.824219 L 139.359375 36.183594 L 131.261719 34.898438 L 127.730469 27.5 L 124.007812 34.800781 L 124 34.800781 L 115.882812 35.875 L 121.679688 41.667969 L 121.679688 41.675781 L 120.1875 49.726562 Z M 127.492188 46.015625 " fill-opacity="1" fill-rule="nonzero"/></g></svg>