<svg xmlns="http://www.w3.org/2000/svg" xmlns:xlink="http://www.w3.org/1999/xlink" width="250" zoomAndPan="magnify" viewBox="0 0 187.5 187.499992" height="250" preserveAspectRatio="xMidYMid meet" version="1.0"><path fill="#215520" d="M 91.5625 166.144531 C 79.082031 175.460938 62.933594 177.972656 48.105469 173.472656 C 33.996094 169.1875 22.429688 157.785156 17.425781 143.996094 C 12.097656 129.300781 14.496094 113.089844 23.125 100.203125 C 34.835938 82.699219 57.484375 75.714844 77.300781 81.734375 C 97.214844 87.789062 110.632812 107.019531 110.8125 127.566406 C 110.679688 142.652344 103.722656 157.070312 91.5625 166.144531 Z M 58.84375 69.140625 C 25.203125 71.261719 0.199219 102.535156 4.707031 135.730469 C 8.785156 165.8125 36.386719 187.972656 66.558594 186.066406 C 97.121094 184.140625 121.03125 158.027344 121.304688 127.640625 C 121.003906 94.164062 92.421875 67.023438 58.84375 69.140625 " fill-opacity="1" fill-rule="nonzero"/><path fill="#215520" d="M 65.183594 82.675781 L 60.296875 82.675781 L 60.296875 95.023438 L 65.183594 95.023438 L 65.183594 82.675781 " fill-opacity="1" fill-rule="nonzero"/><path fill="#215520" d="M 60.296875 172.851562 L 65.183594 172.851562 L 65.183594 160.503906 L 60.296875 160.503906 L 60.296875 172.851562 " fill-opacity="1" fill-rule="nonzero"/><path fill="#215520" d="M 95.246094 130.210938 L 107.59375 130.210938 L 107.59375 125.316406 L 95.246094 125.316406 L 95.246094 130.210938 " fill-opacity="1" fill-rule="nonzero"/><path fill="#215520" d="M 29.769531 125.316406 L 17.417969 125.316406 L 17.417969 130.210938 L 29.769531 130.210938 L 29.769531 125.316406 " fill-opacity="1" fill-rule="nonzero"/><path fill="#215520" d="M 96.117188 97.84375 L 92.660156 94.386719 L 83.929688 103.121094 L 87.386719 106.582031 L 96.117188 97.84375 " fill-opacity="1" fill-rule="nonzero"/><path fill="#215520" d="M 28.902344 158.148438 L 32.355469 161.613281 L 41.089844 152.878906 L 37.628906 149.417969 L 28.902344 158.148438 " fill-opacity="1" fill-rule="nonzero"/><path fill="#215520" d="M 83.699219 152.644531 L 92.425781 161.375 L 95.886719 157.917969 L 87.15625 149.191406 L 83.699219 152.644531 " fill-opacity="1" fill-rule="nonzero"/><path fill="#215520" d="M 40.859375 102.890625 L 32.125 94.152344 L 28.664062 97.621094 L 37.394531 106.34375 L 40.859375 102.890625 " fill-opacity="1" fill-rule="nonzero"/><path fill="#215520" d="M 64.121094 124.660156 L 65.382812 103.1875 L 62.320312 98.960938 L 58.832031 103.1875 L 60.984375 124.863281 C 60.078125 125.445312 59.472656 126.449219 59.472656 127.605469 C 59.472656 128.277344 59.6875 128.898438 60.03125 129.417969 L 47.09375 158.375 L 48.492188 163.398438 L 53.242188 160.664062 L 62.792969 130.863281 C 64.570312 130.835938 66.007812 129.386719 66.007812 127.605469 C 66.007812 126.296875 65.230469 125.175781 64.121094 124.660156 " fill-opacity="1" fill-rule="nonzero"/><path fill="#215520" d="M 177.277344 90.230469 L 154.8125 90.230469 L 154.8125 73.484375 L 177.277344 73.484375 Z M 177.277344 112.695312 L 154.8125 112.695312 L 154.8125 95.949219 L 177.277344 95.949219 Z M 177.277344 135.160156 L 154.8125 135.160156 L 154.8125 118.414062 L 177.277344 118.414062 Z M 177.277344 157.625 L 154.8125 157.625 L 154.8125 140.878906 L 177.277344 140.878906 Z M 149.707031 90.230469 L 127.242188 90.230469 L 127.242188 73.484375 L 149.707031 73.484375 Z M 149.707031 112.695312 L 127.242188 112.695312 L 127.242188 95.949219 L 149.707031 95.949219 Z M 149.707031 135.160156 L 127.242188 135.160156 L 127.242188 118.414062 L 149.707031 118.414062 Z M 149.707031 157.625 L 127.242188 157.625 L 127.242188 140.878906 L 149.707031 140.878906 Z M 170.53125 19.179688 L 161.117188 19.179688 L 161.117188 8.464844 C 161.117188 3.800781 157.335938 0.0195312 152.671875 0.0195312 C 148.007812 0.0195312 144.226562 3.800781 144.226562 8.464844 L 144.226562 19.179688 L 77.578125 19.179688 L 77.578125 8.464844 C 77.578125 3.800781 73.800781 0.0195312 69.136719 0.0195312 C 64.476562 0.0195312 60.691406 3.800781 60.691406 8.464844 L 60.691406 19.179688 L 51.277344 19.179688 C 42.296875 19.179688 35.015625 26.460938 35.015625 35.441406 L 35.015625 71.621094 C 43.449219 67.378906 52.96875 64.988281 63.050781 64.988281 C 74.527344 64.988281 85.277344 68.082031 94.515625 73.484375 L 94.5625 73.484375 L 94.5625 73.511719 C 96.324219 74.542969 98.027344 75.65625 99.671875 76.84375 L 99.671875 73.484375 L 122.136719 73.484375 L 122.136719 90.230469 L 113.222656 90.230469 C 114.582031 92.0625 115.84375 93.972656 117.003906 95.949219 L 122.136719 95.949219 L 122.136719 107.117188 C 124.332031 113.496094 125.527344 120.339844 125.527344 127.464844 C 125.527344 134.589844 124.332031 141.433594 122.136719 147.8125 L 122.136719 157.625 L 117.773438 157.625 C 115.078125 162.503906 111.75 166.984375 107.898438 170.953125 L 170.53125 170.953125 C 179.511719 170.953125 186.792969 163.671875 186.792969 154.691406 L 186.792969 35.441406 C 186.792969 26.460938 179.511719 19.179688 170.53125 19.179688 " fill-opacity="1" fill-rule="nonzero"/></svg>