<svg xmlns="http://www.w3.org/2000/svg" xmlns:xlink="http://www.w3.org/1999/xlink" width="250" zoomAndPan="magnify" viewBox="0 0 187.5 187.499992" height="250" preserveAspectRatio="xMidYMid meet" version="1.0"><defs><clipPath id="60fea97622"><path d="M 2.039062 0 L 185 0 L 185 187 L 2.039062 187 Z M 2.039062 0 " clip-rule="nonzero"/></clipPath></defs><path fill="#215520" d="M 93.476562 44.089844 C 66.242188 44.089844 44.082031 66.246094 44.082031 93.480469 C 44.082031 120.71875 66.242188 142.875 93.476562 142.875 C 120.710938 142.875 142.871094 120.71875 142.871094 93.480469 C 142.871094 66.246094 120.714844 44.089844 93.476562 44.089844 Z M 119.3125 80.898438 L 91.871094 108.339844 C 89.726562 110.484375 86.25 110.480469 84.109375 108.339844 L 67.644531 91.875 C 65.5 89.730469 65.5 86.257812 67.644531 84.113281 C 69.785156 81.96875 73.261719 81.96875 75.40625 84.113281 L 87.988281 96.699219 L 111.550781 73.136719 C 113.691406 70.992188 117.167969 70.992188 119.3125 73.136719 C 121.453125 75.28125 121.453125 78.753906 119.3125 80.898438 Z M 119.3125 80.898438 " fill-opacity="1" fill-rule="nonzero"/><g clip-path="url(#60fea97622)"><path fill="#215520" d="M 179.917969 93.480469 L 184.433594 75.261719 C 184.851562 73.570312 184.445312 71.785156 183.335938 70.445312 L 171.375 55.972656 L 167.503906 37.597656 C 167.144531 35.898438 166.003906 34.46875 164.425781 33.746094 L 147.371094 25.898438 L 135.941406 11.007812 C 134.898438 9.652344 133.292969 8.863281 131.585938 8.863281 C 130.660156 8.863281 136.46875 8.777344 112.71875 9.195312 L 95.941406 0.765625 C 94.390625 -0.0117188 92.5625 -0.0117188 91.011719 0.765625 L 74.238281 9.191406 L 55.464844 8.863281 C 53.625 8.84375 52.027344 9.6875 51.015625 11.007812 L 39.582031 25.898438 L 22.527344 33.742188 C 20.949219 34.46875 19.808594 35.898438 19.453125 37.597656 L 15.582031 55.972656 L 3.617188 70.445312 C 2.511719 71.785156 2.105469 73.570312 2.523438 75.261719 L 7.035156 93.480469 L 2.523438 111.703125 C 2.101562 113.394531 2.511719 115.179688 3.617188 116.519531 L 15.582031 130.992188 L 19.449219 149.367188 C 19.808594 151.066406 20.949219 152.496094 22.527344 153.21875 L 39.582031 161.066406 L 51.015625 175.957031 C 52.054688 177.3125 53.664062 178.101562 55.367188 178.101562 C 56.292969 178.101562 50.484375 178.1875 74.234375 177.769531 L 91.011719 186.199219 C 92.574219 186.980469 94.398438 186.972656 95.941406 186.199219 L 112.71875 177.769531 L 131.488281 178.101562 C 133.328125 178.121094 134.925781 177.277344 135.9375 175.957031 L 147.371094 161.066406 L 164.425781 153.222656 C 166.003906 152.496094 167.144531 151.066406 167.503906 149.367188 L 171.375 130.992188 L 183.335938 116.519531 C 184.441406 115.179688 184.851562 113.394531 184.429688 111.703125 Z M 93.476562 153.851562 C 60.1875 153.851562 33.105469 126.769531 33.105469 93.480469 C 33.105469 60.195312 60.1875 33.113281 93.476562 33.113281 C 126.765625 33.113281 153.847656 60.195312 153.847656 93.480469 C 153.847656 126.769531 126.765625 153.851562 93.476562 153.851562 Z M 93.476562 153.851562 " fill-opacity="1" fill-rule="nonzero"/></g></svg>