<svg xmlns="http://www.w3.org/2000/svg" xmlns:xlink="http://www.w3.org/1999/xlink" width="250" zoomAndPan="magnify" viewBox="0 0 187.5 187.499992" height="250" preserveAspectRatio="xMidYMid meet" version="1.0"><defs><clipPath id="f7e9c7536e"><path d="M 150 0.703125 L 179 0.703125 L 179 29 L 150 29 Z M 150 0.703125 " clip-rule="nonzero"/></clipPath><clipPath id="8287ad12f9"><path d="M 1 0.703125 L 30 0.703125 L 30 29 L 1 29 Z M 1 0.703125 " clip-rule="nonzero"/></clipPath><clipPath id="d1a6bce4c2"><path d="M 115 114 L 187 114 L 187 186.207031 L 115 186.207031 Z M 115 114 " clip-rule="nonzero"/></clipPath></defs><path fill="#215520" d="M 63.933594 147.632812 L 51.980469 135.683594 L 46.183594 141.480469 L 28.078125 151.148438 L 37.75 133.042969 L 43.546875 127.246094 L 31.59375 115.292969 C 31.5 115.199219 31.394531 115.128906 31.273438 115.074219 C 31.152344 115.023438 31.023438 115 30.890625 115 C 30.757812 115 30.632812 115.023438 30.511719 115.074219 C 30.386719 115.128906 30.28125 115.199219 30.1875 115.292969 L 14.160156 131.324219 C 14.058594 131.414062 13.976562 131.515625 13.90625 131.632812 C 0.015625 151.261719 11.207031 168.019531 11.207031 168.019531 C 11.207031 168.019531 27.96875 179.214844 47.597656 165.320312 C 47.710938 165.253906 47.816406 165.167969 47.90625 165.070312 L 63.933594 149.039062 C 64.027344 148.945312 64.101562 148.839844 64.152344 148.71875 C 64.203125 148.597656 64.230469 148.46875 64.230469 148.335938 C 64.230469 148.203125 64.203125 148.078125 64.152344 147.957031 C 64.101562 147.832031 64.027344 147.726562 63.933594 147.632812 Z M 63.933594 147.632812 " fill-opacity="1" fill-rule="nonzero"/><path fill="#215520" d="M 67.445312 117.402344 L 44.953125 139.898438 L 30.890625 148.335938 L 39.328125 134.277344 L 61.824219 111.777344 Z M 67.445312 117.402344 " fill-opacity="1" fill-rule="nonzero"/><path fill="#215520" d="M 63.234375 110.375 L 141.972656 31.636719 L 147.597656 37.257812 L 68.859375 115.996094 Z M 63.234375 110.375 " fill-opacity="1" fill-rule="nonzero"/><path fill="#215520" d="M 153.21875 26.011719 C 152.265625 25.050781 151.460938 23.984375 150.796875 22.808594 L 143.375 30.226562 L 149 35.851562 L 156.417969 28.433594 C 155.242188 27.769531 154.175781 26.960938 153.21875 26.011719 Z M 153.21875 26.011719 " fill-opacity="1" fill-rule="nonzero"/><g clip-path="url(#f7e9c7536e)"><path fill="#215520" d="M 158.84375 0.703125 L 154.625 4.917969 C 154.097656 5.445312 153.621094 6.011719 153.1875 6.617188 C 152.753906 7.21875 152.371094 7.855469 152.035156 8.519531 C 151.703125 9.183594 151.425781 9.871094 151.203125 10.582031 C 150.980469 11.292969 150.816406 12.015625 150.710938 12.75 C 150.601562 13.484375 150.554688 14.226562 150.566406 14.96875 C 150.578125 15.710938 150.648438 16.449219 150.777344 17.183594 C 150.90625 17.914062 151.09375 18.632812 151.339844 19.335938 C 151.582031 20.035156 151.878906 20.714844 152.234375 21.371094 C 153.53125 23.820312 155.40625 25.695312 157.859375 26.996094 C 158.511719 27.347656 159.191406 27.644531 159.894531 27.890625 C 160.59375 28.132812 161.3125 28.320312 162.046875 28.449219 C 162.777344 28.578125 163.515625 28.648438 164.257812 28.660156 C 165.003906 28.671875 165.742188 28.625 166.476562 28.519531 C 167.214844 28.410156 167.9375 28.246094 168.644531 28.023438 C 169.355469 27.800781 170.042969 27.523438 170.707031 27.191406 C 171.375 26.859375 172.007812 26.476562 172.613281 26.042969 C 173.214844 25.609375 173.78125 25.128906 174.308594 24.605469 L 178.527344 20.386719 Z M 171.496094 21.792969 C 171.03125 22.246094 170.53125 22.648438 169.988281 23.003906 C 169.445312 23.359375 168.875 23.660156 168.273438 23.902344 C 167.671875 24.144531 167.050781 24.328125 166.414062 24.453125 C 165.777344 24.574219 165.136719 24.632812 164.488281 24.628906 C 163.839844 24.625 163.199219 24.558594 162.5625 24.429688 C 161.925781 24.300781 161.308594 24.113281 160.710938 23.863281 C 160.113281 23.613281 159.542969 23.308594 159.003906 22.945312 C 158.46875 22.585938 157.96875 22.175781 157.511719 21.71875 C 157.050781 21.257812 156.640625 20.761719 156.28125 20.222656 C 155.917969 19.683594 155.613281 19.113281 155.363281 18.515625 C 155.113281 17.917969 154.925781 17.300781 154.796875 16.664062 C 154.667969 16.03125 154.601562 15.386719 154.597656 14.738281 C 154.59375 14.089844 154.652344 13.449219 154.777344 12.8125 C 154.898438 12.175781 155.082031 11.554688 155.324219 10.957031 C 155.566406 10.355469 155.867188 9.78125 156.222656 9.238281 C 156.578125 8.699219 156.980469 8.195312 157.4375 7.730469 L 158.84375 6.324219 L 172.902344 20.386719 Z M 171.496094 21.792969 " fill-opacity="1" fill-rule="nonzero"/></g><path fill="#215520" d="M 26.671875 26.011719 C 25.714844 26.960938 24.644531 27.765625 23.46875 28.429688 L 30.890625 35.851562 L 36.515625 30.226562 L 29.097656 22.808594 C 28.433594 23.984375 27.625 25.050781 26.671875 26.011719 Z M 26.671875 26.011719 " fill-opacity="1" fill-rule="nonzero"/><g clip-path="url(#8287ad12f9)"><path fill="#215520" d="M 1.363281 20.386719 L 5.582031 24.605469 C 6.109375 25.128906 6.675781 25.609375 7.277344 26.042969 C 7.882812 26.476562 8.515625 26.859375 9.183594 27.191406 C 9.847656 27.523438 10.535156 27.800781 11.246094 28.023438 C 11.953125 28.246094 12.675781 28.410156 13.414062 28.519531 C 14.148438 28.625 14.886719 28.671875 15.632812 28.660156 C 16.375 28.648438 17.113281 28.578125 17.84375 28.449219 C 18.578125 28.320312 19.292969 28.132812 19.996094 27.890625 C 20.699219 27.644531 21.378906 27.347656 22.03125 26.996094 C 24.484375 25.695312 26.359375 23.820312 27.65625 21.371094 C 28.011719 20.714844 28.308594 20.035156 28.550781 19.335938 C 28.796875 18.632812 28.984375 17.914062 29.113281 17.183594 C 29.242188 16.449219 29.3125 15.710938 29.324219 14.96875 C 29.335938 14.226562 29.289062 13.484375 29.179688 12.75 C 29.074219 12.015625 28.910156 11.292969 28.6875 10.582031 C 28.464844 9.871094 28.1875 9.183594 27.855469 8.519531 C 27.523438 7.855469 27.136719 7.21875 26.703125 6.617188 C 26.269531 6.011719 25.792969 5.445312 25.265625 4.917969 L 21.050781 0.703125 Z M 22.453125 7.730469 C 22.910156 8.195312 23.3125 8.699219 23.667969 9.238281 C 24.023438 9.78125 24.324219 10.355469 24.566406 10.957031 C 24.808594 11.554688 24.992188 12.175781 25.113281 12.8125 C 25.238281 13.449219 25.296875 14.089844 25.292969 14.738281 C 25.289062 15.386719 25.222656 16.03125 25.09375 16.664062 C 24.964844 17.300781 24.773438 17.917969 24.527344 18.515625 C 24.277344 19.113281 23.96875 19.683594 23.609375 20.222656 C 23.25 20.761719 22.839844 21.257812 22.378906 21.71875 C 21.921875 22.175781 21.421875 22.585938 20.882812 22.945312 C 20.347656 23.308594 19.777344 23.613281 19.179688 23.863281 C 18.582031 24.113281 17.964844 24.300781 17.328125 24.429688 C 16.691406 24.558594 16.050781 24.625 15.402344 24.628906 C 14.753906 24.632812 14.113281 24.574219 13.476562 24.453125 C 12.839844 24.328125 12.21875 24.144531 11.617188 23.902344 C 11.015625 23.660156 10.445312 23.359375 9.902344 23.003906 C 9.359375 22.648438 8.859375 22.246094 8.394531 21.792969 L 6.988281 20.386719 L 21.050781 6.324219 Z M 22.453125 7.730469 " fill-opacity="1" fill-rule="nonzero"/></g><path fill="#215520" d="M 30.886719 35.851562 L 36.511719 30.226562 L 116.65625 110.371094 L 111.03125 115.996094 Z M 30.886719 35.851562 " fill-opacity="1" fill-rule="nonzero"/><path fill="#215520" d="M 112.441406 117.402344 L 118.066406 111.777344 L 133.535156 127.246094 L 127.910156 132.871094 Z M 112.441406 117.402344 " fill-opacity="1" fill-rule="nonzero"/><g clip-path="url(#d1a6bce4c2)"><path fill="#215520" d="M 147.480469 116.109375 L 116.773438 146.816406 C 116.582031 147.011719 116.410156 147.21875 116.261719 147.445312 C 116.113281 147.671875 115.984375 147.910156 115.882812 148.160156 C 115.78125 148.414062 115.703125 148.671875 115.648438 148.9375 C 115.597656 149.203125 115.570312 149.472656 115.570312 149.742188 C 115.570312 150.015625 115.597656 150.28125 115.648438 150.546875 C 115.703125 150.816406 115.78125 151.074219 115.882812 151.324219 C 115.984375 151.574219 116.113281 151.8125 116.261719 152.039062 C 116.410156 152.265625 116.582031 152.472656 116.773438 152.667969 L 150.40625 186.300781 L 153.21875 183.488281 L 122.285156 152.554688 L 125.097656 149.742188 L 156.03125 180.675781 L 158.84375 177.863281 L 127.910156 146.929688 L 130.722656 144.117188 L 161.65625 175.050781 L 164.46875 172.238281 L 133.535156 141.304688 L 136.347656 138.496094 L 167.277344 169.425781 L 170.089844 166.617188 L 139.160156 135.683594 L 141.96875 132.871094 L 172.902344 163.804688 L 175.714844 160.992188 L 144.78125 130.058594 L 147.59375 127.246094 L 178.527344 158.179688 L 181.339844 155.367188 L 150.40625 124.433594 L 153.21875 121.621094 L 184.152344 152.554688 L 186.964844 149.742188 L 156.03125 118.8125 L 153.332031 116.109375 C 153.136719 115.921875 152.929688 115.75 152.703125 115.601562 C 152.476562 115.449219 152.238281 115.324219 151.988281 115.222656 C 151.734375 115.117188 151.476562 115.039062 151.210938 114.988281 C 150.945312 114.933594 150.675781 114.910156 150.40625 114.910156 C 150.132812 114.910156 149.867188 114.933594 149.601562 114.988281 C 149.335938 115.039062 149.074219 115.117188 148.824219 115.21875 C 148.574219 115.324219 148.335938 115.449219 148.109375 115.597656 C 147.882812 115.75 147.675781 115.917969 147.480469 116.109375 Z M 147.480469 116.109375 " fill-opacity="1" fill-rule="nonzero"/></g></svg>