<svg xmlns="http://www.w3.org/2000/svg" xmlns:xlink="http://www.w3.org/1999/xlink" width="250" zoomAndPan="magnify" viewBox="0 0 187.5 187.499992" height="250" preserveAspectRatio="xMidYMid meet" version="1.0"><path fill="#215520" d="M 185.21875 92.925781 C 183.390625 85.609375 175.980469 81.167969 168.675781 82.996094 C 164.007812 84.164062 160.535156 87.597656 159.09375 91.820312 L 130.464844 89.625 C 129.179688 81.789062 125.707031 74.726562 120.671875 69.054688 L 141.621094 53.515625 C 143.957031 55.078125 146.886719 55.710938 149.820312 54.96875 C 155.300781 53.59375 158.617188 48.019531 157.230469 42.539062 C 155.847656 37.066406 150.269531 33.742188 144.796875 35.132812 C 139.316406 36.507812 136 42.082031 137.382812 47.554688 C 137.425781 47.71875 137.507812 47.871094 137.554688 48.035156 L 115.652344 64.277344 C 112.800781 61.992188 109.640625 60.066406 106.230469 58.597656 L 116.464844 27.894531 C 116.773438 27.90625 117.066406 27.980469 117.386719 27.980469 C 124.929688 27.980469 131.039062 21.875 131.039062 14.332031 C 131.039062 6.789062 124.929688 0.683594 117.386719 0.683594 C 109.851562 0.683594 103.738281 6.796875 103.738281 14.332031 C 103.738281 19.128906 106.230469 23.335938 109.976562 25.769531 L 99.753906 56.476562 C 96.648438 55.71875 93.417969 55.28125 90.089844 55.28125 C 88.53125 55.28125 86.984375 55.390625 85.460938 55.5625 L 73.011719 25.328125 C 75.109375 23.457031 76.4375 20.769531 76.4375 17.746094 C 76.4375 12.09375 71.851562 7.507812 66.203125 7.507812 C 60.550781 7.507812 55.964844 12.09375 55.964844 17.746094 C 55.964844 23.394531 60.550781 27.980469 66.203125 27.980469 C 66.371094 27.980469 66.535156 27.941406 66.707031 27.925781 L 78.648438 56.933594 C 72.71875 58.652344 67.375 61.675781 62.890625 65.675781 L 54.707031 56.679688 C 56.046875 54.214844 56.375 51.226562 55.351562 48.382812 C 53.433594 43.070312 47.5625 40.320312 42.246094 42.246094 C 36.929688 44.164062 34.179688 50.039062 36.105469 55.355469 C 38.019531 60.667969 43.898438 63.410156 49.207031 61.492188 C 49.363281 61.429688 49.515625 61.335938 49.65625 61.28125 L 58.160156 70.625 C 53.976562 75.832031 51.070312 82.074219 49.828125 88.914062 L 28.40625 87.113281 C 28.351562 86.804688 28.351562 86.5 28.28125 86.191406 C 26.507812 78.859375 19.125 74.363281 11.808594 76.136719 C 4.476562 77.914062 -0.0273438 85.289062 1.742188 92.613281 C 3.527344 99.941406 10.898438 104.433594 18.230469 102.667969 C 22.898438 101.535156 26.386719 98.121094 27.878906 93.910156 L 49.152344 95.703125 C 49.167969 95.882812 49.140625 96.058594 49.140625 96.230469 C 49.140625 106.066406 52.621094 115.09375 58.398438 122.160156 L 26.917969 146.851562 C 26.679688 146.667969 26.46875 146.441406 26.199219 146.269531 C 19.921875 142.113281 11.445312 143.847656 7.296875 150.125 C 3.140625 156.414062 4.871094 164.890625 11.160156 169.039062 C 17.453125 173.195312 25.914062 171.460938 30.070312 165.175781 C 32.710938 161.175781 32.949219 156.289062 31.164062 152.195312 L 63.191406 127.066406 C 66.242188 129.734375 69.683594 131.957031 73.441406 133.632812 L 66.496094 151.328125 C 63.695312 151.238281 60.882812 152.207031 58.789062 154.390625 C 54.886719 158.460938 55.015625 164.949219 59.109375 168.855469 C 63.191406 172.769531 69.667969 172.628906 73.585938 168.546875 C 77.488281 164.464844 77.347656 157.980469 73.265625 154.078125 C 73.140625 153.957031 72.984375 153.929688 72.847656 153.820312 L 79.886719 135.855469 C 83.167969 136.6875 86.566406 137.179688 90.089844 137.179688 C 93.085938 137.179688 96.003906 136.839844 98.816406 136.222656 L 102.550781 165.613281 C 100.046875 166.882812 98.058594 169.128906 97.269531 172.042969 C 95.785156 177.496094 99.015625 183.117188 104.480469 184.59375 C 109.933594 186.074219 115.558594 182.839844 117.027344 177.378906 C 118.507812 171.925781 115.265625 166.300781 109.8125 164.828125 C 109.65625 164.78125 109.492188 164.78125 109.320312 164.746094 L 105.429688 134.171875 C 111.613281 131.664062 117.039062 127.714844 121.292969 122.703125 L 140.167969 143.628906 C 140 143.886719 139.792969 144.105469 139.636719 144.386719 C 135.917969 150.945312 138.238281 159.277344 144.796875 162.984375 C 151.355469 166.703125 159.6875 164.390625 163.394531 157.824219 C 167.113281 151.265625 164.808594 142.941406 158.234375 139.226562 C 154.066406 136.859375 149.171875 136.960938 145.210938 139.023438 L 125.339844 116.992188 C 128.894531 110.964844 130.976562 103.984375 131.03125 96.484375 L 158.625 98.613281 C 158.679688 98.917969 158.679688 99.21875 158.761719 99.527344 C 160.589844 106.835938 168 111.292969 175.304688 109.464844 C 182.613281 107.648438 187.0625 100.238281 185.21875 92.925781 Z M 73.027344 96.230469 C 67.375 96.230469 62.789062 91.644531 62.789062 85.992188 C 62.789062 80.34375 67.375 75.757812 73.027344 75.757812 C 78.675781 75.757812 83.261719 80.34375 83.261719 85.992188 C 83.261719 91.644531 78.675781 96.230469 73.027344 96.230469 Z M 96.914062 123.53125 C 89.386719 123.53125 83.261719 117.414062 83.261719 109.878906 C 83.261719 102.34375 89.386719 96.230469 96.914062 96.230469 C 104.460938 96.230469 110.5625 102.34375 110.5625 109.878906 C 110.5625 117.414062 104.453125 123.53125 96.914062 123.53125 Z M 103.738281 82.582031 C 99.964844 82.582031 96.914062 79.53125 96.914062 75.757812 C 96.914062 71.980469 99.964844 68.929688 103.738281 68.929688 C 107.511719 68.929688 110.5625 71.980469 110.5625 75.757812 C 110.5625 79.53125 107.511719 82.582031 103.738281 82.582031 Z M 103.738281 82.582031 " fill-opacity="1" fill-rule="nonzero"/></svg>