<svg xmlns="http://www.w3.org/2000/svg" xmlns:xlink="http://www.w3.org/1999/xlink" width="250" zoomAndPan="magnify" viewBox="0 0 187.5 187.499992" height="250" preserveAspectRatio="xMidYMid meet" version="1.0"><defs><clipPath id="e49ecfe07f"><path d="M 0 0.234375 L 186.765625 0.234375 L 186.765625 187 L 0 187 Z M 0 0.234375 " clip-rule="nonzero"/></clipPath></defs><g clip-path="url(#e49ecfe07f)"><path fill="#215520" d="M 75.332031 160.839844 C 73.617188 161.261719 71.878906 161.625 70.117188 161.933594 L 67.648438 162.371094 L 65.179688 161.933594 C 27.585938 155.386719 -0.210938 122.390625 -0.210938 84.195312 L -0.210938 29.332031 L 67.648438 0.234375 L 135.527344 29.332031 L 135.527344 77.523438 C 132.863281 77.148438 130.140625 76.953125 127.375 76.953125 C 124.566406 76.953125 121.796875 77.15625 119.09375 77.542969 L 119.09375 42.164062 C 119.09375 40.941406 118.363281 39.832031 117.234375 39.351562 L 68.855469 18.621094 C 68.085938 18.289062 67.214844 18.289062 66.441406 18.621094 L 18.078125 39.351562 C 16.953125 39.832031 16.222656 40.941406 16.222656 42.164062 L 16.222656 84.195312 C 16.222656 114.089844 37.8125 140.023438 67.078125 145.589844 C 67.453125 145.664062 67.84375 145.664062 68.222656 145.589844 C 68.875 145.464844 69.527344 145.332031 70.175781 145.1875 C 71.152344 150.714844 72.910156 155.972656 75.332031 160.839844 Z M 69.429688 139.074219 C 68.839844 139.214844 68.246094 139.34375 67.648438 139.464844 C 41.542969 134.210938 22.347656 110.964844 22.347656 84.195312 L 22.347656 44.183594 C 22.347656 44.183594 67.648438 24.765625 67.648438 24.765625 L 112.96875 44.183594 L 112.96875 78.757812 C 87.871094 85.171875 69.292969 107.953125 69.292969 135.039062 C 69.292969 136.394531 69.339844 137.742188 69.429688 139.074219 Z M 61.558594 85.175781 L 51.175781 74.789062 C 48.484375 72.101562 44.117188 72.101562 41.429688 74.789062 C 38.738281 77.492188 38.738281 81.847656 41.429688 84.539062 L 56.691406 99.816406 C 59.382812 102.503906 63.75 102.503906 66.441406 99.816406 C 75.644531 90.609375 84.738281 81.304688 93.90625 72.058594 C 96.582031 69.355469 96.566406 65.003906 93.875 62.328125 C 91.1875 59.652344 86.820312 59.664062 84.144531 62.355469 Z M 127.375 101.941406 C 145.652344 101.941406 160.476562 116.761719 160.476562 135.039062 C 160.476562 153.316406 145.652344 168.140625 127.375 168.140625 C 109.101562 168.140625 94.277344 153.316406 94.277344 135.039062 C 94.277344 116.761719 109.101562 101.941406 127.375 101.941406 Z M 124.316406 115.378906 L 124.316406 135.039062 C 124.316406 136.132812 124.898438 137.144531 125.84375 137.691406 L 140.082031 145.914062 C 141.546875 146.761719 143.417969 146.257812 144.265625 144.796875 C 145.109375 143.332031 144.609375 141.457031 143.144531 140.613281 L 130.4375 133.273438 L 130.4375 115.378906 C 130.4375 113.6875 129.066406 112.316406 127.375 112.316406 C 125.6875 112.316406 124.316406 113.6875 124.316406 115.378906 Z M 179.109375 130.117188 L 182.082031 128.570312 C 183.582031 127.792969 185.433594 128.375 186.210938 129.875 C 186.992188 131.375 186.40625 133.226562 184.90625 134.003906 L 177.6875 137.757812 C 176.804688 138.214844 175.75 138.214844 174.863281 137.757812 L 167.648438 134.003906 C 166.148438 133.226562 165.5625 131.375 166.34375 129.875 C 167.121094 128.375 168.972656 127.792969 170.472656 128.570312 L 172.925781 129.847656 C 170.34375 106.988281 150.917969 89.203125 127.375 89.203125 C 102.078125 89.203125 81.539062 109.742188 81.539062 135.039062 C 81.539062 160.339844 102.078125 180.878906 127.375 180.878906 C 146.066406 180.878906 162.15625 169.667969 169.289062 153.613281 C 169.976562 152.070312 171.789062 151.371094 173.332031 152.058594 C 174.875 152.746094 175.574219 154.554688 174.886719 156.097656 C 166.800781 174.296875 148.558594 187 127.375 187 C 98.699219 187 75.414062 163.71875 75.414062 135.039062 C 75.414062 106.359375 98.699219 83.078125 127.375 83.078125 C 154.394531 83.078125 176.625 103.742188 179.109375 130.117188 Z M 179.109375 130.117188 " fill-opacity="1" fill-rule="evenodd"/></g></svg>