<svg xmlns="http://www.w3.org/2000/svg" xmlns:xlink="http://www.w3.org/1999/xlink" width="250" zoomAndPan="magnify" viewBox="0 0 187.5 187.499992" height="250" preserveAspectRatio="xMidYMid meet" version="1.0"><defs><clipPath id="de338f989d"><path d="M 46 18.699219 L 168 18.699219 L 168 86 L 46 86 Z M 46 18.699219 " clip-rule="nonzero"/></clipPath><clipPath id="47f3bb4c1b"><path d="M 0 90 L 187 90 L 187 168.300781 L 0 168.300781 Z M 0 90 " clip-rule="nonzero"/></clipPath></defs><g clip-path="url(#de338f989d)"><path fill="#215520" d="M 47.304688 76.851562 C 47.804688 77.261719 48.414062 77.464844 49.015625 77.464844 C 49.792969 77.464844 50.566406 77.128906 51.097656 76.480469 C 51.101562 76.472656 51.667969 75.789062 52.667969 74.675781 C 55.171875 71.882812 57.9375 69.382812 60.90625 67.1875 C 61.117188 67.414062 61.332031 67.636719 61.550781 67.871094 C 64.480469 70.972656 67.804688 74.488281 73.296875 78.316406 C 79.828125 82.867188 86.332031 85.390625 92.625 85.8125 C 93.261719 85.855469 93.894531 85.878906 94.523438 85.878906 C 102.085938 85.878906 109.15625 82.789062 115.5625 76.679688 C 116.617188 75.675781 116.679688 74.019531 115.710938 72.933594 L 113.320312 70.261719 C 114.941406 70.355469 116.527344 70.40625 118.082031 70.40625 C 131.871094 70.40625 143.074219 66.636719 151.484375 59.15625 C 158.148438 53.222656 163 44.835938 165.515625 34.902344 C 167.402344 27.445312 167.328125 21.75 167.324219 21.511719 C 167.308594 20.644531 166.878906 19.839844 166.167969 19.347656 C 165.457031 18.851562 164.550781 18.726562 163.734375 19.015625 C 156.554688 21.535156 152.152344 21.886719 141.519531 22.742188 C 137.945312 23.027344 133.5 23.386719 128.089844 23.902344 C 120.484375 24.632812 111.054688 26.375 103.546875 30.421875 L 104.550781 27.820312 C 104.828125 27.105469 104.789062 26.308594 104.4375 25.625 C 104.089844 24.941406 103.46875 24.441406 102.726562 24.246094 C 82.910156 19.023438 69.382812 31.835938 63.332031 45.566406 C 60.914062 51.058594 60.132812 55.671875 59.441406 59.742188 C 59.316406 60.476562 59.195312 61.183594 59.070312 61.871094 C 55.292969 64.503906 51.792969 67.582031 48.65625 71.078125 C 47.570312 72.285156 46.960938 73.027344 46.933594 73.058594 C 45.988281 74.210938 46.15625 75.90625 47.304688 76.851562 Z M 68.265625 47.738281 C 76.738281 28.5 91.121094 27.792969 98.375 28.851562 L 95.054688 37.457031 C 94.582031 38.679688 95.058594 40.066406 96.183594 40.738281 C 97.308594 41.414062 98.753906 41.179688 99.609375 40.183594 C 104.53125 34.464844 114.828125 30.585938 128.601562 29.269531 C 133.972656 28.753906 138.210938 28.414062 141.953125 28.113281 C 150.914062 27.394531 155.832031 27 161.726562 25.316406 C 161.085938 31.875 158.480469 45.71875 147.902344 55.128906 C 138.445312 63.542969 124.707031 66.609375 107.066406 64.238281 C 105.945312 64.085938 104.851562 64.648438 104.324219 65.648438 C 103.796875 66.644531 103.945312 67.863281 104.695312 68.707031 L 109.894531 74.515625 C 99.972656 82.695312 88.710938 82.492188 76.378906 73.894531 C 71.34375 70.382812 68.355469 67.222656 65.46875 64.167969 C 65.464844 64.164062 65.460938 64.164062 65.460938 64.160156 C 76.175781 57.769531 88.960938 55.046875 101.8125 56.722656 C 104.214844 57.035156 106.484375 57.183594 108.648438 57.183594 C 123.710938 57.183594 133.527344 49.996094 145.550781 41.195312 L 146.59375 40.429688 C 147.792969 39.554688 148.054688 37.867188 147.175781 36.664062 C 146.300781 35.464844 144.613281 35.203125 143.410156 36.082031 L 142.367188 36.847656 C 129.085938 46.566406 119.492188 53.59375 102.507812 51.378906 C 89.425781 49.671875 76.402344 52.136719 65.195312 58.121094 C 65.78125 54.9375 66.570312 51.585938 68.265625 47.738281 Z M 68.265625 47.738281 " fill-opacity="1" fill-rule="nonzero"/></g><g clip-path="url(#47f3bb4c1b)"><path fill="#215520" d="M 184.367188 93.226562 C 179.539062 88.46875 169.933594 90.398438 155.003906 99.125 C 147.546875 103.480469 140.78125 108.363281 137.503906 110.808594 C 132.496094 105.867188 123.21875 104.804688 112.691406 103.605469 C 106.484375 102.898438 100.066406 102.164062 94.160156 100.578125 C 88.777344 99.128906 84.222656 98.007812 79.5 97.257812 C 79.480469 97.257812 79.457031 97.253906 79.4375 97.25 C 62.917969 95.011719 49.816406 99.417969 41.730469 103.507812 C 37.304688 105.746094 33.871094 108.121094 31.53125 109.957031 C 29.53125 104.976562 24.65625 101.453125 18.972656 101.453125 L 13.523438 101.453125 C 6.0625 101.453125 -0.0078125 107.523438 -0.0078125 114.984375 L -0.0078125 154.738281 C -0.0078125 162.199219 6.0625 168.269531 13.523438 168.269531 L 18.972656 168.269531 C 25.257812 168.269531 30.558594 163.957031 32.070312 158.136719 C 40.082031 154.832031 48.355469 153.410156 57.324219 153.800781 C 65.621094 154.164062 73.453125 156.023438 80.359375 157.667969 C 86.917969 159.226562 92.925781 160.65625 98.390625 160.65625 C 101.855469 160.65625 105.101562 160.082031 108.128906 158.597656 C 127.6875 149.574219 146.582031 138.589844 161.34375 127.664062 C 180.546875 113.445312 185.5625 104.839844 186.382812 100.121094 C 186.988281 96.660156 185.621094 94.460938 184.367188 93.226562 Z M 18.972656 162.878906 L 13.523438 162.878906 C 9.035156 162.878906 5.382812 159.226562 5.382812 154.738281 L 5.382812 114.984375 C 5.382812 110.496094 9.035156 106.84375 13.523438 106.84375 L 18.972656 106.84375 C 23.460938 106.84375 27.113281 110.496094 27.113281 114.984375 L 27.113281 154.738281 C 27.113281 159.226562 23.460938 162.878906 18.972656 162.878906 Z M 181.074219 99.195312 C 180.738281 101.121094 178.089844 108.558594 158.136719 123.332031 C 143.65625 134.050781 125.085938 144.839844 105.84375 153.71875 C 105.820312 153.726562 105.800781 153.738281 105.78125 153.746094 C 99.71875 156.730469 91.328125 154.734375 81.609375 152.425781 C 68.082031 149.207031 51.449219 145.253906 32.503906 152.179688 L 32.503906 116.175781 C 36.183594 112.839844 53.078125 99.128906 78.683594 102.585938 C 83.164062 103.300781 87.554688 104.378906 92.761719 105.78125 C 99.054688 107.476562 105.675781 108.230469 112.082031 108.960938 C 122.292969 110.125 131.933594 111.226562 134.800781 116.011719 C 135.628906 117.398438 135.816406 119.082031 135.3125 120.628906 C 133.566406 126.007812 123.203125 125.125 111.199219 124.105469 C 98.367188 123.015625 83.824219 121.78125 73.074219 127.664062 C 71.769531 128.378906 71.289062 130.015625 72.003906 131.324219 C 72.496094 132.21875 73.417969 132.722656 74.371094 132.722656 C 74.808594 132.722656 75.253906 132.617188 75.664062 132.394531 C 84.988281 127.289062 98.671875 128.453125 110.742188 129.476562 C 117.425781 130.046875 123.742188 130.582031 128.78125 130.003906 C 131.132812 129.734375 138.289062 128.917969 140.441406 122.296875 C 141.179688 120.019531 141.15625 117.59375 140.40625 115.371094 C 143.445312 113.09375 150.308594 108.113281 157.722656 103.777344 C 175.003906 93.679688 179.589844 96.085938 180.585938 97.066406 C 180.949219 97.425781 181.292969 97.957031 181.074219 99.195312 Z M 181.074219 99.195312 " fill-opacity="1" fill-rule="nonzero"/></g></svg>