<svg xmlns="http://www.w3.org/2000/svg" xmlns:xlink="http://www.w3.org/1999/xlink" width="250" zoomAndPan="magnify" viewBox="0 0 187.5 187.499992" height="250" preserveAspectRatio="xMidYMid meet" version="1.0"><defs><clipPath id="59d9542330"><path d="M 6.511719 1 L 180.796875 1 L 180.796875 186.9375 L 6.511719 186.9375 Z M 6.511719 1 " clip-rule="nonzero"/></clipPath></defs><g clip-path="url(#59d9542330)"><path fill="#215520" d="M 16.132812 11.984375 C 15.828125 13.148438 15.734375 13.753906 16.261719 14.847656 C 16.472656 15.132812 16.6875 15.417969 16.902344 15.707031 C 17.019531 15.863281 17.132812 16.019531 17.25 16.179688 C 17.632812 16.695312 18.027344 17.203125 18.425781 17.710938 C 18.570312 17.898438 18.714844 18.085938 18.867188 18.28125 C 20.308594 20.441406 22.0625 22.113281 24.132812 23.292969 C 24.976562 23.242188 25.367188 23.109375 26.152344 22.71875 C 26.820312 21.886719 26.847656 21.355469 26.820312 20.304688 C 26.660156 19.320312 26.144531 18.746094 25.507812 17.996094 C 25.246094 17.679688 24.984375 17.359375 24.726562 17.042969 C 24.585938 16.875 24.445312 16.707031 24.300781 16.535156 C 23.347656 15.359375 22.472656 14.125 21.578125 12.902344 C 21.441406 12.71875 21.304688 12.53125 21.164062 12.339844 C 21.042969 12.175781 20.921875 12.007812 20.796875 11.839844 C 20.121094 11.054688 19.625 10.847656 18.601562 10.734375 C 17.375 10.859375 16.941406 11.058594 16.132812 11.984375 Z M 22.59375 2.09375 C 26.066406 3.855469 27.917969 7.023438 29.992188 10.167969 C 30.644531 11.140625 31.335938 12.082031 32.039062 13.023438 C 33.742188 15.320312 35.386719 17.660156 37.027344 20 C 37.59375 20.804688 38.160156 21.609375 38.730469 22.414062 C 38.871094 22.617188 39.011719 22.816406 39.15625 23.023438 C 40.195312 24.492188 41.25 25.949219 42.304688 27.40625 C 43.59375 29.179688 44.847656 30.976562 46.082031 32.789062 C 47.3125 34.605469 48.574219 36.394531 49.882812 38.15625 C 51.167969 39.894531 52.414062 41.664062 53.660156 43.4375 C 54.40625 44.5 55.164062 45.5625 55.921875 46.617188 C 56.964844 48.078125 58 49.539062 59.03125 51 C 59.175781 51.207031 59.320312 51.410156 59.46875 51.621094 C 60.191406 52.644531 60.914062 53.671875 61.636719 54.699219 C 63.261719 57.003906 64.898438 59.296875 66.550781 61.578125 C 67.742188 63.226562 68.917969 64.882812 70.085938 66.542969 C 71.113281 68.003906 72.152344 69.449219 73.203125 70.894531 C 74.519531 72.710938 75.816406 74.542969 77.101562 76.386719 C 78.84375 78.882812 80.617188 81.355469 82.40625 83.820312 C 83.027344 84.679688 83.640625 85.542969 84.257812 86.40625 C 85.179688 87.699219 86.105469 88.988281 87.039062 90.273438 C 88.460938 92.242188 89.882812 94.210938 91.289062 96.191406 C 91.425781 96.386719 91.570312 96.582031 91.710938 96.78125 C 92.546875 97.960938 93.289062 99.164062 93.988281 100.429688 C 90.777344 102.519531 87.558594 104.601562 84.300781 106.621094 C 83.878906 106.890625 83.464844 107.167969 83.054688 107.453125 C 82.855469 107.589844 82.65625 107.722656 82.453125 107.863281 C 82.277344 107.988281 82.097656 108.113281 81.917969 108.242188 C 81.570312 108.378906 81.195312 108.378906 80.800781 108.246094 C 79.953125 107.671875 79.40625 106.875 78.800781 106.066406 C 78.519531 105.699219 78.242188 105.332031 77.960938 104.96875 C 77.816406 104.78125 77.675781 104.597656 77.527344 104.40625 C 76.882812 103.585938 76.207031 102.796875 75.527344 102.003906 C 74.300781 100.570312 73.125 99.105469 71.964844 97.617188 C 70.882812 96.226562 69.761719 94.871094 68.628906 93.519531 C 66.992188 91.570312 65.394531 89.59375 63.828125 87.585938 C 62.792969 86.261719 61.734375 84.960938 60.644531 83.6875 C 59.582031 82.445312 58.550781 81.183594 57.546875 79.894531 C 56.375 78.382812 55.171875 76.894531 53.953125 75.421875 C 53.785156 75.21875 53.617188 75.011719 53.441406 74.804688 C 53.273438 74.597656 53.105469 74.394531 52.929688 74.183594 C 50.648438 71.425781 48.398438 68.644531 46.199219 65.820312 C 45.164062 64.5 44.085938 63.21875 42.996094 61.941406 C 42.121094 60.917969 41.285156 59.875 40.464844 58.804688 C 39.675781 57.789062 38.863281 56.792969 38.050781 55.796875 C 36.28125 53.621094 34.519531 51.441406 32.792969 49.234375 C 31.351562 47.398438 29.890625 45.578125 28.417969 43.769531 C 26.128906 40.957031 23.867188 38.121094 21.636719 35.265625 C 20.472656 33.785156 19.285156 32.328125 18.09375 30.867188 C 16.9375 29.449219 15.800781 28.011719 14.671875 26.566406 C 13.875 25.546875 13.0625 24.539062 12.234375 23.542969 C 8.414062 18.882812 6.574219 14.871094 6.722656 11.5 C 7.199219 8.46875 8.800781 5.523438 11.269531 3.683594 C 14.675781 1.707031 18.722656 0.730469 22.59375 2.09375 Z M 133.558594 16.746094 C 133.773438 16.730469 133.988281 16.714844 134.207031 16.703125 C 135.039062 16.878906 135.660156 17.15625 136.292969 17.730469 C 137.082031 19 136.804688 20.652344 136.742188 22.09375 C 136.734375 22.441406 136.726562 22.792969 136.71875 23.148438 C 136.699219 24.007812 136.671875 24.867188 136.636719 25.726562 C 136.789062 25.628906 136.941406 25.535156 137.097656 25.441406 C 137.800781 25.011719 138.507812 24.589844 139.210938 24.167969 C 139.453125 24.019531 139.691406 23.871094 139.941406 23.71875 C 141.449219 22.828125 142.597656 22.3125 144.363281 22.289062 C 145.285156 22.75 145.867188 23.140625 146.476562 23.972656 C 146.828125 25.167969 146.8125 25.980469 146.25 27.105469 C 145.375 28.363281 144.035156 28.980469 142.71875 29.695312 C 142.464844 29.839844 142.207031 29.980469 141.949219 30.128906 C 141.324219 30.476562 140.699219 30.820312 140.070312 31.164062 C 141.078125 32.234375 142.339844 32.867188 143.613281 33.574219 C 144.921875 34.328125 145.78125 35.074219 146.65625 36.316406 C 146.832031 37.308594 146.886719 37.9375 146.351562 38.816406 C 145.5625 39.796875 145.050781 40.261719 143.808594 40.449219 C 142.179688 40.421875 140.851562 39.421875 139.5 38.605469 C 138.988281 38.296875 138.476562 37.992188 137.964844 37.6875 C 137.523438 37.417969 137.082031 37.152344 136.636719 36.886719 C 136.644531 37.097656 136.65625 37.304688 136.664062 37.523438 C 136.699219 38.472656 136.722656 39.425781 136.746094 40.375 C 136.757812 40.703125 136.773438 41.035156 136.789062 41.375 C 136.816406 42.953125 136.648438 44.023438 136.292969 44.585938 C 135.234375 45.527344 134.300781 45.691406 132.949219 45.617188 C 131.96875 45.386719 131.507812 44.824219 130.914062 44.042969 C 130.558594 43.339844 130.566406 42.824219 130.535156 42.035156 C 130.523438 41.753906 130.511719 41.472656 130.5 41.183594 C 130.488281 40.886719 130.476562 40.589844 130.464844 40.285156 C 130.453125 39.988281 130.441406 39.6875 130.425781 39.382812 C 130.398438 38.648438 130.367188 37.910156 130.339844 37.171875 C 130.183594 37.269531 130.03125 37.363281 129.871094 37.460938 C 129.167969 37.894531 128.457031 38.320312 127.746094 38.746094 C 127.503906 38.898438 127.261719 39.046875 127.011719 39.203125 C 125.59375 40.046875 124.597656 40.558594 122.898438 40.320312 C 122.089844 39.960938 121.621094 39.667969 121.089844 38.960938 C 120.703125 37.691406 120.707031 36.695312 121.300781 35.496094 C 122.175781 34.246094 123.515625 33.628906 124.832031 32.914062 C 125.085938 32.773438 125.339844 32.632812 125.601562 32.484375 C 126.222656 32.136719 126.851562 31.789062 127.476562 31.449219 C 125.898438 30.382812 124.308594 29.363281 122.660156 28.414062 C 121.699219 27.792969 121.261719 27.390625 120.894531 26.296875 C 120.789062 24.871094 120.847656 23.996094 121.753906 22.863281 C 122.691406 22.183594 123.480469 22.164062 124.617188 22.289062 C 125.648438 22.742188 126.613281 23.296875 127.585938 23.863281 C 127.851562 24.015625 128.117188 24.164062 128.390625 24.320312 C 129.042969 24.6875 129.691406 25.0625 130.339844 25.4375 C 130.34375 25.246094 130.347656 25.058594 130.347656 24.859375 C 130.363281 23.992188 130.386719 23.121094 130.410156 22.253906 C 130.414062 21.953125 130.421875 21.65625 130.425781 21.347656 C 130.480469 19.589844 130.578125 18.46875 131.773438 17.136719 C 132.417969 16.8125 132.839844 16.777344 133.558594 16.742188 Z M 105.4375 50.914062 C 106.207031 51.535156 106.710938 52.03125 107.15625 52.917969 C 107.222656 53.546875 107.273438 54.179688 107.316406 54.8125 C 107.339844 55.152344 107.363281 55.492188 107.386719 55.84375 C 107.40625 56.105469 107.421875 56.367188 107.441406 56.636719 C 107.621094 56.535156 107.800781 56.429688 107.988281 56.324219 C 109.601562 55.449219 110.75 54.894531 112.59375 55.207031 C 113.625 56.042969 114.25 56.664062 114.398438 57.996094 C 114.28125 59.21875 113.976562 59.71875 113.164062 60.644531 C 112.507812 61.074219 111.839844 61.441406 111.140625 61.796875 C 110.78125 61.953125 110.503906 62.144531 110.304688 62.363281 C 110.519531 62.464844 110.738281 62.570312 110.960938 62.675781 C 112.503906 63.457031 113.546875 64.203125 114.097656 64.921875 C 114.367188 66.035156 114.363281 66.699219 114.023438 67.800781 C 113.1875 68.738281 112.625 69.164062 111.394531 69.429688 C 109.792969 69.140625 108.53125 68.351562 107.15625 67.515625 C 107.167969 67.808594 107.179688 68.101562 107.195312 68.402344 C 107.207031 68.792969 107.214844 69.179688 107.226562 69.570312 C 107.234375 69.765625 107.246094 69.957031 107.253906 70.15625 C 107.277344 71.203125 107.1875 71.757812 106.613281 72.644531 C 105.777344 73.46875 105.550781 73.515625 104.347656 73.613281 C 103.410156 73.605469 103.144531 73.523438 102.308594 73.007812 C 101.304688 71.941406 101.359375 70.871094 101.269531 69.464844 C 101.246094 69.101562 101.222656 68.734375 101.195312 68.359375 C 101.179688 68.082031 101.164062 67.800781 101.144531 67.515625 C 100.960938 67.636719 100.777344 67.761719 100.589844 67.890625 C 98.832031 69.019531 97.394531 69.46875 96.277344 69.230469 C 95.214844 68.5625 94.675781 68.140625 94.273438 66.941406 C 94.273438 65.945312 94.316406 65.5 94.847656 64.652344 C 95.574219 64.023438 96.347656 63.480469 97.136719 62.933594 C 97.519531 62.648438 97.902344 62.363281 98.28125 62.074219 C 98.085938 61.960938 97.886719 61.847656 97.6875 61.730469 C 97.429688 61.578125 97.171875 61.425781 96.90625 61.269531 C 96.648438 61.121094 96.394531 60.972656 96.128906 60.816406 C 95.066406 60.128906 94.636719 59.792969 94.3125 58.550781 C 94.269531 57.34375 94.480469 56.785156 95.132812 55.777344 C 96.214844 55.058594 97.03125 54.960938 98.28125 55.207031 C 99.378906 55.703125 100.40625 56.289062 101.429688 56.921875 C 101.421875 56.652344 101.410156 56.378906 101.402344 56.097656 C 101.394531 55.738281 101.386719 55.378906 101.378906 55.007812 C 101.367188 54.652344 101.355469 54.296875 101.347656 53.933594 C 101.4375 52.84375 101.628906 52.339844 102.289062 51.484375 C 103.339844 50.785156 104.21875 50.671875 105.4375 50.914062 Z M 154.957031 62.933594 C 155.765625 63.582031 156.066406 64.09375 156.191406 65.125 C 156.210938 66.050781 156.199219 66.964844 156.171875 67.890625 C 156.167969 68.210938 156.160156 68.53125 156.15625 68.863281 C 156.140625 69.652344 156.125 70.445312 156.101562 71.234375 C 156.25 71.140625 156.402344 71.042969 156.558594 70.945312 C 157.253906 70.511719 157.957031 70.085938 158.65625 69.660156 C 158.894531 69.511719 159.132812 69.359375 159.378906 69.207031 C 160.929688 68.277344 162.289062 67.679688 164.113281 68.085938 C 164.902344 68.710938 165.382812 69.195312 165.832031 70.089844 C 166.003906 71.621094 165.621094 72.324219 164.6875 73.523438 C 164.109375 73.941406 163.5 74.335938 162.863281 74.707031 C 161.628906 75.425781 160.429688 76.15625 159.25 76.960938 C 159.386719 77.039062 159.527344 77.117188 159.671875 77.199219 C 160.3125 77.5625 160.953125 77.933594 161.59375 78.300781 C 161.8125 78.425781 162.03125 78.550781 162.257812 78.679688 C 163.675781 79.5 165.074219 80.3125 165.832031 81.824219 C 166.003906 83.332031 165.617188 84.082031 164.6875 85.261719 C 163.667969 85.769531 162.636719 85.71875 161.539062 85.546875 C 160.421875 85.074219 159.414062 84.472656 158.390625 83.828125 C 158.1875 83.703125 157.988281 83.578125 157.78125 83.449219 C 157.222656 83.101562 156.660156 82.75 156.101562 82.398438 C 156.105469 82.589844 156.113281 82.78125 156.117188 82.980469 C 156.140625 83.851562 156.15625 84.726562 156.171875 85.601562 C 156.179688 85.902344 156.191406 86.203125 156.199219 86.515625 C 156.21875 88.015625 156.003906 89.140625 155.558594 89.890625 C 154.609375 90.710938 153.933594 90.792969 152.675781 90.78125 C 151.769531 90.652344 151.285156 90.195312 150.660156 89.554688 C 150.308594 88.847656 150.316406 88.335938 150.285156 87.546875 C 150.273438 87.265625 150.261719 86.984375 150.25 86.691406 C 150.238281 86.394531 150.226562 86.101562 150.214844 85.796875 C 150.203125 85.5 150.191406 85.199219 150.175781 84.894531 C 150.148438 84.15625 150.117188 83.421875 150.089844 82.683594 C 149.789062 82.867188 149.488281 83.050781 149.179688 83.238281 C 148.785156 83.476562 148.390625 83.714844 147.996094 83.953125 C 147.796875 84.074219 147.601562 84.195312 147.398438 84.320312 C 147.207031 84.433594 147.015625 84.550781 146.820312 84.667969 C 146.644531 84.773438 146.46875 84.882812 146.289062 84.992188 C 145.039062 85.675781 143.75 85.757812 142.359375 85.546875 C 141.3125 84.824219 141 84.34375 140.625 83.132812 C 140.648438 81.890625 140.925781 81.246094 141.789062 80.394531 C 143.472656 79.039062 145.316406 77.960938 147.226562 76.960938 C 146.863281 76.714844 146.5 76.46875 146.136719 76.226562 C 145.902344 76.070312 145.667969 75.914062 145.429688 75.75 C 144.898438 75.402344 144.355469 75.066406 143.808594 74.742188 C 142.382812 73.890625 141.402344 73.101562 140.859375 72.378906 C 140.585938 71.285156 140.613281 70.605469 140.929688 69.519531 C 141.300781 68.957031 141.777344 68.480469 142.359375 68.085938 C 144.628906 67.671875 146.136719 68.414062 147.976562 69.660156 C 148.210938 69.8125 148.445312 69.960938 148.683594 70.117188 C 149.25 70.484375 149.816406 70.855469 150.375 71.234375 C 150.367188 71.035156 150.359375 70.832031 150.351562 70.628906 C 150.324219 69.714844 150.304688 68.800781 150.285156 67.890625 C 150.273438 67.574219 150.261719 67.257812 150.25 66.933594 C 150.226562 65.371094 150.492188 64.207031 151.042969 63.449219 C 152.292969 62.609375 153.527344 62.414062 154.953125 62.933594 Z M 127.78125 87.960938 C 129.210938 88.769531 130 89.933594 130.910156 91.269531 C 131.210938 91.691406 131.511719 92.113281 131.8125 92.535156 C 132.132812 92.996094 132.453125 93.457031 132.773438 93.917969 C 132.929688 94.140625 133.089844 94.367188 133.253906 94.59375 C 133.398438 94.808594 133.542969 95.023438 133.695312 95.246094 C 133.828125 95.4375 133.960938 95.628906 134.09375 95.828125 C 134.433594 96.628906 134.355469 97.042969 134.058594 97.855469 C 133.75 98.140625 133.390625 98.40625 132.980469 98.648438 C 132.746094 98.785156 132.515625 98.925781 132.277344 99.070312 C 132.019531 99.21875 131.765625 99.367188 131.503906 99.519531 C 130.953125 99.847656 130.398438 100.175781 129.847656 100.507812 C 129.554688 100.679688 129.261719 100.855469 128.960938 101.03125 C 127.40625 101.957031 125.867188 102.914062 124.328125 103.863281 C 123.695312 104.253906 123.058594 104.644531 122.425781 105.035156 C 120.816406 106.027344 119.207031 107.019531 117.601562 108.015625 C 115.042969 109.601562 112.480469 111.179688 109.917969 112.753906 C 108.242188 113.785156 106.570312 114.816406 104.902344 115.851562 C 102.171875 117.550781 99.425781 119.222656 96.675781 120.886719 C 94.335938 122.300781 92.011719 123.734375 89.695312 125.1875 C 87.039062 126.859375 84.367188 128.492188 81.683594 130.117188 C 79.527344 131.421875 77.378906 132.734375 75.242188 134.0625 C 70.472656 137.023438 65.6875 139.964844 60.828125 142.78125 C 60 143.261719 59.214844 143.753906 58.441406 144.316406 C 57.90625 144.636719 57.433594 144.804688 57.023438 144.828125 C 56.207031 144.339844 55.894531 143.683594 55.417969 142.863281 C 55.222656 142.527344 55.023438 142.1875 54.824219 141.851562 C 54.722656 141.675781 54.621094 141.5 54.515625 141.320312 C 54.003906 140.453125 53.46875 139.601562 52.933594 138.75 C 51.773438 136.894531 51.386719 135.527344 51.628906 133.347656 C 52.515625 130.789062 55.097656 129.605469 57.261719 128.265625 C 57.5625 128.078125 57.863281 127.890625 58.175781 127.699219 C 61.019531 125.929688 63.875 124.175781 66.730469 122.421875 C 68.328125 121.441406 69.925781 120.453125 71.519531 119.464844 C 74.679688 117.507812 77.847656 115.558594 81.015625 113.609375 C 82.261719 112.84375 83.511719 112.074219 84.761719 111.304688 C 85.378906 110.925781 85.996094 110.542969 86.613281 110.164062 C 88.1875 109.195312 89.757812 108.230469 91.328125 107.257812 C 94.328125 105.410156 97.332031 103.566406 100.359375 101.757812 C 102.402344 100.535156 104.441406 99.304688 106.476562 98.070312 C 106.644531 97.964844 106.8125 97.863281 106.988281 97.757812 C 109.175781 96.429688 111.355469 95.09375 113.527344 93.75 C 116.058594 92.1875 118.589844 90.636719 121.164062 89.140625 C 121.386719 89.011719 121.613281 88.878906 121.839844 88.746094 C 122.042969 88.628906 122.25 88.511719 122.457031 88.390625 C 122.632812 88.289062 122.8125 88.1875 122.992188 88.085938 C 124.542969 87.277344 126.199219 87.285156 127.78125 87.960938 Z M 134.917969 103.292969 C 135.675781 104.023438 136.34375 104.765625 136.972656 105.609375 C 137.144531 105.835938 137.3125 106.0625 137.488281 106.296875 C 137.667969 106.539062 137.847656 106.785156 138.03125 107.03125 C 138.21875 107.285156 138.40625 107.539062 138.597656 107.792969 C 138.988281 108.320312 139.382812 108.847656 139.769531 109.375 C 140.335938 110.136719 140.90625 110.890625 141.480469 111.648438 C 141.832031 112.117188 142.1875 112.589844 142.539062 113.0625 C 142.703125 113.273438 142.867188 113.488281 143.03125 113.707031 C 144.984375 116.324219 145.925781 118.3125 145.847656 119.660156 C 145.0625 122.1875 143.109375 123.289062 140.964844 124.644531 C 140.367188 124.910156 139.8125 125.039062 139.296875 125.027344 C 138.519531 124.710938 138.242188 124.433594 137.746094 123.757812 C 137.578125 123.53125 137.410156 123.304688 137.238281 123.070312 C 136.316406 121.710938 135.425781 120.332031 134.554688 118.941406 C 134.425781 118.738281 134.296875 118.53125 134.160156 118.320312 C 134.046875 118.132812 133.929688 117.949219 133.808594 117.757812 C 133.605469 117.433594 133.308594 117.191406 132.914062 117.03125 C 132.34375 117.019531 131.769531 117.019531 131.199219 117.03125 C 130.886719 117.492188 130.695312 118.0625 130.625 118.75 C 131.085938 119.871094 131.742188 120.863281 132.398438 121.878906 C 134.234375 124.8125 135.1875 126.785156 135.253906 127.792969 C 134.707031 128.914062 133.746094 129.390625 132.699219 130.019531 C 132.496094 130.152344 132.289062 130.285156 132.078125 130.421875 C 131.082031 131.035156 130.230469 131.34375 129.523438 131.34375 C 128.796875 131.003906 128.570312 130.757812 128.15625 130.074219 C 128.015625 129.847656 127.875 129.617188 127.730469 129.382812 C 127.550781 129.085938 127.375 128.789062 127.191406 128.480469 C 126.792969 127.816406 126.390625 127.148438 125.988281 126.484375 C 125.707031 126.019531 125.425781 125.550781 125.148438 125.082031 C 125.019531 124.863281 124.890625 124.644531 124.753906 124.421875 C 124.636719 124.226562 124.519531 124.027344 124.402344 123.824219 C 124.152344 123.4375 123.746094 123.082031 123.183594 122.757812 C 122.453125 122.792969 121.785156 122.980469 121.179688 123.328125 C 120.839844 125.4375 121.941406 126.871094 123.003906 128.625 C 124.394531 130.945312 125.21875 132.710938 125.472656 133.917969 C 124.683594 134.832031 123.679688 135.382812 122.648438 135.976562 C 122.472656 136.082031 122.296875 136.1875 122.117188 136.296875 C 120.910156 136.992188 119.929688 137.25 119.175781 137.066406 C 118.351562 136.132812 117.707031 135.144531 117.082031 134.066406 C 116.910156 133.777344 116.738281 133.480469 116.5625 133.183594 C 116.203125 132.574219 115.847656 131.960938 115.492188 131.347656 C 115.320312 131.058594 115.148438 130.765625 114.972656 130.472656 C 114.816406 130.207031 114.664062 129.941406 114.503906 129.667969 C 114.222656 129.234375 113.867188 128.953125 113.441406 128.8125 C 112.734375 128.753906 112.136719 128.882812 111.449219 129.054688 C 111.359375 130.414062 111.5625 131.179688 112.253906 132.351562 C 112.417969 132.644531 112.585938 132.9375 112.757812 133.238281 C 113.113281 133.84375 113.464844 134.449219 113.820312 135.054688 C 114.832031 136.832031 115.40625 138.164062 115.457031 140.21875 C 114.785156 140.660156 114.113281 141.09375 113.433594 141.523438 C 113.246094 141.648438 113.058594 141.773438 112.863281 141.902344 C 111.867188 142.527344 111.292969 142.789062 110.089844 142.832031 C 108.878906 142.410156 108.628906 141.957031 108.015625 140.84375 C 107.921875 140.675781 107.828125 140.511719 107.730469 140.34375 C 107.535156 140 107.34375 139.652344 107.152344 139.304688 C 106.707031 138.484375 106.230469 137.679688 105.761719 136.871094 C 105.601562 136.59375 105.441406 136.3125 105.28125 136.027344 C 105.019531 135.5625 104.691406 135.144531 104.292969 134.777344 C 103.464844 134.796875 102.703125 134.988281 102.003906 135.351562 C 101.886719 136.6875 102.09375 137.421875 102.808594 138.542969 C 102.972656 138.8125 103.140625 139.082031 103.3125 139.359375 C 103.488281 139.636719 103.664062 139.914062 103.847656 140.199219 C 105.25 142.410156 105.972656 144.132812 106.011719 145.367188 C 105.15625 145.949219 104.296875 146.519531 103.433594 147.085938 C 103.253906 147.210938 103.074219 147.335938 102.886719 147.464844 C 102.085938 147.988281 101.453125 148.230469 100.5 148.332031 C 98.722656 147.691406 98.175781 146.117188 97.316406 144.511719 C 96.960938 143.871094 96.609375 143.234375 96.253906 142.597656 C 96.101562 142.3125 95.945312 142.027344 95.789062 141.734375 C 95.582031 141.316406 95.363281 141 95.132812 140.789062 C 94.472656 140.726562 93.804688 140.726562 93.128906 140.789062 C 92.691406 141.324219 92.519531 141.882812 92.617188 142.464844 C 92.847656 143.375 93.148438 144.050781 93.613281 144.859375 C 93.765625 145.132812 93.917969 145.402344 94.074219 145.683594 C 94.234375 145.964844 94.394531 146.242188 94.5625 146.53125 C 94.878906 147.089844 95.195312 147.644531 95.507812 148.207031 C 95.648438 148.449219 95.792969 148.699219 95.933594 148.949219 C 96.28125 149.671875 96.445312 150.304688 96.566406 151.09375 C 95.710938 151.671875 94.851562 152.246094 93.988281 152.8125 C 93.804688 152.933594 93.621094 153.054688 93.433594 153.179688 C 92.675781 153.652344 91.96875 153.960938 91.109375 154.1875 C 89.933594 153.863281 89.65625 153.273438 89.039062 152.253906 C 88.660156 151.574219 88.277344 150.890625 87.898438 150.207031 C 87.785156 150.003906 87.671875 149.796875 87.554688 149.589844 C 87.324219 149.175781 87.101562 148.761719 86.878906 148.347656 C 86.359375 147.398438 86.03125 146.839844 85.117188 146.226562 C 84.421875 146.289062 83.753906 146.382812 83.113281 146.511719 C 82.859375 148.757812 83.699219 150.152344 84.8125 152.058594 C 84.972656 152.34375 85.132812 152.628906 85.300781 152.921875 C 85.597656 153.449219 85.898438 153.972656 86.199219 154.492188 C 86.800781 155.539062 86.859375 156.175781 86.832031 157.390625 C 86.101562 157.832031 85.367188 158.265625 84.632812 158.695312 C 84.425781 158.820312 84.21875 158.945312 84.007812 159.074219 C 82.984375 159.667969 82.125 159.964844 81.4375 159.964844 C 80.699219 159.625 80.460938 159.351562 80.035156 158.660156 C 79.894531 158.433594 79.75 158.203125 79.605469 157.96875 C 78.859375 156.679688 78.125 155.382812 77.40625 154.074219 C 76.992188 153.316406 76.507812 152.609375 75.957031 151.953125 C 75.269531 152.011719 74.601562 152.109375 73.953125 152.238281 C 73.710938 152.660156 73.523438 153.136719 73.378906 153.667969 C 73.523438 154.175781 73.742188 154.683594 74.042969 155.191406 C 74.199219 155.488281 74.359375 155.785156 74.523438 156.089844 C 74.9375 156.832031 75.367188 157.570312 75.796875 158.304688 C 75.914062 158.511719 76.03125 158.714844 76.15625 158.925781 C 76.390625 159.328125 76.628906 159.730469 76.871094 160.128906 C 77.414062 161.0625 77.664062 161.777344 77.617188 162.277344 C 77.210938 163.257812 76.242188 163.671875 75.367188 164.1875 C 75.179688 164.304688 74.996094 164.425781 74.808594 164.546875 C 73.40625 165.386719 72.433594 165.554688 70.804688 165.40625 C 68.878906 164.574219 68.027344 162.863281 67.226562 161.023438 C 67.132812 160.808594 67.039062 160.597656 66.941406 160.375 C 65.917969 157.996094 64.996094 155.574219 64.078125 153.152344 C 64 152.945312 63.921875 152.742188 63.839844 152.53125 C 63.617188 151.945312 63.394531 151.355469 63.175781 150.765625 C 63.042969 150.421875 62.914062 150.078125 62.78125 149.726562 C 62.523438 148.867188 62.382812 148.257812 62.503906 147.371094 C 63.097656 146.882812 63.625 146.53125 64.292969 146.15625 C 64.714844 145.90625 65.136719 145.65625 65.558594 145.40625 C 65.796875 145.265625 66.039062 145.125 66.28125 144.980469 C 67.679688 144.160156 69.0625 143.308594 70.449219 142.464844 C 71.320312 141.933594 72.191406 141.40625 73.066406 140.875 C 77.15625 138.398438 81.242188 135.910156 85.3125 133.402344 C 87.902344 131.804688 90.496094 130.21875 93.09375 128.644531 C 93.261719 128.542969 93.425781 128.441406 93.597656 128.335938 C 94.945312 127.519531 96.292969 126.703125 97.644531 125.886719 C 98.824219 125.171875 100 124.457031 101.179688 123.742188 C 101.347656 123.640625 101.511719 123.539062 101.683594 123.4375 C 104.085938 121.976562 106.480469 120.511719 108.871094 119.035156 C 112.261719 116.945312 115.667969 114.875 119.074219 112.8125 C 120.296875 112.070312 121.519531 111.328125 122.746094 110.582031 C 128.996094 106.785156 133.054688 104.355469 134.917969 103.292969 Z M 159.160156 141.609375 C 161.734375 143.980469 163.878906 146.769531 164.6875 150.234375 L 164.6875 151.09375 C 164.890625 151.078125 165.097656 151.066406 165.308594 151.050781 C 169.566406 150.898438 173.09375 152.421875 176.207031 155.296875 C 178.945312 158.234375 180.300781 161.867188 180.472656 165.847656 C 180.269531 170.140625 178.445312 173.976562 175.324219 176.917969 C 172.777344 179.011719 169.519531 180.617188 166.179688 180.605469 C 165.914062 180.605469 165.648438 180.605469 165.378906 180.605469 C 165.097656 180.605469 164.816406 180.605469 164.527344 180.601562 C 164.238281 180.601562 163.949219 180.601562 163.648438 180.601562 C 162.726562 180.597656 161.800781 180.59375 160.875 180.59375 C 160.25 180.589844 159.621094 180.589844 158.992188 180.589844 C 157.457031 180.585938 155.917969 180.578125 154.382812 180.574219 C 154.078125 179.660156 154.121094 179.289062 154.257812 178.355469 C 154.703125 173.855469 153.34375 169.835938 150.660156 166.261719 C 150.492188 166.027344 150.320312 165.796875 150.144531 165.554688 C 148.203125 163.320312 144.988281 161.324219 142.007812 161.015625 C 140.394531 160.816406 139.34375 160.417969 138.859375 159.8125 C 138.1875 158.671875 137.699219 157.449219 137.183594 156.234375 C 135.648438 152.925781 132.355469 150.675781 129.195312 149.089844 C 130.289062 144.933594 133.4375 141.765625 137.035156 139.636719 C 144.117188 135.65625 152.933594 136.351562 159.160156 141.609375 Z M 34.738281 144.796875 C 35.542969 145.308594 36.03125 145.660156 36.457031 146.511719 C 36.476562 147.242188 36.484375 147.964844 36.472656 148.695312 C 36.472656 148.898438 36.472656 149.101562 36.46875 149.308594 C 36.46875 149.808594 36.460938 150.308594 36.457031 150.804688 C 36.683594 150.683594 36.914062 150.558594 37.148438 150.429688 C 37.449219 150.273438 37.753906 150.113281 38.066406 149.949219 C 38.363281 149.789062 38.664062 149.628906 38.972656 149.464844 C 39.945312 149.066406 40.570312 148.976562 41.609375 149.089844 C 42.566406 149.699219 43.285156 150.273438 43.613281 151.378906 C 43.550781 152.785156 43.183594 153.550781 42.179688 154.527344 C 41.34375 155.050781 40.488281 155.515625 39.605469 155.957031 C 40.21875 156.625 40.820312 157.042969 41.609375 157.480469 C 42.699219 158.148438 43.226562 158.707031 43.613281 159.964844 C 43.613281 161.128906 43.414062 161.574219 42.683594 162.488281 C 41.855469 163.148438 41.511719 163.402344 40.464844 163.402344 C 39.171875 162.929688 37.972656 162.296875 36.742188 161.683594 C 36.734375 161.957031 36.726562 162.230469 36.71875 162.507812 C 36.703125 162.867188 36.6875 163.230469 36.671875 163.597656 C 36.65625 163.953125 36.644531 164.308594 36.628906 164.675781 C 36.433594 165.824219 36.136719 166.3125 35.3125 167.121094 C 34.269531 167.46875 33.542969 167.519531 32.449219 167.40625 C 31.695312 166.785156 31.167969 166.277344 30.730469 165.40625 C 30.710938 164.726562 30.707031 164.042969 30.714844 163.363281 C 30.714844 163 30.71875 162.632812 30.722656 162.253906 C 30.726562 161.972656 30.726562 161.6875 30.730469 161.398438 C 30.546875 161.519531 30.359375 161.636719 30.164062 161.761719 C 28.425781 162.855469 27.085938 163.402344 26.152344 163.402344 C 25.148438 163.121094 24.527344 162.765625 23.863281 161.96875 C 23.492188 160.785156 23.402344 159.746094 23.953125 158.625 C 25.066406 157.664062 26.300781 156.957031 27.582031 156.246094 C 27.410156 156.132812 27.238281 156.023438 27.058594 155.910156 C 25.148438 154.664062 23.984375 153.628906 23.574219 152.808594 C 23.503906 151.699219 23.480469 150.867188 24.148438 149.949219 C 25.222656 149.113281 25.957031 148.976562 27.296875 149.089844 C 27.867188 149.339844 28.429688 149.625 28.980469 149.949219 C 29.253906 150.109375 29.53125 150.265625 29.816406 150.429688 C 30.023438 150.554688 30.234375 150.679688 30.445312 150.808594 C 30.457031 150.535156 30.46875 150.261719 30.476562 149.980469 C 30.496094 149.621094 30.515625 149.261719 30.535156 148.890625 C 30.550781 148.539062 30.566406 148.183594 30.585938 147.816406 C 30.738281 146.765625 30.953125 146.207031 31.589844 145.367188 C 32.644531 144.664062 33.515625 144.59375 34.738281 144.796875 Z M 127.441406 154.292969 C 130.804688 156.640625 133.867188 160.101562 134.632812 164.257812 C 134.644531 164.925781 134.648438 165.59375 134.632812 166.261719 C 134.921875 166.25 135.214844 166.234375 135.515625 166.222656 C 138.984375 166.109375 141.898438 166.511719 144.640625 168.84375 C 146.96875 171.113281 148.21875 173.480469 148.445312 176.746094 C 148.386719 179.546875 147.394531 181.945312 145.507812 184.007812 C 142.953125 186.160156 140.683594 186.90625 137.355469 186.910156 C 137.144531 186.910156 136.933594 186.910156 136.71875 186.910156 C 136.015625 186.914062 135.316406 186.914062 134.613281 186.914062 C 134.113281 186.914062 133.609375 186.914062 133.105469 186.914062 C 131.738281 186.917969 130.371094 186.917969 129.007812 186.917969 C 128.152344 186.917969 127.296875 186.917969 126.445312 186.921875 C 123.460938 186.921875 120.480469 186.925781 117.5 186.925781 C 114.722656 186.925781 111.945312 186.925781 109.167969 186.929688 C 106.785156 186.933594 104.398438 186.9375 102.011719 186.9375 C 100.585938 186.9375 99.164062 186.9375 97.738281 186.941406 C 96.398438 186.941406 95.058594 186.941406 93.71875 186.941406 C 93.230469 186.941406 92.738281 186.941406 92.25 186.941406 C 87.601562 186.957031 84.386719 186.105469 82.609375 184.378906 C 81.167969 182.777344 80.683594 181.460938 80.730469 179.304688 C 81.015625 177.015625 82.46875 175.59375 84.203125 174.207031 C 85.328125 173.589844 86.136719 173.507812 87.40625 173.417969 C 87.425781 173.230469 87.449219 173.042969 87.472656 172.851562 C 88.011719 169.09375 89.726562 166.042969 92.753906 163.777344 C 94.21875 162.789062 95.738281 162.183594 97.421875 161.683594 C 97.605469 161.628906 97.785156 161.570312 97.972656 161.511719 C 98.792969 161.351562 99.578125 161.359375 100.410156 161.359375 C 100.730469 161.359375 101.046875 161.359375 101.375 161.359375 C 102.195312 161.394531 102.925781 161.496094 103.722656 161.683594 C 103.816406 161.488281 103.910156 161.296875 104.007812 161.09375 C 106.09375 157.007812 109.007812 154.414062 113.285156 152.757812 C 118.171875 151.199219 123.007812 151.667969 127.441406 154.292969 Z M 127.441406 154.292969 " fill-opacity="1" fill-rule="nonzero"/></g></svg>