<svg xmlns="http://www.w3.org/2000/svg" xmlns:xlink="http://www.w3.org/1999/xlink" width="250" zoomAndPan="magnify" viewBox="0 0 187.5 187.499992" height="250" preserveAspectRatio="xMidYMid meet" version="1.0"><path fill="#215520" d="M 76.785156 54.707031 L 76.445312 54.257812 C 75.679688 53.226562 74.234375 53.023438 73.210938 53.800781 L 65.285156 59.714844 L 61.402344 57.515625 C 61.082031 57.34375 60.699219 57.375 60.402344 57.589844 L 54.445312 61.980469 C 54.136719 62.207031 53.988281 62.597656 54.105469 62.972656 L 55.296875 67.183594 L 46.804688 73.527344 C 45.785156 74.292969 45.570312 75.738281 46.347656 76.761719 L 46.679688 77.207031 C 47.445312 78.238281 48.890625 78.453125 49.921875 77.675781 L 76.308594 57.949219 C 77.328125 57.183594 77.53125 55.738281 76.777344 54.707031 Z M 56.890625 65.992188 L 56.050781 63.078125 L 61.03125 59.398438 L 63.679688 60.90625 L 56.882812 65.992188 Z M 56.890625 65.992188 " fill-opacity="1" fill-rule="nonzero"/><path fill="#215520" d="M 178.410156 99.421875 C 177.335938 99.175781 176.515625 98.28125 176.347656 97.1875 L 174.667969 86.71875 C 174.601562 86.355469 174.464844 86.015625 174.273438 85.707031 C 172.230469 82.441406 160.046875 63.207031 158.953125 63.109375 C 158.070312 63.035156 157.496094 61.875 157.238281 61.300781 C 157.144531 61.015625 156.984375 60.78125 156.8125 60.558594 C 154.996094 58.472656 145.8125 49.085938 129.683594 50.863281 C 127.960938 51.046875 126.886719 52.8125 127.429688 54.460938 C 128.226562 56.832031 128.972656 60.003906 127.875 61.535156 L 125.960938 64.183594 L 152.164062 62.046875 L 131.25 65.40625 C 129.757812 65.652344 128.769531 67.058594 129.003906 68.535156 L 129.246094 70.058594 C 129.363281 70.769531 129.183594 71.503906 128.746094 72.089844 L 134.503906 102.6875 L 42.644531 119.964844 C 42.613281 120.253906 42.625 120.539062 42.679688 120.835938 C 42.988281 122.496094 44.601562 123.59375 46.261719 123.285156 L 47.761719 122.996094 C 47.1875 123.59375 46.902344 124.433594 47.039062 125.316406 L 47.539062 128.433594 C 47.773438 129.902344 49.179688 130.914062 50.679688 130.679688 L 53.105469 130.285156 C 55.1875 134.328125 59.699219 136.765625 64.433594 136 C 69.167969 135.242188 72.679688 131.519531 73.371094 127.019531 L 140.429688 116.230469 C 142.527344 120.285156 147.035156 122.710938 151.75 121.945312 C 156.460938 121.1875 160.003906 117.453125 160.707031 112.964844 L 178.847656 110.050781 C 179.667969 109.910156 180.390625 109.421875 180.773438 108.71875 L 180.984375 108.390625 C 181.292969 107.835938 181.390625 107.21875 181.292969 106.59375 L 180.496094 101.625 C 180.316406 100.539062 179.507812 99.644531 178.421875 99.398438 Z M 70.085938 127.550781 C 69.265625 130.304688 66.925781 132.476562 63.925781 132.957031 C 60.902344 133.433594 58.019531 132.105469 56.382812 129.753906 C 55.730469 128.847656 55.273438 127.765625 55.09375 126.582031 C 54.804688 124.730469 55.167969 122.921875 56.09375 121.433594 C 56.167969 121.304688 56.242188 121.179688 56.328125 121.0625 C 56.433594 120.871094 56.574219 120.679688 56.742188 120.488281 C 57.539062 119.507812 58.582031 118.710938 59.785156 118.21875 C 60.328125 117.996094 60.882812 117.847656 61.464844 117.742188 C 63.65625 117.390625 65.785156 118.007812 67.402344 119.273438 C 67.414062 119.273438 67.425781 119.285156 67.425781 119.296875 C 68.925781 120.445312 69.988281 122.144531 70.296875 124.125 C 70.488281 125.316406 70.382812 126.488281 70.074219 127.550781 Z M 157.398438 113.507812 C 156.601562 116.261719 154.269531 118.433594 151.238281 118.910156 C 148.21875 119.402344 145.335938 118.0625 143.695312 115.710938 C 143.066406 114.792969 142.589844 113.71875 142.410156 112.539062 C 141.726562 108.347656 144.609375 104.378906 148.792969 103.707031 C 152.996094 103.027344 156.960938 105.910156 157.621094 110.09375 C 157.8125 111.285156 157.730469 112.453125 157.398438 113.519531 Z M 164.238281 87.347656 C 160.578125 87.824219 156.070312 88.484375 155.792969 88.878906 C 155.324219 89.546875 150.652344 84.835938 146.941406 84.835938 C 144.875 84.835938 141.640625 85.386719 139.183594 85.898438 C 137.28125 86.269531 135.449219 85.003906 135.140625 83.078125 L 133.429688 72.441406 C 133.132812 70.601562 134.367188 68.875 136.195312 68.546875 C 141.910156 67.546875 153.144531 65.601562 154.601562 65.640625 C 156.558594 65.738281 164.632812 77.121094 165.984375 79.429688 C 166.355469 80.058594 166.75 81.472656 167.121094 83.21875 C 167.546875 85.175781 166.230469 87.078125 164.238281 87.347656 Z M 164.238281 87.347656 " fill-opacity="1" fill-rule="nonzero"/><path fill="#215520" d="M 79.945312 73.066406 L 51.742188 78.378906 C 49.871094 78.726562 48.644531 80.527344 48.953125 82.378906 L 35.167969 84.972656 C 33.507812 85.28125 32.410156 86.898438 32.71875 88.558594 C 32.878906 89.386719 33.347656 90.082031 33.996094 90.527344 C 34.644531 90.964844 35.464844 91.15625 36.292969 91.003906 L 50.402344 88.355469 L 51.550781 93.015625 L 21.929688 98.589844 C 20.273438 98.898438 19.164062 100.507812 19.472656 102.167969 C 19.792969 103.835938 21.398438 104.933594 23.058594 104.625 L 41.421875 101.167969 C 42.785156 102.316406 43.828125 103.996094 42.316406 106.09375 L 34.230469 107.613281 C 32.570312 107.921875 31.476562 109.527344 31.785156 111.1875 C 32.09375 112.847656 33.699219 113.945312 35.359375 113.636719 L 52.433594 110.421875 C 52.433594 110.421875 56.1875 111.496094 53.636719 115.371094 C 53.710938 115.476562 53.804688 115.570312 53.890625 115.65625 L 87.363281 109.359375 C 87.414062 109.261719 87.480469 109.1875 87.5625 109.113281 C 87.96875 108.441406 88.160156 107.667969 88.0625 106.835938 L 87.660156 103.785156 L 86.863281 97.699219 L 84.789062 81.867188 L 84.019531 76.027344 C 84.011719 75.941406 84 75.855469 83.980469 75.769531 C 83.59375 73.929688 81.796875 72.707031 79.925781 73.058594 Z M 64.125 111.945312 L 63.742188 112.039062 C 62.507812 112.316406 61.285156 111.550781 60.988281 110.304688 L 56.765625 92.015625 L 55.6875 87.335938 L 54.847656 83.695312 C 54.5625 82.460938 55.328125 81.226562 56.5625 80.941406 L 56.957031 80.855469 C 58.191406 80.570312 59.414062 81.335938 59.699219 82.570312 L 60.59375 86.410156 L 61.667969 91.089844 L 65.851562 109.175781 C 66.136719 110.410156 65.371094 111.644531 64.125 111.921875 Z M 74.574219 107.675781 C 74.808594 108.921875 73.988281 110.125 72.734375 110.359375 L 72.351562 110.433594 C 71.105469 110.667969 69.902344 109.859375 69.667969 108.601562 L 64.625 81.769531 C 64.390625 80.527344 65.210938 79.324219 66.464844 79.089844 L 66.851562 79.015625 C 68.09375 78.78125 69.296875 79.601562 69.53125 80.855469 L 74.574219 107.6875 Z M 79.882812 82.792969 L 80.585938 87.589844 L 81.457031 93.589844 L 82.179688 98.570312 L 83.074219 104.632812 L 83.289062 106.101562 C 83.46875 107.359375 82.59375 108.527344 81.339844 108.71875 L 80.957031 108.761719 C 79.691406 108.953125 78.53125 108.082031 78.351562 106.824219 L 78.167969 105.558594 L 77.277344 99.496094 L 76.5625 94.539062 L 75.667969 88.464844 L 74.976562 83.71875 L 74.414062 79.8125 C 74.234375 78.558594 75.105469 77.398438 76.359375 77.21875 L 76.742188 77.152344 C 78.011719 76.972656 79.179688 77.835938 79.359375 79.101562 L 79.894531 82.792969 Z M 79.882812 82.792969 " fill-opacity="1" fill-rule="nonzero"/><path fill="#215520" d="M 128.34375 94.761719 L 127.417969 94.910156 L 120.046875 55.726562 L 115.300781 56.621094 C 115.300781 56.621094 115.566406 58.652344 115.992188 61.824219 L 107.492188 63.300781 L 105.023438 59.589844 C 104.820312 59.289062 104.457031 59.152344 104.097656 59.207031 L 96.796875 60.429688 C 96.414062 60.492188 96.117188 60.769531 96.042969 61.164062 L 95.214844 65.460938 L 84.765625 67.292969 C 83.519531 67.515625 82.671875 68.71875 82.902344 69.972656 L 83 70.503906 C 83.222656 71.769531 84.402344 72.621094 85.679688 72.386719 L 86.042969 72.324219 C 85.074219 73.089844 84.53125 74.335938 84.753906 75.621094 C 84.753906 75.707031 84.789062 75.792969 84.796875 75.878906 L 86.203125 81.601562 L 90.023438 97.101562 L 91.480469 103.058594 L 92.222656 106.050781 C 92.4375 106.902344 92.949219 107.59375 93.617188 108.058594 C 93.648438 108.09375 93.679688 108.125 93.722656 108.15625 L 131.632812 101.027344 L 130.492188 93.015625 C 130.164062 93.898438 129.375 94.601562 128.363281 94.761719 Z M 99.925781 105.207031 L 99.542969 105.304688 C 98.308594 105.582031 97.085938 104.816406 96.789062 103.570312 L 95.9375 99.878906 C 95.957031 99.632812 95.9375 99.367188 95.894531 99.113281 C 95.832031 98.761719 95.703125 98.441406 95.53125 98.15625 L 91.480469 80.613281 L 90.640625 76.972656 C 90.351562 75.738281 91.117188 74.503906 92.351562 74.21875 L 92.746094 74.132812 C 93.980469 73.84375 95.203125 74.609375 95.488281 75.84375 L 96.203125 78.941406 L 101.640625 102.453125 C 101.925781 103.6875 101.160156 104.921875 99.917969 105.199219 Z M 110.363281 100.941406 C 110.597656 102.1875 109.777344 103.390625 108.523438 103.625 L 108.140625 103.699219 C 106.894531 103.933594 105.691406 103.125 105.457031 101.867188 L 100.417969 75.035156 C 100.183594 73.792969 101 72.589844 102.257812 72.355469 L 102.640625 72.28125 C 103.882812 72.046875 105.085938 72.867188 105.320312 74.121094 L 110.363281 100.953125 Z M 97.148438 65.121094 L 97.714844 62.152344 L 103.820312 61.121094 L 105.511719 63.664062 Z M 119.078125 99.378906 C 119.164062 99.984375 119.011719 100.558594 118.683594 101.027344 C 118.34375 101.527344 117.789062 101.898438 117.128906 101.996094 L 116.746094 102.039062 C 116.035156 102.144531 115.351562 101.910156 114.863281 101.464844 C 114.480469 101.125 114.214844 100.644531 114.140625 100.101562 L 110.203125 73.078125 C 110.023438 71.824219 110.894531 70.664062 112.152344 70.484375 L 112.535156 70.417969 C 113.800781 70.238281 114.96875 71.101562 115.152344 72.367188 L 119.085938 99.378906 Z M 119.078125 99.378906 " fill-opacity="1" fill-rule="nonzero"/><path fill="#215520" d="M 13.8125 95.21875 L 23.304688 93.429688 C 24.964844 93.121094 26.058594 91.515625 25.75 89.847656 C 25.441406 88.175781 23.835938 87.078125 22.164062 87.398438 L 12.675781 89.1875 C 11.015625 89.496094 9.921875 91.101562 10.230469 92.773438 C 10.539062 94.429688 12.144531 95.527344 13.8125 95.21875 Z M 13.8125 95.21875 " fill-opacity="1" fill-rule="nonzero"/><path fill="#215520" d="M 12.28125 100.390625 L 2.792969 102.175781 C 1.132812 102.484375 0.0351562 104.09375 0.34375 105.761719 C 0.652344 107.421875 2.261719 108.519531 3.929688 108.210938 L 13.421875 106.421875 C 15.078125 106.113281 16.175781 104.507812 15.867188 102.835938 C 15.558594 101.167969 13.953125 100.082031 12.28125 100.390625 Z M 12.28125 100.390625 " fill-opacity="1" fill-rule="nonzero"/><path fill="#215520" d="M 35.601562 119.039062 L 26.113281 120.828125 C 24.453125 121.136719 23.355469 122.742188 23.664062 124.414062 C 23.972656 126.070312 25.582031 127.167969 27.25 126.859375 L 36.742188 125.070312 C 38.402344 124.761719 39.496094 123.15625 39.1875 121.488281 C 38.878906 119.816406 37.273438 118.71875 35.601562 119.039062 Z M 35.601562 119.039062 " fill-opacity="1" fill-rule="nonzero"/><path fill="#215520" d="M 186.964844 136.0625 C 186.964844 136.121094 186.828125 136.183594 186.550781 136.242188 C 186.277344 136.304688 185.863281 136.363281 185.316406 136.421875 C 184.769531 136.484375 184.085938 136.542969 183.269531 136.601562 C 182.457031 136.65625 181.511719 136.714844 180.433594 136.769531 C 179.359375 136.828125 178.160156 136.882812 176.835938 136.933594 C 175.511719 136.988281 174.070312 137.039062 172.507812 137.089844 C 170.945312 137.140625 169.277344 137.191406 167.492188 137.238281 C 165.710938 137.285156 163.828125 137.328125 161.839844 137.371094 C 159.851562 137.414062 157.773438 137.453125 155.601562 137.492188 C 153.429688 137.53125 151.175781 137.566406 148.839844 137.601562 C 146.503906 137.636719 144.097656 137.667969 141.621094 137.695312 C 139.140625 137.722656 136.605469 137.75 134.007812 137.773438 C 131.414062 137.796875 128.773438 137.816406 126.082031 137.832031 C 123.394531 137.851562 120.671875 137.867188 117.917969 137.878906 C 115.160156 137.890625 112.386719 137.898438 109.589844 137.90625 C 106.792969 137.910156 103.992188 137.914062 101.183594 137.914062 C 98.371094 137.914062 95.570312 137.910156 92.773438 137.90625 C 89.976562 137.898438 87.203125 137.890625 84.445312 137.878906 C 81.691406 137.867188 78.96875 137.851562 76.28125 137.832031 C 73.59375 137.816406 70.949219 137.796875 68.355469 137.773438 C 65.757812 137.75 63.222656 137.722656 60.746094 137.695312 C 58.265625 137.667969 55.859375 137.636719 53.523438 137.601562 C 51.1875 137.566406 48.933594 137.53125 46.761719 137.492188 C 44.589844 137.453125 42.511719 137.414062 40.523438 137.371094 C 38.539062 137.328125 36.652344 137.285156 34.871094 137.238281 C 33.089844 137.191406 31.417969 137.140625 29.855469 137.089844 C 28.296875 137.039062 26.851562 136.988281 25.527344 136.933594 C 24.203125 136.882812 23.003906 136.828125 21.929688 136.769531 C 20.855469 136.714844 19.910156 136.65625 19.09375 136.601562 C 18.277344 136.542969 17.59375 136.484375 17.046875 136.421875 C 16.5 136.363281 16.085938 136.304688 15.8125 136.242188 C 15.535156 136.183594 15.398438 136.121094 15.398438 136.0625 C 15.398438 136 15.535156 135.941406 15.8125 135.878906 C 16.085938 135.820312 16.5 135.761719 17.046875 135.699219 C 17.59375 135.640625 18.277344 135.582031 19.09375 135.523438 C 19.910156 135.46875 20.855469 135.410156 21.929688 135.355469 C 23.003906 135.296875 24.203125 135.242188 25.527344 135.191406 C 26.851562 135.136719 28.296875 135.085938 29.855469 135.035156 C 31.417969 134.984375 33.089844 134.933594 34.871094 134.886719 C 36.652344 134.839844 38.539062 134.796875 40.523438 134.753906 C 42.511719 134.710938 44.589844 134.667969 46.761719 134.632812 C 48.933594 134.59375 51.1875 134.558594 53.523438 134.523438 C 55.859375 134.488281 58.265625 134.457031 60.746094 134.429688 C 63.222656 134.402344 65.757812 134.375 68.355469 134.351562 C 70.949219 134.328125 73.59375 134.308594 76.28125 134.289062 C 78.96875 134.273438 81.691406 134.257812 84.445312 134.246094 C 87.203125 134.234375 89.976562 134.226562 92.773438 134.21875 C 95.570312 134.214844 98.371094 134.210938 101.183594 134.210938 C 103.992188 134.210938 106.792969 134.214844 109.589844 134.21875 C 112.386719 134.226562 115.160156 134.234375 117.917969 134.246094 C 120.671875 134.257812 123.394531 134.273438 126.082031 134.289062 C 128.773438 134.308594 131.414062 134.328125 134.007812 134.351562 C 136.605469 134.375 139.140625 134.402344 141.621094 134.429688 C 144.097656 134.457031 146.503906 134.488281 148.839844 134.523438 C 151.175781 134.558594 153.429688 134.59375 155.601562 134.632812 C 157.773438 134.667969 159.851562 134.710938 161.839844 134.753906 C 163.828125 134.796875 165.710938 134.839844 167.492188 134.886719 C 169.277344 134.933594 170.945312 134.984375 172.507812 135.035156 C 174.070312 135.085938 175.511719 135.136719 176.835938 135.191406 C 178.160156 135.242188 179.359375 135.296875 180.433594 135.355469 C 181.511719 135.410156 182.457031 135.46875 183.269531 135.523438 C 184.085938 135.582031 184.769531 135.640625 185.316406 135.699219 C 185.863281 135.761719 186.277344 135.820312 186.550781 135.878906 C 186.828125 135.941406 186.964844 136 186.964844 136.0625 Z M 186.964844 136.0625 " fill-opacity="1" fill-rule="nonzero"/></svg>