<svg xmlns="http://www.w3.org/2000/svg" xmlns:xlink="http://www.w3.org/1999/xlink" width="250" zoomAndPan="magnify" viewBox="0 0 187.5 187.499992" height="250" preserveAspectRatio="xMidYMid meet" version="1.0"><defs><clipPath id="2ac3af6a0d"><path d="M 0 18.699219 L 187 18.699219 L 187 163.066406 L 0 163.066406 Z M 0 18.699219 " clip-rule="nonzero"/></clipPath></defs><g clip-path="url(#2ac3af6a0d)"><path fill="#215520" d="M 181.53125 59.957031 C 181.921875 59.945312 182.304688 59.890625 182.679688 59.796875 C 183.058594 59.699219 183.417969 59.5625 183.765625 59.386719 C 184.113281 59.210938 184.4375 59 184.738281 58.753906 C 185.039062 58.503906 185.308594 58.226562 185.546875 57.921875 C 185.785156 57.613281 185.988281 57.285156 186.152344 56.933594 C 186.320312 56.582031 186.445312 56.214844 186.53125 55.835938 C 186.617188 55.457031 186.660156 55.070312 186.660156 54.683594 C 186.660156 54.292969 186.617188 53.910156 186.535156 53.527344 L 178.796875 22.835938 C 178.6875 22.25 178.484375 21.695312 178.179688 21.179688 C 177.878906 20.664062 177.5 20.214844 177.039062 19.828125 C 176.582031 19.445312 176.070312 19.152344 175.511719 18.945312 C 174.949219 18.738281 174.367188 18.632812 173.769531 18.628906 L 141.769531 18.628906 L 150.046875 59.957031 Z M 88.289062 18.628906 L 55.75 18.628906 L 47.453125 59.957031 L 88.289062 59.957031 Z M 131.203125 18.628906 L 98.667969 18.628906 L 98.667969 59.957031 L 139.480469 59.957031 Z M 5.421875 59.957031 L 36.910156 59.957031 L 45.183594 18.628906 L 13.183594 18.628906 C 12.609375 18.632812 12.050781 18.730469 11.511719 18.914062 C 10.96875 19.101562 10.46875 19.371094 10.015625 19.722656 C 9.5625 20.070312 9.175781 20.484375 8.859375 20.964844 C 8.539062 21.441406 8.304688 21.957031 8.15625 22.511719 L 0.421875 53.226562 C 0.3125 53.613281 0.253906 54.011719 0.238281 54.414062 C 0.21875 54.820312 0.25 55.21875 0.324219 55.617188 C 0.398438 56.011719 0.519531 56.398438 0.679688 56.765625 C 0.839844 57.136719 1.042969 57.484375 1.285156 57.808594 C 1.523438 58.132812 1.800781 58.425781 2.105469 58.6875 C 2.414062 58.949219 2.746094 59.171875 3.105469 59.359375 C 3.464844 59.546875 3.839844 59.6875 4.230469 59.789062 C 4.621094 59.890625 5.019531 59.945312 5.421875 59.957031 Z M 181.53125 80.597656 L 175.035156 80.597656 L 176.390625 70.265625 L 10.636719 70.265625 L 11.898438 80.597656 L 5.421875 80.597656 C 5.085938 80.601562 4.753906 80.636719 4.421875 80.703125 C 4.09375 80.773438 3.773438 80.871094 3.460938 81 C 3.152344 81.132812 2.855469 81.289062 2.578125 81.476562 C 2.296875 81.667969 2.039062 81.878906 1.800781 82.117188 C 1.5625 82.355469 1.347656 82.613281 1.160156 82.894531 C 0.972656 83.171875 0.816406 83.46875 0.683594 83.78125 C 0.554688 84.089844 0.453125 84.410156 0.386719 84.738281 C 0.320312 85.070312 0.285156 85.402344 0.28125 85.738281 L 0.28125 96.046875 C 0.28125 96.386719 0.3125 96.722656 0.378906 97.058594 C 0.445312 97.390625 0.542969 97.714844 0.671875 98.027344 C 0.800781 98.339844 0.957031 98.640625 1.144531 98.921875 C 1.332031 99.207031 1.542969 99.46875 1.78125 99.710938 C 2.019531 99.953125 2.28125 100.167969 2.5625 100.359375 C 2.839844 100.550781 3.136719 100.710938 3.449219 100.84375 C 3.761719 100.976562 4.085938 101.078125 4.417969 101.148438 C 4.75 101.21875 5.082031 101.257812 5.421875 101.261719 L 14.515625 101.261719 L 21.039062 152.898438 L 21.039062 158.015625 C 21.039062 158.355469 21.070312 158.691406 21.136719 159.023438 C 21.203125 159.359375 21.300781 159.679688 21.425781 159.996094 C 21.554688 160.308594 21.714844 160.605469 21.902344 160.890625 C 22.089844 161.171875 22.300781 161.4375 22.539062 161.675781 C 22.777344 161.917969 23.039062 162.136719 23.316406 162.324219 C 23.597656 162.515625 23.894531 162.679688 24.207031 162.8125 C 24.519531 162.945312 24.839844 163.046875 25.171875 163.117188 C 25.503906 163.1875 25.839844 163.222656 26.179688 163.230469 L 36.558594 163.230469 C 36.902344 163.230469 37.238281 163.195312 37.574219 163.128906 C 37.910156 163.0625 38.238281 162.964844 38.554688 162.832031 C 38.871094 162.699219 39.171875 162.539062 39.453125 162.351562 C 39.738281 162.160156 40.003906 161.945312 40.246094 161.703125 C 40.488281 161.460938 40.703125 161.195312 40.894531 160.910156 C 41.082031 160.628906 41.242188 160.328125 41.375 160.011719 C 41.503906 159.695312 41.605469 159.367188 41.671875 159.03125 C 41.738281 158.699219 41.769531 158.359375 41.769531 158.015625 L 41.769531 152.898438 L 145.300781 152.898438 L 145.300781 158.015625 C 145.300781 158.355469 145.332031 158.691406 145.398438 159.023438 C 145.464844 159.359375 145.5625 159.679688 145.691406 159.996094 C 145.820312 160.308594 145.976562 160.605469 146.164062 160.890625 C 146.351562 161.171875 146.5625 161.4375 146.800781 161.675781 C 147.039062 161.917969 147.300781 162.136719 147.582031 162.324219 C 147.859375 162.515625 148.15625 162.679688 148.46875 162.8125 C 148.78125 162.945312 149.105469 163.046875 149.4375 163.117188 C 149.769531 163.1875 150.101562 163.222656 150.441406 163.230469 L 160.796875 163.230469 C 161.136719 163.226562 161.476562 163.191406 161.808594 163.121094 C 162.140625 163.050781 162.464844 162.949219 162.777344 162.820312 C 163.089844 162.6875 163.390625 162.523438 163.671875 162.335938 C 163.953125 162.144531 164.214844 161.925781 164.453125 161.6875 C 164.691406 161.445312 164.90625 161.179688 165.09375 160.898438 C 165.28125 160.613281 165.441406 160.316406 165.570312 160 C 165.699219 159.683594 165.796875 159.359375 165.863281 159.027344 C 165.929688 158.695312 165.964844 158.355469 165.964844 158.015625 L 165.964844 152.898438 L 172.507812 101.261719 L 181.53125 101.261719 C 181.875 101.261719 182.210938 101.226562 182.546875 101.160156 C 182.882812 101.09375 183.210938 100.996094 183.527344 100.863281 C 183.84375 100.734375 184.144531 100.574219 184.425781 100.382812 C 184.710938 100.191406 184.976562 99.976562 185.21875 99.734375 C 185.460938 99.492188 185.675781 99.230469 185.867188 98.945312 C 186.054688 98.660156 186.214844 98.359375 186.347656 98.042969 C 186.476562 97.726562 186.578125 97.402344 186.644531 97.066406 C 186.710938 96.730469 186.746094 96.390625 186.746094 96.046875 L 186.746094 85.738281 C 186.738281 85.402344 186.703125 85.066406 186.632812 84.734375 C 186.5625 84.402344 186.460938 84.078125 186.328125 83.765625 C 186.195312 83.453125 186.03125 83.160156 185.839844 82.878906 C 185.652344 82.597656 185.433594 82.335938 185.191406 82.097656 C 184.953125 81.859375 184.6875 81.648438 184.40625 81.460938 C 184.121094 81.273438 183.824219 81.117188 183.511719 80.988281 C 183.195312 80.859375 182.871094 80.761719 182.539062 80.695312 C 182.207031 80.628906 181.871094 80.597656 181.53125 80.597656 Z M 181.53125 80.597656 " fill-opacity="1" fill-rule="evenodd"/></g></svg>