<svg xmlns="http://www.w3.org/2000/svg" xmlns:xlink="http://www.w3.org/1999/xlink" width="250" zoomAndPan="magnify" viewBox="0 0 187.5 187.499992" height="250" preserveAspectRatio="xMidYMid meet" version="1.0"><defs><clipPath id="4e825b4718"><path d="M 7.050781 6.542969 L 66 6.542969 L 66 74.609375 L 7.050781 74.609375 Z M 7.050781 6.542969 " clip-rule="nonzero"/></clipPath><clipPath id="e390ac9d42"><path d="M 116.726562 30.199219 L 166.097656 30.199219 L 166.097656 87.050781 L 116.726562 87.050781 Z M 116.726562 30.199219 " clip-rule="nonzero"/></clipPath><clipPath id="02e0b37350"><path d="M 50 83 L 137 83 L 137 180.269531 L 50 180.269531 Z M 50 83 " clip-rule="nonzero"/></clipPath><clipPath id="18c786474a"><path d="M 31.554688 62.832031 L 155.722656 62.832031 L 155.722656 125 L 31.554688 125 Z M 31.554688 62.832031 " clip-rule="nonzero"/></clipPath><clipPath id="19d0c04e4e"><path d="M 73.644531 2.359375 L 109.550781 2.359375 L 109.550781 43.5 L 73.644531 43.5 Z M 73.644531 2.359375 " clip-rule="nonzero"/></clipPath></defs><g clip-path="url(#4e825b4718)"><path fill="#215520" d="M 65.910156 23.535156 L 63.363281 22.070312 L 56.6875 25.917969 L 56.6875 20.773438 L 54.136719 19.292969 L 51.589844 20.773438 L 51.589844 28.863281 L 39.027344 36.128906 L 39.027344 21.613281 L 46.050781 17.566406 L 46.050781 14.625 L 43.5 13.160156 L 39.027344 15.726562 L 39.027344 8.03125 L 36.480469 6.550781 L 33.933594 8.03125 L 33.933594 15.726562 L 29.460938 13.160156 L 26.910156 14.625 L 26.910156 17.566406 L 33.933594 21.613281 L 33.933594 36.128906 L 21.371094 28.863281 L 21.371094 20.773438 L 18.824219 19.292969 L 16.273438 20.773438 L 16.273438 25.917969 L 9.597656 22.070312 L 7.050781 23.535156 L 7.050781 26.476562 L 13.726562 30.339844 L 9.253906 32.921875 L 9.253906 35.867188 L 11.800781 37.328125 L 18.824219 33.285156 L 31.382812 40.535156 L 18.824219 47.785156 L 11.800781 43.742188 L 9.253906 45.203125 L 9.253906 48.148438 L 13.726562 50.730469 L 7.050781 54.59375 L 7.050781 57.519531 L 9.597656 59 L 16.273438 55.136719 L 16.273438 60.296875 L 18.824219 61.777344 L 21.371094 60.296875 L 21.371094 52.207031 L 33.933594 44.941406 L 33.933594 59.457031 L 26.910156 63.503906 L 26.910156 66.445312 L 29.460938 67.910156 L 33.933594 65.34375 L 33.933594 73.039062 L 36.480469 74.519531 L 39.027344 73.039062 L 39.027344 65.34375 L 43.5 67.910156 L 46.050781 66.445312 L 46.050781 63.503906 L 39.027344 59.457031 L 39.027344 44.941406 L 51.589844 52.207031 L 51.589844 60.296875 L 54.136719 61.777344 L 56.6875 60.296875 L 56.6875 55.136719 L 63.363281 59 L 65.910156 57.519531 L 65.910156 54.59375 L 59.234375 50.730469 L 63.707031 48.148438 L 63.707031 45.203125 L 61.160156 43.742188 L 54.136719 47.785156 L 41.578125 40.535156 L 54.136719 33.285156 L 61.160156 37.328125 L 63.707031 35.867188 L 63.707031 32.921875 L 59.234375 30.339844 L 65.910156 26.476562 Z M 65.910156 23.535156 " fill-opacity="1" fill-rule="evenodd"/></g><g clip-path="url(#e390ac9d42)"><path fill="#215520" d="M 166.09375 44.453125 L 163.957031 43.226562 L 158.359375 46.453125 L 158.359375 42.136719 L 156.222656 40.894531 L 154.085938 42.136719 L 154.085938 48.921875 L 143.546875 55.015625 L 143.546875 42.839844 L 149.4375 39.445312 L 149.4375 36.980469 L 147.300781 35.75 L 143.546875 37.902344 L 143.546875 31.449219 L 141.410156 30.207031 L 139.273438 31.449219 L 139.273438 37.902344 L 135.523438 35.75 L 133.386719 36.980469 L 133.386719 39.445312 L 139.273438 42.839844 L 139.273438 55.015625 L 128.738281 48.921875 L 128.738281 42.136719 L 126.601562 40.894531 L 124.464844 42.136719 L 124.464844 46.453125 L 118.863281 43.226562 L 116.726562 44.453125 L 116.726562 46.921875 L 122.324219 50.160156 L 118.574219 52.328125 L 118.574219 54.796875 L 120.710938 56.023438 L 126.601562 52.628906 L 137.136719 58.710938 L 126.601562 64.792969 L 120.710938 61.402344 L 118.574219 62.628906 L 118.574219 65.097656 L 122.324219 67.261719 L 116.726562 70.503906 L 116.726562 72.957031 L 118.863281 74.199219 L 124.464844 70.957031 L 124.464844 75.289062 L 126.601562 76.527344 L 128.738281 75.289062 L 128.738281 68.503906 L 139.273438 62.40625 L 139.273438 74.585938 L 133.386719 77.976562 L 133.386719 80.445312 L 135.523438 81.671875 L 139.273438 79.519531 L 139.273438 85.976562 L 141.410156 87.214844 L 143.546875 85.976562 L 143.546875 79.519531 L 147.300781 81.671875 L 149.4375 80.445312 L 149.4375 77.976562 L 143.546875 74.585938 L 143.546875 62.40625 L 154.085938 68.503906 L 154.085938 75.289062 L 156.222656 76.527344 L 158.359375 75.289062 L 158.359375 70.957031 L 163.957031 74.199219 L 166.09375 72.957031 L 166.09375 70.503906 L 160.496094 67.261719 L 164.246094 65.097656 L 164.246094 62.628906 L 162.109375 61.402344 L 156.222656 64.792969 L 145.6875 58.710938 L 156.222656 52.628906 L 162.109375 56.023438 L 164.246094 54.796875 L 164.246094 52.328125 L 160.496094 50.160156 L 166.09375 46.921875 Z M 166.09375 44.453125 " fill-opacity="1" fill-rule="evenodd"/></g><g clip-path="url(#02e0b37350)"><path fill="#215520" d="M 136.992188 122.421875 Z M 136.992188 122.421875 L 93.511719 83.914062 L 50.003906 122.4375 L 50.003906 177.484375 C 50.003906 178.902344 51.152344 180.042969 52.574219 180.042969 L 79.765625 180.042969 L 79.765625 155.910156 C 79.765625 154.488281 80.90625 153.339844 82.328125 153.339844 L 104.667969 153.339844 C 106.089844 153.339844 107.230469 154.488281 107.230469 155.910156 L 107.230469 180.042969 L 134.425781 180.042969 C 135.847656 180.042969 136.988281 178.902344 136.988281 177.484375 L 136.988281 122.417969 Z M 50.003906 122.4375 Z M 50.003906 122.4375 " fill-opacity="1" fill-rule="nonzero"/></g><g clip-path="url(#18c786474a)"><path fill="#215520" d="M 93.257812 62.839844 L 31.554688 117.472656 L 38.054688 124.808594 L 93.511719 75.699219 L 148.953125 124.808594 L 155.441406 117.472656 L 93.75 62.839844 L 93.511719 63.117188 Z M 93.257812 62.839844 " fill-opacity="1" fill-rule="nonzero"/></g><path fill="#215520" d="M 50.003906 70.703125 L 65.648438 70.703125 L 65.511719 79.96875 L 50.003906 93.976562 Z M 50.003906 70.703125 " fill-opacity="1" fill-rule="nonzero"/><g clip-path="url(#19d0c04e4e)"><path fill="#215520" d="M 109.246094 12.632812 L 107.703125 11.75 L 103.667969 14.078125 L 103.667969 10.964844 L 102.125 10.070312 L 100.582031 10.964844 L 100.582031 15.855469 L 92.984375 20.25 L 92.984375 11.472656 L 97.234375 9.023438 L 97.234375 7.246094 L 95.691406 6.359375 L 92.984375 7.910156 L 92.984375 3.257812 L 91.445312 2.363281 L 89.902344 3.257812 L 89.902344 7.910156 L 87.199219 6.359375 L 85.65625 7.246094 L 85.65625 9.023438 L 89.902344 11.472656 L 89.902344 20.25 L 82.304688 15.855469 L 82.304688 10.964844 L 80.765625 10.070312 L 79.222656 10.964844 L 79.222656 14.078125 L 75.1875 11.75 L 73.644531 12.632812 L 73.644531 14.414062 L 77.683594 16.75 L 74.976562 18.3125 L 74.976562 20.09375 L 76.519531 20.976562 L 80.765625 18.53125 L 88.363281 22.917969 L 80.765625 27.300781 L 76.519531 24.855469 L 74.976562 25.742188 L 74.976562 27.519531 L 77.683594 29.082031 L 73.644531 31.417969 L 73.644531 33.1875 L 75.1875 34.085938 L 79.222656 31.746094 L 79.222656 34.871094 L 80.765625 35.765625 L 82.304688 34.871094 L 82.304688 29.976562 L 89.902344 25.582031 L 89.902344 34.363281 L 85.65625 36.808594 L 85.65625 38.589844 L 87.199219 39.472656 L 89.902344 37.921875 L 89.902344 42.578125 L 91.445312 43.472656 L 92.984375 42.578125 L 92.984375 37.921875 L 95.691406 39.472656 L 97.234375 38.589844 L 97.234375 36.808594 L 92.984375 34.363281 L 92.984375 25.582031 L 100.582031 29.976562 L 100.582031 34.871094 L 102.125 35.765625 L 103.667969 34.871094 L 103.667969 31.746094 L 107.703125 34.085938 L 109.246094 33.1875 L 109.246094 31.417969 L 105.207031 29.082031 L 107.914062 27.519531 L 107.914062 25.742188 L 106.371094 24.855469 L 102.125 27.300781 L 94.527344 22.917969 L 102.125 18.53125 L 106.371094 20.976562 L 107.914062 20.09375 L 107.914062 18.3125 L 105.207031 16.75 L 109.246094 14.414062 Z M 109.246094 12.632812 " fill-opacity="1" fill-rule="evenodd"/></g></svg>