<svg xmlns="http://www.w3.org/2000/svg" xmlns:xlink="http://www.w3.org/1999/xlink" width="250" zoomAndPan="magnify" viewBox="0 0 187.5 187.499992" height="250" preserveAspectRatio="xMidYMid meet" version="1.0"><path fill="#215520" d="M 186.84375 46.191406 C 186.808594 46.59375 186.707031 46.972656 186.53125 47.332031 C 186.355469 47.695312 186.117188 48.011719 185.824219 48.28125 C 185.527344 48.554688 185.195312 48.761719 184.820312 48.90625 C 184.445312 49.054688 184.058594 49.125 183.65625 49.125 L 183.402344 49.125 L 168.554688 48.105469 C 168.132812 48.070312 167.734375 47.957031 167.355469 47.765625 C 166.980469 47.570312 166.652344 47.3125 166.378906 46.992188 C 166.101562 46.667969 165.902344 46.304688 165.769531 45.902344 C 165.640625 45.5 165.589844 45.085938 165.625 44.664062 C 165.660156 44.242188 165.773438 43.839844 165.964844 43.464844 C 166.15625 43.085938 166.414062 42.761719 166.738281 42.484375 C 167.0625 42.210938 167.425781 42.007812 167.828125 41.878906 C 168.230469 41.746094 168.644531 41.699219 169.066406 41.734375 L 183.910156 42.878906 C 184.324219 42.914062 184.710938 43.019531 185.082031 43.203125 C 185.449219 43.390625 185.773438 43.636719 186.046875 43.945312 C 186.320312 44.253906 186.523438 44.601562 186.660156 44.992188 C 186.800781 45.378906 186.859375 45.78125 186.84375 46.191406 Z M 158.710938 32.175781 C 158.945312 32.53125 159.234375 32.828125 159.585938 33.070312 C 159.933594 33.308594 160.316406 33.472656 160.734375 33.558594 C 161.148438 33.648438 161.566406 33.648438 161.984375 33.570312 C 162.398438 33.492188 162.785156 33.332031 163.140625 33.097656 L 177.285156 23.828125 C 177.644531 23.605469 177.949219 23.320312 178.195312 22.976562 C 178.441406 22.632812 178.613281 22.253906 178.707031 21.84375 C 178.804688 21.429688 178.816406 21.015625 178.746094 20.597656 C 178.675781 20.179688 178.527344 19.792969 178.304688 19.433594 C 178.070312 19.082031 177.78125 18.792969 177.429688 18.558594 C 177.082031 18.324219 176.703125 18.164062 176.289062 18.082031 C 175.878906 18 175.464844 17.996094 175.054688 18.074219 C 174.640625 18.15625 174.257812 18.308594 173.90625 18.539062 L 159.636719 27.875 C 159.296875 28.105469 159.011719 28.390625 158.785156 28.730469 C 158.554688 29.070312 158.398438 29.441406 158.3125 29.839844 C 158.226562 30.242188 158.21875 30.644531 158.289062 31.046875 C 158.355469 31.449219 158.496094 31.828125 158.710938 32.175781 Z M 149.886719 20.546875 C 150.226562 20.671875 150.578125 20.734375 150.9375 20.738281 C 151.269531 20.738281 151.59375 20.683594 151.90625 20.582031 C 152.222656 20.476562 152.515625 20.328125 152.78125 20.132812 C 153.050781 19.941406 153.285156 19.710938 153.480469 19.441406 C 153.675781 19.175781 153.828125 18.886719 153.933594 18.574219 L 158.777344 4.492188 C 158.929688 4.089844 159.003906 3.671875 158.988281 3.238281 C 158.972656 2.804688 158.875 2.394531 158.691406 2 C 158.507812 1.609375 158.257812 1.269531 157.933594 0.980469 C 157.613281 0.6875 157.25 0.472656 156.839844 0.332031 C 156.429688 0.191406 156.011719 0.136719 155.578125 0.167969 C 155.148438 0.199219 154.738281 0.3125 154.351562 0.507812 C 153.96875 0.707031 153.636719 0.96875 153.359375 1.300781 C 153.082031 1.632812 152.878906 2.007812 152.753906 2.421875 L 147.914062 16.503906 C 147.777344 16.902344 147.71875 17.3125 147.746094 17.734375 C 147.773438 18.152344 147.878906 18.554688 148.0625 18.933594 C 148.25 19.3125 148.5 19.640625 148.816406 19.921875 C 149.132812 20.203125 149.488281 20.410156 149.886719 20.546875 Z M 129.308594 59.507812 C 129.90625 60.429688 130.734375 61.035156 131.792969 61.324219 L 146.480469 65.433594 C 146.910156 65.558594 147.351562 65.613281 147.800781 65.601562 C 148.25 65.59375 148.6875 65.511719 149.113281 65.367188 C 149.539062 65.222656 149.933594 65.015625 150.296875 64.75 C 150.660156 64.484375 150.972656 64.167969 151.238281 63.804688 C 151.503906 63.441406 151.710938 63.046875 151.855469 62.621094 C 152 62.195312 152.074219 61.757812 152.085938 61.308594 C 152.097656 60.859375 152.039062 60.417969 151.914062 59.988281 C 151.789062 59.554688 151.601562 59.152344 151.351562 58.777344 L 131.472656 28.480469 C 131.230469 28.105469 130.933594 27.777344 130.585938 27.496094 C 130.242188 27.210938 129.859375 26.984375 129.445312 26.820312 C 129.03125 26.652344 128.601562 26.550781 128.15625 26.515625 C 127.707031 26.476562 127.269531 26.507812 126.832031 26.609375 C 126.394531 26.707031 125.984375 26.867188 125.597656 27.09375 C 125.210938 27.316406 124.863281 27.59375 124.5625 27.921875 C 124.261719 28.253906 124.015625 28.621094 123.824219 29.023438 C 123.632812 29.429688 123.507812 29.851562 123.445312 30.296875 L 121.34375 45.394531 C 121.164062 46.542969 121.386719 47.605469 122.011719 48.582031 Z M 51.164062 102.867188 C 52.335938 104.652344 53.207031 106.574219 53.773438 108.632812 L 123.859375 62.664062 L 116.757812 52.214844 L 46.671875 98.152344 C 48.421875 99.480469 49.917969 101.050781 51.164062 102.867188 Z M 11.628906 178.878906 C 12.125 179.636719 12.691406 180.335938 13.328125 180.980469 C 13.964844 181.628906 14.65625 182.207031 15.40625 182.714844 C 16.152344 183.226562 16.945312 183.65625 17.78125 184.011719 C 18.613281 184.363281 19.476562 184.632812 20.363281 184.820312 C 21.25 185.003906 22.144531 185.101562 23.050781 185.109375 C 23.957031 185.117188 24.855469 185.039062 25.746094 184.871094 C 26.636719 184.703125 27.503906 184.449219 28.34375 184.109375 C 29.183594 183.773438 29.984375 183.355469 30.742188 182.859375 C 31.496094 182.359375 32.195312 181.789062 32.835938 181.152344 C 33.480469 180.515625 34.054688 179.824219 34.5625 179.074219 C 35.070312 178.324219 35.5 177.53125 35.851562 176.699219 C 36.207031 175.867188 36.472656 175.007812 36.660156 174.121094 C 36.84375 173.234375 36.941406 172.339844 36.949219 171.433594 C 36.960938 170.527344 36.882812 169.632812 36.714844 168.742188 C 36.550781 167.851562 36.296875 166.988281 35.964844 166.148438 C 35.628906 165.304688 35.214844 164.503906 34.722656 163.746094 L 33.992188 162.628906 C 33.511719 161.898438 33.070312 161.148438 32.664062 160.375 C 32.257812 159.601562 31.890625 158.808594 31.5625 158 C 31.234375 157.1875 30.949219 156.363281 30.699219 155.527344 C 30.453125 154.6875 30.25 153.839844 30.085938 152.980469 C 29.921875 152.121094 29.800781 151.257812 29.722656 150.386719 C 29.640625 149.519531 29.605469 148.644531 29.613281 147.773438 C 29.621094 146.898438 29.667969 146.027344 29.761719 145.15625 C 29.855469 144.289062 29.988281 143.425781 30.164062 142.570312 C 30.34375 141.714844 30.5625 140.871094 30.820312 140.035156 C 31.082031 139.203125 31.382812 138.382812 31.722656 137.578125 C 32.0625 136.773438 32.441406 135.988281 32.859375 135.21875 C 33.277344 134.453125 33.730469 133.707031 34.222656 132.984375 C 34.714844 132.261719 35.238281 131.5625 35.796875 130.890625 C 36.355469 130.21875 36.949219 129.578125 37.570312 128.964844 C 38.191406 128.351562 38.84375 127.769531 39.523438 127.222656 C 40.203125 126.671875 40.90625 126.15625 41.636719 125.675781 C 42.390625 125.175781 43.085938 124.605469 43.726562 123.96875 C 44.371094 123.328125 44.941406 122.636719 45.449219 121.886719 C 45.957031 121.136719 46.382812 120.34375 46.734375 119.511719 C 47.089844 118.679688 47.355469 117.820312 47.539062 116.933594 C 47.726562 116.050781 47.824219 115.152344 47.832031 114.25 C 47.84375 113.34375 47.765625 112.449219 47.601562 111.558594 C 47.4375 110.667969 47.1875 109.804688 46.851562 108.964844 C 46.519531 108.125 46.109375 107.324219 45.621094 106.5625 C 44.851562 105.382812 43.925781 104.347656 42.835938 103.457031 C 41.75 102.566406 40.554688 101.859375 39.246094 101.335938 C 37.59375 100.664062 35.875 100.324219 34.085938 100.316406 C 31.40625 100.246094 28.910156 100.894531 26.601562 102.261719 C 25.109375 103.242188 23.667969 104.292969 22.277344 105.414062 C 20.890625 106.539062 19.558594 107.726562 18.289062 108.976562 C 17.015625 110.230469 15.808594 111.542969 14.664062 112.914062 C 13.519531 114.285156 12.449219 115.710938 11.445312 117.1875 C 10.441406 118.664062 9.511719 120.1875 8.660156 121.753906 C 7.804688 123.324219 7.03125 124.929688 6.335938 126.574219 C 5.640625 128.21875 5.027344 129.894531 4.496094 131.597656 C 3.964844 133.304688 3.515625 135.03125 3.15625 136.777344 C 2.792969 138.527344 2.519531 140.289062 2.332031 142.066406 C 2.140625 143.839844 2.042969 145.621094 2.027344 147.40625 C 2.015625 149.191406 2.089844 150.972656 2.25 152.75 C 2.410156 154.53125 2.660156 156.296875 2.996094 158.050781 C 3.332031 159.804688 3.75 161.535156 4.257812 163.25 C 4.761719 164.960938 5.351562 166.644531 6.023438 168.300781 C 6.695312 169.953125 7.445312 171.574219 8.273438 173.152344 C 9.105469 174.734375 10.007812 176.269531 10.992188 177.761719 Z M 37.496094 165.082031 C 38.128906 165.089844 38.714844 164.917969 39.246094 164.574219 L 41.699219 162.949219 L 61.261719 150.207031 C 63.484375 148.742188 65.597656 147.128906 67.597656 145.371094 C 69.601562 143.613281 71.46875 141.726562 73.207031 139.707031 C 74.945312 137.6875 76.539062 135.5625 77.980469 133.320312 C 79.425781 131.082031 80.707031 128.753906 81.824219 126.339844 C 82.945312 123.921875 83.894531 121.441406 84.667969 118.890625 C 85.445312 116.34375 86.039062 113.753906 86.457031 111.125 C 86.871094 108.492188 87.105469 105.84375 87.152344 103.183594 C 87.203125 100.519531 87.066406 97.867188 86.746094 95.222656 L 86.746094 94.296875 C 86.695312 93.875 86.5625 93.476562 86.351562 93.109375 C 86.140625 92.738281 85.867188 92.421875 85.53125 92.160156 C 85.195312 91.898438 84.824219 91.710938 84.414062 91.601562 C 84 91.488281 83.585938 91.457031 83.164062 91.507812 C 82.742188 91.5625 82.34375 91.695312 81.972656 91.90625 C 81.605469 92.113281 81.289062 92.386719 81.027344 92.722656 C 80.765625 93.058594 80.578125 93.433594 80.464844 93.84375 C 80.351562 94.253906 80.324219 94.671875 80.375 95.09375 L 80.375 96.015625 C 80.375 96.941406 80.566406 97.863281 80.628906 98.757812 C 80.78125 101 80.785156 103.246094 80.644531 105.492188 C 80.5 107.738281 80.207031 109.964844 79.769531 112.171875 C 79.332031 114.378906 78.753906 116.546875 78.027344 118.675781 C 77.304688 120.808594 76.445312 122.882812 75.449219 124.898438 C 74.449219 126.914062 73.324219 128.859375 72.070312 130.726562 C 70.816406 132.59375 69.445312 134.371094 67.957031 136.058594 C 66.46875 137.746094 64.878906 139.328125 63.179688 140.808594 C 61.484375 142.285156 59.695312 143.644531 57.820312 144.886719 L 38.546875 157.628906 L 35.808594 159.414062 C 35.523438 159.601562 35.277344 159.832031 35.070312 160.101562 C 34.859375 160.371094 34.699219 160.664062 34.585938 160.984375 C 34.46875 161.304688 34.410156 161.636719 34.398438 161.976562 C 34.390625 162.316406 34.433594 162.648438 34.535156 162.972656 C 34.632812 163.300781 34.777344 163.601562 34.972656 163.882812 C 35.167969 164.160156 35.402344 164.402344 35.671875 164.605469 C 35.945312 164.808594 36.242188 164.96875 36.566406 165.074219 C 36.886719 165.183594 37.21875 165.242188 37.558594 165.242188 Z M 37.496094 165.082031 " fill-opacity="1" fill-rule="nonzero"/></svg>