<svg xmlns="http://www.w3.org/2000/svg" xmlns:xlink="http://www.w3.org/1999/xlink" width="250" zoomAndPan="magnify" viewBox="0 0 187.5 187.499992" height="250" preserveAspectRatio="xMidYMid meet" version="1.0"><path fill="#215520" d="M 83.46875 43.953125 L 103.230469 43.953125 C 104.679688 43.953125 105.871094 45.140625 105.871094 46.59375 L 105.871094 80.84375 L 140.121094 80.84375 C 141.570312 80.84375 142.761719 82.03125 142.761719 83.46875 L 142.761719 103.242188 C 142.761719 104.679688 141.570312 105.871094 140.121094 105.871094 L 105.871094 105.871094 L 105.871094 140.121094 C 105.871094 141.570312 104.679688 142.761719 103.230469 142.761719 L 83.46875 142.761719 C 82.019531 142.761719 80.84375 141.570312 80.84375 140.121094 L 80.84375 105.871094 L 46.582031 105.871094 C 45.140625 105.871094 43.953125 104.679688 43.953125 103.242188 L 43.953125 83.46875 C 43.953125 82.03125 45.140625 80.84375 46.582031 80.84375 L 80.84375 80.84375 L 80.84375 46.59375 C 80.84375 45.140625 82.019531 43.953125 83.46875 43.953125 Z M 61.34375 5.636719 C 71.335938 1.988281 82.109375 0 93.355469 0 C 144.90625 0 186.714844 41.792969 186.714844 93.355469 C 186.714844 115.027344 179.324219 134.953125 166.941406 150.804688 L 175.269531 160.363281 C 176.003906 161.199219 176.1875 162.296875 175.78125 163.34375 C 175.390625 164.378906 174.5 165.058594 173.386719 165.175781 L 139.335938 168.980469 C 138.328125 169.097656 137.414062 168.734375 136.757812 167.933594 C 136.117188 167.152344 135.921875 166.183594 136.238281 165.214844 L 146.175781 133.699219 C 146.5 132.667969 147.300781 131.933594 148.359375 131.726562 C 149.417969 131.503906 150.449219 131.84375 151.15625 132.652344 L 158.429688 141.023438 C 168.222656 127.671875 174.015625 111.195312 174.015625 93.355469 C 174.015625 48.804688 137.910156 12.699219 93.355469 12.699219 C 84.320312 12.699219 75.636719 14.175781 67.53125 16.921875 C 66.3125 17.328125 65.019531 16.921875 64.246094 15.875 L 59.996094 10.109375 C 59.433594 9.335938 59.277344 8.449219 59.550781 7.53125 C 59.828125 6.628906 60.453125 5.964844 61.34375 5.636719 Z M 0 93.355469 C 0 71.6875 7.386719 51.757812 19.773438 35.910156 L 11.441406 26.351562 C 10.710938 25.5 10.515625 24.402344 10.917969 23.367188 C 11.324219 22.335938 12.214844 21.65625 13.3125 21.539062 L 47.363281 17.71875 C 48.386719 17.613281 49.300781 17.980469 49.941406 18.765625 C 50.59375 19.550781 50.777344 20.53125 50.476562 21.5 L 40.539062 53.015625 C 40.210938 54.046875 39.414062 54.765625 38.34375 54.988281 C 37.28125 55.210938 36.261719 54.871094 35.554688 54.046875 L 28.273438 45.691406 C 18.476562 59.042969 12.683594 75.519531 12.683594 93.355469 C 12.683594 137.910156 48.804688 174.015625 93.355469 174.015625 C 102.394531 174.015625 111.074219 172.539062 119.171875 169.792969 C 120.398438 169.386719 121.695312 169.792969 122.453125 170.839844 L 126.703125 176.605469 C 127.265625 177.363281 127.421875 178.265625 127.148438 179.179688 C 126.875 180.082031 126.257812 180.75 125.355469 181.078125 C 115.378906 184.710938 104.601562 186.714844 93.355469 186.714844 C 41.792969 186.714844 0 144.917969 0 93.355469 Z M 0 93.355469 " fill-opacity="1" fill-rule="evenodd"/></svg>