<svg xmlns="http://www.w3.org/2000/svg" xmlns:xlink="http://www.w3.org/1999/xlink" width="250" zoomAndPan="magnify" viewBox="0 0 187.5 187.499992" height="250" preserveAspectRatio="xMidYMid meet" version="1.0"><defs><clipPath id="d1c991c7f3"><path d="M 4.441406 0 L 182.464844 0 L 182.464844 187 L 4.441406 187 Z M 4.441406 0 " clip-rule="nonzero"/></clipPath></defs><g clip-path="url(#d1c991c7f3)"><path fill="#215520" d="M 24.457031 124.847656 C 25.816406 123.726562 27.035156 122.347656 28.035156 120.773438 C 29.015625 122.347656 30.234375 123.730469 31.59375 124.847656 C 30.234375 125.96875 29.015625 127.351562 28.035156 128.921875 C 27.035156 127.351562 25.816406 125.96875 24.457031 124.847656 Z M 30.832031 137.539062 C 31.476562 132.621094 34.484375 128.621094 38.328125 127.585938 C 41.113281 126.839844 41.117188 122.863281 38.328125 122.113281 C 34.484375 121.082031 31.476562 117.082031 30.832031 112.164062 C 30.421875 108.882812 25.652344 108.890625 25.21875 112.164062 C 24.574219 117.082031 21.566406 121.082031 17.722656 122.113281 C 14.933594 122.863281 14.9375 126.839844 17.722656 127.585938 C 21.566406 128.621094 24.574219 132.621094 25.21875 137.539062 C 25.660156 140.84375 30.449219 140.789062 30.832031 137.539062 Z M 41.050781 167.382812 C 39.570312 164.683594 37.5625 162.386719 35.246094 160.679688 C 37.5625 158.96875 39.570312 156.671875 41.050781 153.976562 C 42.554688 156.671875 44.535156 158.96875 46.875 160.679688 C 44.535156 162.386719 42.554688 164.683594 41.050781 167.382812 Z M 53.96875 157.945312 C 48.785156 156.542969 44.726562 151.191406 43.867188 144.613281 C 43.460938 141.355469 38.664062 141.335938 38.257812 144.613281 C 37.394531 151.191406 33.335938 156.542969 28.15625 157.945312 C 25.371094 158.691406 25.367188 162.664062 28.15625 163.414062 C 33.335938 164.8125 37.394531 170.167969 38.257812 176.746094 C 38.664062 180.023438 43.460938 180.003906 43.867188 176.746094 C 44.726562 170.167969 48.761719 164.8125 53.96875 163.414062 C 56.765625 162.664062 56.75 158.679688 53.96875 157.945312 Z M 91.097656 95.652344 C 95.085938 93.074219 98.40625 89.183594 100.648438 84.5 C 102.871094 89.183594 106.1875 93.074219 110.199219 95.652344 C 106.1875 98.238281 102.871094 102.128906 100.648438 106.8125 C 98.40625 102.128906 95.085938 98.238281 91.097656 95.652344 Z M 100.648438 119.625 C 102.082031 119.625 103.277344 118.5625 103.441406 117.148438 C 104.636719 107.910156 110.390625 100.375 117.769531 98.394531 C 120.554688 97.644531 120.558594 93.667969 117.769531 92.917969 C 110.390625 90.9375 104.636719 83.402344 103.441406 74.15625 C 103.039062 70.882812 98.261719 70.902344 97.832031 74.15625 C 96.636719 83.402344 90.882812 90.9375 83.503906 92.917969 C 80.71875 93.671875 80.726562 97.640625 83.503906 98.394531 C 90.882812 100.375 96.636719 107.910156 97.832031 117.148438 C 98.023438 118.5625 99.214844 119.625 100.648438 119.625 Z M 74.574219 127.082031 C 73.332031 125.019531 71.78125 123.234375 69.992188 121.84375 C 71.78125 120.457031 73.332031 118.671875 74.574219 116.609375 C 75.792969 118.671875 77.34375 120.453125 79.136719 121.84375 C 77.34375 123.234375 75.792969 125.019531 74.574219 127.082031 Z M 86.035156 119.105469 C 88.820312 119.851562 88.828125 123.832031 86.035156 124.582031 C 81.59375 125.777344 78.109375 130.382812 77.394531 136.050781 C 77.203125 137.464844 75.984375 138.523438 74.574219 138.523438 C 73.140625 138.523438 71.949219 137.464844 71.757812 136.050781 C 71.015625 130.382812 67.554688 125.78125 63.089844 124.582031 C 60.300781 123.835938 60.304688 119.851562 63.089844 119.105469 C 67.554688 117.914062 71.015625 113.304688 71.757812 107.636719 C 71.949219 106.226562 73.140625 105.167969 74.574219 105.167969 C 75.984375 105.167969 77.203125 106.226562 77.394531 107.636719 C 78.109375 113.304688 81.59375 117.914062 86.035156 119.105469 Z M 182.574219 80.425781 C 182.574219 81.988281 181.285156 83.257812 179.734375 83.257812 L 163.664062 83.257812 C 162.085938 83.257812 160.820312 81.988281 160.820312 80.425781 C 160.820312 78.855469 162.085938 77.589844 163.664062 77.589844 L 179.734375 77.589844 C 181.285156 77.589844 182.574219 78.855469 182.574219 80.425781 Z M 141.027344 37.675781 C 139.976562 36.511719 140.070312 34.722656 141.242188 33.675781 L 152.582031 23.453125 C 153.753906 22.402344 155.542969 22.496094 156.59375 23.660156 C 157.644531 24.820312 157.550781 26.613281 156.378906 27.660156 L 145.015625 37.886719 C 143.867188 38.933594 142.046875 38.835938 141.027344 37.675781 Z M 116.933594 22.703125 L 121.804688 12.113281 C 122.449219 10.691406 124.144531 10.066406 125.554688 10.722656 C 126.988281 11.375 127.609375 13.054688 126.960938 14.476562 L 122.089844 25.074219 C 121.421875 26.515625 119.714844 27.109375 118.320312 26.460938 C 116.910156 25.808594 116.289062 24.128906 116.933594 22.703125 Z M 90.714844 17.289062 L 90.714844 2.808594 C 90.714844 1.257812 91.980469 -0.0078125 93.535156 -0.0078125 C 95.109375 -0.0078125 96.375 1.257812 96.375 2.808594 L 96.375 17.289062 C 96.375 18.851562 95.109375 20.121094 93.535156 20.121094 C 91.980469 20.121094 90.714844 18.851562 90.714844 17.289062 Z M 23.378906 83.257812 L 7.3125 83.257812 C 5.757812 83.257812 4.46875 81.988281 4.46875 80.425781 C 4.46875 78.855469 5.757812 77.589844 7.3125 77.589844 L 23.378906 77.589844 C 24.957031 77.589844 26.222656 78.855469 26.222656 80.425781 C 26.222656 81.988281 24.957031 83.257812 23.378906 83.257812 Z M 30.472656 23.644531 C 31.523438 22.480469 33.3125 22.386719 34.460938 23.433594 L 45.851562 33.675781 C 47.734375 35.382812 46.578125 38.613281 43.941406 38.613281 C 43.269531 38.613281 42.601562 38.375 42.054688 37.886719 L 30.6875 27.644531 C 29.515625 26.597656 29.421875 24.808594 30.472656 23.644531 Z M 60.03125 14.511719 C 59.386719 13.089844 60.007812 11.410156 61.417969 10.75 C 62.851562 10.097656 64.523438 10.71875 65.191406 12.144531 L 70.0625 22.726562 C 70.683594 24.074219 70.007812 25.363281 69.917969 25.363281 C 69.917969 25.53125 69.296875 26.121094 69.035156 26.296875 C 69.035156 26.296875 69.035156 26.296875 69.035156 26.300781 L 69.011719 26.300781 L 69.011719 26.308594 L 68.511719 26.554688 L 68.511719 26.566406 C 67.121094 27.082031 65.5625 26.472656 64.929688 25.101562 Z M 16.3125 51.675781 C 16.863281 50.207031 18.484375 49.460938 19.964844 50.007812 L 31.714844 54.386719 L 32.382812 54.726562 C 32.382812 54.730469 32.382812 54.730469 32.382812 54.738281 C 33.414062 55.472656 33.835938 56.78125 33.386719 58.027344 C 32.859375 59.480469 31.203125 60.25 29.757812 59.699219 L 17.984375 55.316406 C 16.503906 54.773438 15.765625 53.140625 16.3125 51.675781 Z M 155.328125 54.324219 L 167.078125 49.929688 C 168.558594 49.386719 170.179688 50.128906 170.730469 51.597656 C 171.28125 53.058594 170.539062 54.695312 169.058594 55.242188 L 157.3125 59.632812 C 155.859375 60.171875 154.21875 59.460938 153.65625 57.96875 C 153.109375 56.503906 153.847656 54.871094 155.328125 54.324219 Z M 134.9375 161.324219 C 128.15625 161.324219 122.640625 155.808594 122.640625 149.023438 C 122.640625 142.242188 128.15625 136.726562 134.9375 136.726562 C 141.71875 136.726562 147.234375 142.242188 147.234375 149.023438 C 147.234375 155.808594 141.71875 161.324219 134.9375 161.324219 Z M 134.9375 131.058594 C 125.027344 131.058594 116.980469 139.117188 116.980469 149.023438 C 116.980469 158.933594 125.027344 166.992188 134.9375 166.992188 C 144.847656 166.992188 152.917969 158.933594 152.917969 149.023438 C 152.917969 139.117188 144.847656 131.058594 134.9375 131.058594 Z M 160.105469 142.59375 C 159.53125 143.230469 159.269531 144.097656 159.414062 144.949219 C 159.863281 147.542969 159.863281 150.5 159.414062 153.097656 C 159.269531 153.945312 159.53125 154.816406 160.105469 155.457031 L 165.261719 161.167969 L 160.605469 169.199219 L 153.085938 167.601562 C 152.25 167.421875 151.367188 167.640625 150.695312 168.1875 C 148.597656 169.933594 146.207031 171.304688 143.652344 172.261719 C 142.839844 172.566406 142.21875 173.21875 141.957031 174.039062 L 139.59375 181.34375 L 130.304688 181.34375 L 127.941406 174.039062 C 127.65625 173.222656 127.035156 172.5625 126.222656 172.261719 C 123.691406 171.300781 121.304688 169.933594 119.179688 168.1875 C 118.535156 167.640625 117.648438 167.421875 116.789062 167.601562 L 109.269531 169.199219 L 104.636719 161.167969 L 109.769531 155.457031 C 110.367188 154.816406 110.605469 153.949219 110.464844 153.097656 C 110.019531 150.40625 110.019531 147.644531 110.464844 144.949219 C 110.605469 144.097656 110.367188 143.230469 109.769531 142.59375 L 104.636719 136.882812 L 109.269531 128.851562 L 116.789062 130.449219 C 117.648438 130.628906 118.535156 130.410156 119.179688 129.863281 C 121.304688 128.117188 123.691406 126.746094 126.222656 125.789062 C 127.035156 125.484375 127.65625 124.828125 127.941406 124.011719 L 130.304688 116.707031 L 139.59375 116.707031 L 141.957031 124.011719 C 142.21875 124.828125 142.839844 125.484375 143.652344 125.789062 C 146.207031 126.746094 148.570312 128.117188 150.695312 129.863281 C 151.367188 130.410156 152.25 130.628906 153.085938 130.449219 L 160.605469 128.851562 L 165.261719 136.882812 Z M 54.921875 140.34375 L 54.921875 91.457031 L 91.625 54.769531 C 92.671875 53.71875 94.371094 53.71875 95.421875 54.769531 L 132.121094 91.457031 L 132.121094 111.039062 L 128.824219 111.039062 C 127.25 111.039062 125.863281 112.039062 125.386719 113.539062 L 122.949219 121 C 120.730469 121.953125 118.628906 123.167969 116.671875 124.628906 L 109.007812 122.992188 C 107.453125 122.667969 105.902344 123.359375 105.113281 124.71875 L 98.976562 135.339844 C 98.191406 136.703125 98.382812 138.398438 99.433594 139.566406 L 104.683594 145.402344 C 104.636719 145.738281 104.613281 146.074219 104.589844 146.414062 L 61.011719 146.414062 C 57.644531 146.414062 54.921875 143.691406 54.921875 140.34375 Z M 44.203125 94.167969 L 87.613281 50.761719 C 90.878906 47.492188 96.175781 47.503906 99.433594 50.761719 L 142.839844 94.167969 C 143.699219 95.035156 144.871094 95.507812 146.089844 95.507812 C 150.222656 95.507812 152.230469 90.53125 149.359375 87.664062 L 104.875 43.304688 C 98.570312 37.023438 88.328125 37.027344 82.023438 43.320312 L 37.683594 87.664062 C 36.824219 88.523438 36.347656 89.679688 36.347656 90.914062 C 36.347656 95.085938 41.394531 97 44.203125 94.167969 Z M 170.898438 135.339844 L 164.785156 124.71875 C 163.996094 123.359375 162.421875 122.667969 160.894531 122.992188 L 153.203125 124.628906 C 151.269531 123.167969 149.167969 121.953125 146.949219 121 L 144.511719 113.53125 C 144.035156 112.039062 142.648438 111.039062 141.074219 111.039062 L 137.78125 111.039062 L 137.78125 97.125 L 138.832031 98.175781 C 142.835938 102.183594 149.355469 102.1875 153.347656 98.175781 C 157.359375 94.171875 157.359375 87.660156 153.347656 83.65625 L 108.886719 39.292969 C 100.363281 30.804688 86.539062 30.816406 78.039062 39.3125 L 33.695312 83.65625 C 27.25 90.101562 31.816406 101.179688 40.953125 101.179688 C 43.699219 101.179688 46.28125 100.109375 48.214844 98.175781 L 49.265625 97.125 L 49.265625 140.34375 C 49.265625 146.816406 54.515625 152.082031 61.011719 152.082031 L 104.636719 152.082031 C 104.636719 152.273438 104.660156 152.460938 104.683594 152.648438 L 99.433594 158.484375 C 98.382812 159.648438 98.191406 161.347656 98.976562 162.707031 L 105.113281 173.328125 C 105.902344 174.683594 107.453125 175.378906 108.984375 175.054688 L 116.671875 173.417969 C 118.628906 174.882812 120.730469 176.09375 122.953125 177.050781 L 125.386719 184.515625 C 125.863281 186.007812 127.25 187.007812 128.824219 187.007812 L 141.074219 187.007812 C 142.652344 187.007812 144.035156 186.007812 144.511719 184.511719 L 146.949219 177.050781 C 149.167969 176.09375 151.269531 174.882812 153.203125 173.417969 L 160.894531 175.054688 C 162.421875 175.378906 163.996094 174.683594 164.785156 173.328125 L 170.898438 162.707031 C 171.6875 161.347656 171.519531 159.648438 170.46875 158.484375 L 165.214844 152.648438 C 165.503906 150.246094 165.503906 147.804688 165.214844 145.402344 L 170.46875 139.566406 C 171.519531 138.398438 171.6875 136.703125 170.898438 135.339844 Z M 170.898438 135.339844 " fill-opacity="1" fill-rule="evenodd"/></g></svg>