<svg xmlns="http://www.w3.org/2000/svg" xmlns:xlink="http://www.w3.org/1999/xlink" width="250" zoomAndPan="magnify" viewBox="0 0 187.5 187.499992" height="250" preserveAspectRatio="xMidYMid meet" version="1.0"><defs><clipPath id="9acbfdc0b3"><path d="M 0 34.980469 L 187 34.980469 L 187 144.1875 L 0 144.1875 Z M 0 34.980469 " clip-rule="nonzero"/></clipPath></defs><g clip-path="url(#9acbfdc0b3)"><path fill="#215520" d="M 186.992188 84.746094 C 186.992188 84.746094 186.886719 84.789062 186.691406 84.871094 C 186.496094 84.96875 186.1875 85.070312 185.78125 85.203125 C 184.964844 85.4375 183.679688 85.660156 182.054688 85.527344 C 180.425781 85.417969 178.507812 84.933594 176.480469 84.097656 C 174.453125 83.261719 172.332031 82.058594 170.199219 80.570312 C 168.078125 79.070312 165.933594 77.292969 163.859375 75.269531 C 162.820312 74.253906 161.796875 73.207031 160.78125 72.066406 C 160.515625 71.785156 160.28125 71.511719 160.035156 71.230469 L 159.664062 70.808594 L 159.472656 70.597656 L 159.296875 70.402344 C 159.058594 70.148438 158.828125 69.886719 158.578125 69.636719 C 158.328125 69.394531 158.070312 69.152344 157.816406 68.90625 C 156.820312 68.023438 155.71875 67.246094 154.511719 66.652344 C 154.441406 66.613281 154.371094 66.578125 154.296875 66.542969 C 153.007812 65.921875 151.589844 65.519531 150.066406 65.269531 C 149.800781 65.226562 149.535156 65.1875 149.265625 65.15625 C 147.28125 64.898438 145.136719 64.871094 142.902344 64.890625 C 143.511719 65.28125 144.113281 65.691406 144.703125 66.140625 L 145.183594 66.515625 L 145.652344 66.914062 C 145.964844 67.171875 146.261719 67.46875 146.554688 67.757812 C 146.855469 68.039062 147.117188 68.367188 147.394531 68.671875 L 147.773438 69.167969 C 147.902344 69.335938 148.027344 69.503906 148.128906 69.683594 L 148.460938 70.214844 C 148.5625 70.398438 148.648438 70.589844 148.742188 70.777344 L 148.875 71.058594 L 148.921875 71.15625 L 148.945312 71.214844 L 148.988281 71.335938 L 149.167969 71.820312 C 149.414062 72.453125 149.636719 73.152344 149.859375 73.828125 C 150.273438 75.15625 150.601562 76.445312 151.003906 77.609375 C 151.398438 78.769531 151.917969 79.777344 152.683594 80.59375 C 153.421875 81.433594 154.449219 82.027344 155.40625 82.550781 C 155.65625 82.671875 155.902344 82.789062 156.144531 82.902344 C 156.386719 83.015625 156.621094 83.136719 156.863281 83.222656 C 157.351562 83.410156 157.8125 83.59375 158.246094 83.761719 C 159.140625 84.054688 159.921875 84.320312 160.578125 84.511719 C 161.898438 84.882812 162.652344 85.09375 162.652344 85.09375 L 162.570312 85.390625 C 162.570312 85.390625 161.785156 85.261719 160.410156 85.035156 C 159.71875 84.917969 158.890625 84.730469 157.9375 84.535156 C 157.464844 84.40625 156.957031 84.273438 156.425781 84.132812 C 156.160156 84.070312 155.898438 83.96875 155.617188 83.878906 C 155.34375 83.785156 155.0625 83.6875 154.773438 83.589844 C 153.660156 83.132812 152.394531 82.597656 151.316406 81.667969 C 150.78125 81.214844 150.269531 80.691406 149.851562 80.117188 C 149.617188 79.835938 149.457031 79.539062 149.261719 79.234375 C 149.0625 78.9375 148.914062 78.632812 148.753906 78.320312 C 148.125 77.09375 147.609375 75.847656 147.03125 74.632812 C 146.738281 74.046875 146.460938 73.464844 146.109375 72.839844 L 145.859375 72.375 L 145.796875 72.261719 L 145.769531 72.21875 L 145.769531 72.214844 C 145.769531 72.210938 145.765625 72.210938 145.765625 72.207031 C 145.765625 72.203125 145.765625 72.203125 145.765625 72.203125 L 145.746094 72.1875 L 145.625 72.007812 C 145.542969 71.890625 145.46875 71.769531 145.378906 71.652344 L 145.09375 71.308594 C 145.007812 71.195312 144.898438 71.085938 144.789062 70.976562 L 144.46875 70.652344 C 144.21875 70.449219 144 70.234375 143.734375 70.039062 C 143.472656 69.84375 143.222656 69.648438 142.941406 69.46875 L 142.523438 69.191406 L 142.089844 68.9375 C 140.929688 68.257812 139.671875 67.675781 138.410156 67.175781 C 135.871094 66.183594 133.328125 65.488281 131.125 64.972656 C 130.441406 64.8125 129.796875 64.671875 129.183594 64.546875 C 129.058594 64.535156 128.933594 64.523438 128.8125 64.507812 C 126.933594 64.296875 125.078125 63.976562 123.261719 63.589844 C 122.808594 63.484375 122.355469 63.386719 121.90625 63.28125 C 121.457031 63.175781 120.988281 63.039062 120.53125 62.917969 C 119.5625 62.667969 118.839844 62.429688 118.03125 62.191406 L 117.878906 62.144531 L 117.84375 62.136719 C 117.832031 62.132812 117.828125 62.128906 117.828125 62.128906 C 117.816406 62.125 117.792969 62.117188 117.726562 62.09375 L 117.648438 62.0625 L 117.324219 61.949219 L 116.675781 61.71875 C 116.246094 61.558594 115.808594 61.425781 115.394531 61.242188 C 114.558594 60.894531 113.722656 60.558594 112.921875 60.15625 C 111.308594 59.394531 109.804688 58.496094 108.40625 57.539062 C 108.0625 57.292969 107.722656 57.046875 107.382812 56.804688 C 107.054688 56.550781 106.734375 56.292969 106.414062 56.035156 C 106.253906 55.90625 106.097656 55.777344 105.941406 55.644531 C 105.792969 55.511719 105.640625 55.378906 105.496094 55.242188 C 105.273438 55.039062 105.046875 54.839844 104.828125 54.640625 C 104.882812 54.878906 104.941406 55.117188 105.003906 55.355469 C 105.476562 57.03125 106.238281 58.722656 107.46875 60.199219 C 107.609375 60.394531 107.785156 60.566406 107.957031 60.742188 C 108.128906 60.917969 108.28125 61.113281 108.480469 61.269531 C 108.671875 61.441406 108.859375 61.613281 109.050781 61.785156 C 109.257812 61.941406 109.472656 62.097656 109.6875 62.257812 C 110.558594 62.875 111.542969 63.457031 112.699219 63.914062 C 113.25 64.171875 113.882812 64.351562 114.496094 64.566406 C 114.582031 64.59375 114.644531 64.617188 114.738281 64.644531 L 115.03125 64.730469 L 115.621094 64.894531 C 116.015625 65.007812 116.40625 65.117188 116.804688 65.226562 C 118.394531 65.683594 120.003906 66.140625 121.628906 66.601562 C 124.890625 67.550781 128.25 68.539062 131.652344 69.867188 C 132.074219 70.042969 132.5 70.234375 132.921875 70.414062 C 133.347656 70.605469 133.769531 70.765625 134.191406 70.988281 L 135.441406 71.621094 C 135.652344 71.722656 135.855469 71.839844 136.058594 71.964844 L 136.664062 72.332031 C 137.484375 72.792969 138.230469 73.371094 138.976562 73.917969 C 139.34375 74.199219 139.671875 74.515625 140.015625 74.816406 L 140.527344 75.269531 C 140.695312 75.421875 140.832031 75.585938 140.988281 75.746094 C 141.285156 76.066406 141.582031 76.390625 141.882812 76.707031 C 142.164062 77.035156 142.410156 77.371094 142.671875 77.695312 C 143.210938 78.351562 143.632812 79.03125 144.078125 79.691406 C 144.933594 81.023438 145.652344 82.355469 146.316406 83.660156 C 146.476562 83.976562 146.636719 84.289062 146.796875 84.605469 C 146.953125 84.917969 147.113281 85.242188 147.269531 85.523438 C 147.570312 86.105469 147.902344 86.6875 148.234375 87.261719 C 148.910156 88.398438 149.636719 89.476562 150.414062 90.484375 C 151.960938 92.492188 153.738281 94.199219 155.667969 95.464844 C 157.597656 96.734375 159.667969 97.535156 161.613281 97.972656 C 163.558594 98.414062 165.363281 98.503906 166.839844 98.484375 C 168.320312 98.464844 169.488281 98.328125 170.28125 98.230469 C 171.074219 98.113281 171.496094 98.046875 171.496094 98.046875 L 171.589844 98.347656 C 171.589844 98.347656 171.171875 98.453125 170.390625 98.65625 C 169.605469 98.835938 168.4375 99.097656 166.910156 99.28125 C 165.386719 99.457031 163.484375 99.558594 161.304688 99.300781 C 159.128906 99.042969 156.683594 98.390625 154.316406 97.183594 C 151.945312 95.988281 149.6875 94.28125 147.675781 92.246094 C 146.664062 91.230469 145.707031 90.136719 144.808594 88.984375 C 144.363281 88.40625 143.921875 87.816406 143.484375 87.199219 C 143.257812 86.882812 143.070312 86.597656 142.863281 86.300781 C 142.664062 86.003906 142.457031 85.707031 142.25 85.40625 C 140.675781 83.085938 138.902344 80.808594 136.773438 79.082031 C 136.640625 78.972656 136.519531 78.855469 136.375 78.753906 L 135.953125 78.464844 C 135.660156 78.273438 135.398438 78.058594 135.097656 77.886719 C 134.488281 77.550781 133.914062 77.1875 133.246094 76.910156 C 131.984375 76.296875 130.523438 75.84375 129.054688 75.402344 C 127.433594 74.957031 125.742188 74.578125 124.015625 74.226562 C 124.097656 75.171875 124.21875 76.203125 124.390625 77.324219 C 124.777344 79.863281 125.410156 82.820312 126.535156 85.84375 C 127.097656 87.351562 127.789062 88.875 128.648438 90.335938 C 129.511719 91.800781 130.539062 93.207031 131.773438 94.453125 C 132.382812 95.082031 133.058594 95.652344 133.765625 96.183594 C 134.535156 96.757812 135.351562 97.328125 136.136719 97.894531 C 137.71875 99.0625 139.265625 100.210938 140.707031 101.398438 C 142.160156 102.558594 143.492188 103.769531 144.699219 104.957031 C 145.894531 106.160156 146.90625 107.398438 147.71875 108.597656 C 148.089844 109.226562 148.472656 109.804688 148.714844 110.40625 C 149.015625 110.988281 149.183594 111.578125 149.363281 112.121094 C 149.414062 112.253906 149.445312 112.390625 149.46875 112.527344 C 149.496094 112.660156 149.519531 112.792969 149.546875 112.921875 C 149.589844 113.183594 149.660156 113.429688 149.679688 113.671875 C 149.707031 114.160156 149.757812 114.601562 149.75 115 C 149.726562 115.398438 149.707031 115.757812 149.6875 116.0625 C 149.65625 116.375 149.597656 116.632812 149.5625 116.839844 C 149.488281 117.261719 149.453125 117.484375 149.453125 117.484375 L 149.09375 117.441406 C 149.09375 117.441406 149.105469 117.21875 149.125 116.804688 C 149.132812 116.597656 149.160156 116.34375 149.15625 116.046875 C 149.136719 115.75 149.113281 115.40625 149.089844 115.027344 C 149.054688 114.644531 148.945312 114.230469 148.871094 113.777344 C 148.824219 113.554688 148.730469 113.328125 148.664062 113.089844 C 148.621094 112.972656 148.582031 112.851562 148.542969 112.726562 C 148.507812 112.605469 148.464844 112.480469 148.402344 112.359375 C 148.171875 111.875 147.953125 111.347656 147.613281 110.835938 C 147.324219 110.304688 146.898438 109.796875 146.496094 109.253906 C 145.601562 108.207031 144.527344 107.144531 143.257812 106.113281 C 141.980469 105.085938 140.574219 104.054688 139.035156 103.058594 C 137.515625 102.042969 135.867188 101.054688 134.207031 100.066406 C 133.355469 99.566406 132.5 99.089844 131.625 98.566406 C 130.699219 98.003906 129.804688 97.386719 128.988281 96.710938 C 127.34375 95.363281 125.945312 93.828125 124.757812 92.246094 C 123.570312 90.660156 122.585938 89.015625 121.753906 87.398438 C 120.09375 84.15625 119.019531 81.007812 118.261719 78.289062 C 117.691406 76.230469 117.308594 74.414062 117.046875 72.945312 C 116.207031 72.800781 115.371094 72.65625 114.539062 72.507812 C 114.132812 72.4375 113.722656 72.367188 113.320312 72.296875 L 112.714844 72.191406 L 112.410156 72.140625 L 112.0625 72.066406 C 111.109375 71.863281 110.160156 71.683594 109.230469 71.382812 C 105.730469 70.402344 102.441406 68.636719 99.925781 66.441406 C 99.894531 67.554688 99.839844 68.699219 99.761719 69.882812 C 99.636719 71.667969 99.425781 73.535156 99.0625 75.488281 C 99.171875 75.808594 99.304688 76.160156 99.472656 76.550781 C 99.863281 77.46875 100.417969 78.5625 101.222656 79.710938 C 102.027344 80.859375 103.082031 82.054688 104.476562 83.101562 C 105.171875 83.621094 105.953125 84.105469 106.820312 84.523438 C 107.035156 84.632812 107.261719 84.726562 107.488281 84.828125 C 107.777344 84.949219 108.070312 85.074219 108.363281 85.195312 C 108.496094 85.253906 108.667969 85.328125 108.835938 85.402344 C 109 85.476562 109.164062 85.554688 109.335938 85.628906 C 109.675781 85.78125 109.972656 85.933594 110.292969 86.089844 C 112.804688 87.34375 115.289062 88.929688 117.492188 90.960938 C 118.582031 91.980469 119.601562 93.117188 120.460938 94.382812 C 121.316406 95.648438 122.027344 97.039062 122.433594 98.539062 C 122.839844 100.03125 122.949219 101.609375 122.730469 103.140625 C 122.667969 103.628906 122.5625 104.105469 122.433594 104.578125 C 122.492188 104.636719 122.558594 104.703125 122.625 104.773438 C 123.203125 105.375 123.988281 106.242188 124.832031 107.34375 C 125.675781 108.449219 126.582031 109.785156 127.324219 111.34375 C 127.6875 112.125 128.011719 112.957031 128.242188 113.835938 C 128.472656 114.714844 128.609375 115.640625 128.585938 116.578125 C 128.570312 117.511719 128.390625 118.453125 128.042969 119.320312 L 127.910156 119.644531 L 127.882812 119.703125 L 127.875 119.710938 L 127.867188 119.730469 L 127.855469 119.765625 L 127.792969 119.90625 C 127.710938 120.089844 127.625 120.273438 127.546875 120.457031 C 127.371094 120.832031 127.253906 121.164062 127.132812 121.503906 C 126.996094 121.835938 126.902344 122.183594 126.804688 122.523438 C 126.691406 122.859375 126.636719 123.199219 126.566406 123.527344 C 126.480469 123.855469 126.46875 124.175781 126.417969 124.488281 C 126.382812 124.800781 126.375 125.105469 126.359375 125.398438 C 126.363281 125.980469 126.386719 126.519531 126.476562 126.988281 C 126.539062 127.460938 126.667969 127.867188 126.769531 128.199219 C 126.890625 128.527344 127 128.78125 127.089844 128.949219 C 127.175781 129.117188 127.230469 129.195312 127.230469 129.195312 L 126.9375 129.375 C 126.9375 129.375 126.851562 129.289062 126.722656 129.125 C 126.589844 128.960938 126.417969 128.714844 126.21875 128.386719 C 126.035156 128.054688 125.8125 127.648438 125.636719 127.15625 C 125.441406 126.671875 125.289062 126.101562 125.160156 125.476562 C 125.109375 125.164062 125.046875 124.835938 125.015625 124.492188 C 125 124.152344 124.945312 123.796875 124.953125 123.433594 C 124.957031 123.070312 124.945312 122.6875 124.984375 122.304688 C 125.011719 121.925781 125.035156 121.53125 125.105469 121.125 C 125.167969 120.722656 125.230469 120.296875 125.324219 119.925781 C 125.363281 119.730469 125.40625 119.535156 125.449219 119.34375 L 125.484375 119.199219 L 125.488281 119.160156 L 125.492188 119.140625 L 125.492188 119.132812 L 125.507812 119.085938 L 125.519531 119.03125 L 125.566406 118.777344 C 125.679688 118.101562 125.664062 117.410156 125.53125 116.730469 C 125.269531 115.367188 124.550781 114.050781 123.699219 112.894531 C 122.84375 111.738281 121.851562 110.738281 120.953125 109.921875 C 120.664062 109.660156 120.382812 109.421875 120.113281 109.199219 C 120.066406 109.265625 120.023438 109.335938 119.972656 109.402344 L 119.265625 110.289062 L 118.589844 111.085938 C 117.691406 112.136719 116.796875 113.191406 115.910156 114.234375 C 114.148438 116.308594 112.472656 118.378906 110.953125 120.425781 C 109.4375 122.472656 108.074219 124.503906 106.972656 126.496094 C 105.871094 128.488281 104.988281 130.433594 104.488281 132.292969 C 103.96875 134.148438 103.785156 135.902344 103.960938 137.433594 C 104.136719 138.964844 104.621094 140.269531 105.210938 141.265625 C 105.808594 142.257812 106.425781 142.976562 106.878906 143.441406 C 107.347656 143.898438 107.597656 144.140625 107.597656 144.140625 L 107.347656 144.363281 C 107.347656 144.363281 107.066406 144.132812 106.546875 143.699219 C 106.03125 143.253906 105.324219 142.558594 104.59375 141.554688 C 103.875 140.546875 103.21875 139.195312 102.878906 137.558594 C 102.535156 135.925781 102.550781 134.035156 102.914062 132.03125 C 103.261719 130.019531 103.996094 127.914062 104.941406 125.753906 C 105.898438 123.601562 107.109375 121.40625 108.464844 119.195312 C 109.824219 116.984375 111.339844 114.761719 112.910156 112.539062 C 113.703125 111.433594 114.496094 110.324219 115.296875 109.207031 L 115.898438 108.367188 L 116.40625 107.597656 C 116.726562 107.078125 117.011719 106.550781 117.25 106.015625 C 117.71875 104.949219 118.007812 103.859375 118.046875 102.789062 C 118.089844 101.71875 117.910156 100.671875 117.535156 99.671875 C 116.773438 97.675781 115.214844 95.894531 113.371094 94.4375 C 112.242188 93.554688 111.015625 92.785156 109.746094 92.121094 C 110.085938 93.132812 110.363281 94.242188 110.46875 95.457031 C 110.613281 96.976562 110.472656 98.6875 109.757812 100.347656 C 109.421875 101.179688 108.894531 101.972656 108.300781 102.699219 C 108.140625 102.875 107.980469 103.054688 107.820312 103.234375 L 107.75 103.308594 L 107.695312 103.363281 L 107.589844 103.464844 L 107.378906 103.671875 C 107.089844 103.953125 106.804688 104.230469 106.515625 104.511719 C 105.316406 105.664062 104.097656 106.769531 102.910156 107.878906 C 101.722656 108.980469 100.589844 110.074219 99.648438 111.214844 C 98.703125 112.355469 97.976562 113.558594 97.488281 114.824219 C 96.996094 116.082031 96.71875 117.382812 96.566406 118.636719 C 96.519531 118.964844 96.472656 119.292969 96.425781 119.609375 C 96.402344 119.769531 96.378906 119.925781 96.359375 120.082031 C 96.332031 120.234375 96.289062 120.402344 96.257812 120.558594 C 96.183594 120.871094 96.117188 121.183594 96.046875 121.484375 C 95.957031 121.78125 95.867188 122.074219 95.78125 122.359375 C 95.394531 123.488281 94.925781 124.488281 94.390625 125.328125 C 93.851562 126.164062 93.273438 126.839844 92.742188 127.351562 C 92.214844 127.859375 91.734375 128.207031 91.390625 128.425781 C 91.214844 128.535156 91.078125 128.613281 90.980469 128.664062 C 90.886719 128.714844 90.832031 128.738281 90.832031 128.738281 L 90.648438 128.476562 C 90.648438 128.476562 90.691406 128.449219 90.769531 128.398438 C 90.847656 128.347656 90.972656 128.261719 91.117188 128.144531 C 91.410156 127.910156 91.828125 127.542969 92.261719 127.015625 C 92.695312 126.492188 93.15625 125.8125 93.5625 124.988281 C 93.960938 124.164062 94.28125 123.1875 94.503906 122.109375 C 94.550781 121.835938 94.601562 121.558594 94.652344 121.277344 C 94.679688 121 94.707031 120.710938 94.734375 120.421875 C 94.746094 120.277344 94.769531 120.136719 94.773438 119.980469 C 94.777344 119.828125 94.777344 119.671875 94.785156 119.507812 C 94.789062 119.203125 94.796875 118.886719 94.804688 118.570312 C 94.796875 117.226562 94.914062 115.785156 95.292969 114.308594 C 95.660156 112.828125 96.34375 111.328125 97.25 109.941406 C 98.152344 108.554688 99.230469 107.273438 100.292969 106.039062 C 101.355469 104.808594 102.429688 103.601562 103.40625 102.425781 C 103.660156 102.121094 103.910156 101.820312 104.160156 101.515625 L 104.34375 101.292969 L 104.4375 101.179688 L 104.480469 101.125 C 104.480469 101.125 104.496094 101.097656 104.503906 101.089844 L 104.765625 100.71875 C 105.074219 100.214844 105.34375 99.710938 105.472656 99.183594 C 105.769531 98.132812 105.734375 97.035156 105.496094 95.980469 C 105.273438 94.925781 104.835938 93.914062 104.363281 93.003906 C 103.886719 92.089844 103.339844 91.273438 102.832031 90.5625 C 102.3125 89.855469 101.816406 89.253906 101.390625 88.769531 C 101.28125 88.640625 101.171875 88.519531 101.066406 88.410156 C 100.734375 88.21875 100.402344 88.023438 100.082031 87.824219 C 98.90625 87.082031 97.882812 86.273438 96.992188 85.457031 C 96.957031 85.785156 96.921875 86.113281 96.886719 86.449219 C 96.8125 87.199219 96.734375 87.953125 96.652344 88.710938 C 96.5625 89.5 96.4375 90.316406 96.265625 91.160156 C 95.917969 92.847656 95.308594 94.675781 94.285156 96.332031 C 93.78125 97.15625 93.207031 97.9375 92.5625 98.652344 C 91.929688 99.378906 91.238281 100.023438 90.535156 100.636719 C 89.882812 101.183594 89.214844 101.691406 88.542969 102.167969 L 88.558594 102.261719 C 88.558594 102.261719 88.5 102.265625 88.398438 102.273438 C 87.636719 102.804688 86.863281 103.296875 86.082031 103.757812 L 85.507812 104.089844 L 85.363281 104.167969 L 85.296875 104.210938 L 85.28125 104.21875 C 85.289062 104.210938 85.296875 104.207031 85.304688 104.199219 L 85.039062 104.359375 L 84.511719 104.671875 C 84.339844 104.773438 84.144531 104.886719 84.035156 104.96875 C 83.78125 105.148438 83.515625 105.300781 83.257812 105.496094 C 83.003906 105.703125 82.722656 105.894531 82.484375 106.105469 C 81.503906 106.941406 80.730469 107.867188 80.1875 108.882812 C 79.101562 110.898438 79.011719 113.3125 79.46875 115.664062 C 79.917969 118.023438 80.785156 120.300781 81.515625 122.472656 C 81.886719 123.566406 82.234375 124.632812 82.476562 125.699219 C 82.542969 125.960938 82.582031 126.234375 82.632812 126.5 L 82.660156 126.652344 L 82.667969 126.746094 L 82.683594 126.929688 C 82.691406 127.054688 82.699219 127.175781 82.710938 127.292969 C 82.769531 127.746094 82.734375 128.316406 82.707031 128.828125 C 82.707031 129.089844 82.640625 129.324219 82.601562 129.558594 C 82.550781 129.796875 82.53125 130.03125 82.457031 130.253906 C 82.308594 130.703125 82.195312 131.132812 81.988281 131.523438 C 81.648438 132.320312 81.167969 132.980469 80.714844 133.550781 C 79.753906 134.664062 78.792969 135.351562 78.117188 135.777344 C 77.777344 135.988281 77.503906 136.132812 77.3125 136.226562 C 77.125 136.320312 77.023438 136.367188 77.023438 136.367188 L 76.835938 136.101562 C 76.835938 136.101562 76.914062 136.050781 77.078125 135.9375 C 77.230469 135.820312 77.460938 135.648438 77.742188 135.402344 C 78.296875 134.917969 79.070312 134.148438 79.734375 133.039062 C 80.03125 132.476562 80.359375 131.851562 80.523438 131.132812 C 80.644531 130.785156 80.667969 130.402344 80.726562 130.015625 C 80.757812 129.824219 80.738281 129.625 80.746094 129.425781 C 80.742188 129.222656 80.769531 129.015625 80.730469 128.820312 C 80.671875 128.421875 80.65625 128.050781 80.507812 127.550781 C 80.480469 127.429688 80.453125 127.316406 80.421875 127.195312 L 80.375 127.011719 L 80.355469 126.941406 L 80.355469 126.953125 L 80.351562 126.933594 L 80.335938 126.894531 C 80.257812 126.671875 80.191406 126.453125 80.09375 126.222656 C 79.734375 125.316406 79.253906 124.355469 78.726562 123.347656 C 77.664062 121.324219 76.410156 119.078125 75.507812 116.433594 C 75.058594 115.113281 74.707031 113.679688 74.621094 112.136719 C 74.523438 110.601562 74.703125 108.941406 75.328125 107.332031 C 75.691406 106.378906 76.191406 105.449219 76.800781 104.574219 C 76.007812 104.824219 75.207031 105.101562 74.40625 105.414062 C 71.949219 106.375 69.453125 107.636719 67.488281 109.335938 C 66.507812 110.183594 65.65625 111.128906 65.011719 112.15625 C 64.675781 112.667969 64.425781 113.207031 64.1875 113.75 C 64.089844 114.027344 63.992188 114.300781 63.894531 114.574219 C 63.796875 114.882812 63.699219 115.191406 63.605469 115.5 C 63.246094 116.679688 62.804688 117.898438 62.351562 118.996094 C 61.882812 120.089844 61.382812 121.109375 60.835938 122.023438 C 60.554688 122.476562 60.292969 122.910156 59.988281 123.300781 C 59.835938 123.5 59.707031 123.699219 59.554688 123.878906 C 59.394531 124.054688 59.242188 124.226562 59.09375 124.398438 C 58.953125 124.566406 58.792969 124.71875 58.636719 124.863281 C 58.476562 125.007812 58.339844 125.152344 58.183594 125.28125 C 57.863281 125.527344 57.578125 125.753906 57.28125 125.925781 C 56.699219 126.277344 56.171875 126.476562 55.792969 126.554688 C 55.601562 126.59375 55.453125 126.613281 55.347656 126.621094 C 55.246094 126.628906 55.179688 126.625 55.179688 126.625 L 55.183594 126.316406 C 55.183594 126.316406 55.355469 126.304688 55.660156 126.199219 C 55.972656 126.101562 56.410156 125.871094 56.875 125.496094 C 57.117188 125.316406 57.34375 125.078125 57.59375 124.824219 C 57.714844 124.699219 57.824219 124.546875 57.945312 124.402344 C 58.066406 124.253906 58.191406 124.101562 58.296875 123.925781 C 58.410156 123.757812 58.523438 123.582031 58.640625 123.402344 C 58.753906 123.222656 58.847656 123.023438 58.957031 122.824219 C 59.183594 122.433594 59.367188 122 59.558594 121.546875 C 59.941406 120.640625 60.257812 119.625 60.535156 118.542969 C 60.800781 117.457031 61.03125 116.34375 61.203125 115.089844 C 61.25 114.785156 61.296875 114.480469 61.34375 114.179688 C 61.410156 113.835938 61.472656 113.496094 61.539062 113.152344 C 61.714844 112.464844 61.921875 111.773438 62.230469 111.101562 C 62.824219 109.75 63.683594 108.464844 64.710938 107.304688 C 65.742188 106.140625 66.929688 105.097656 68.1875 104.183594 C 69.445312 103.269531 70.761719 102.46875 72.078125 101.761719 C 73.390625 101.054688 74.703125 100.445312 75.972656 99.914062 C 77.238281 99.382812 78.460938 98.925781 79.601562 98.535156 C 81.878906 97.757812 83.828125 97.230469 85.214844 96.886719 C 85.265625 96.875 85.3125 96.867188 85.363281 96.855469 C 85.414062 96.800781 85.472656 96.75 85.523438 96.695312 C 85.980469 96.207031 86.417969 95.714844 86.769531 95.207031 C 87.136719 94.707031 87.429688 94.191406 87.671875 93.667969 C 87.921875 93.148438 88.101562 92.609375 88.238281 92.046875 C 88.371094 91.480469 88.46875 90.898438 88.523438 90.269531 C 88.578125 89.640625 88.597656 88.980469 88.617188 88.292969 C 88.621094 87.570312 88.625 86.855469 88.632812 86.140625 C 88.640625 84.65625 88.65625 83.097656 88.804688 81.523438 C 88.839844 81.128906 88.878906 80.738281 88.929688 80.34375 L 89.003906 79.757812 L 89.101562 79.136719 L 89.152344 78.828125 L 89.199219 78.542969 L 89.296875 78.019531 L 89.34375 77.761719 L 89.351562 77.726562 L 89.367188 77.640625 L 89.378906 77.582031 L 89.394531 77.46875 L 89.464844 77.007812 C 89.550781 76.40625 89.664062 75.828125 89.703125 75.203125 C 88.71875 75.648438 87.714844 76.1875 86.738281 76.824219 C 85.847656 77.410156 84.984375 78.082031 84.191406 78.835938 C 83.402344 79.59375 82.667969 80.425781 82.054688 81.335938 C 81.757812 81.792969 81.457031 82.253906 81.210938 82.734375 C 81.078125 82.976562 80.949219 83.214844 80.84375 83.464844 L 80.679688 83.835938 L 80.59375 84.019531 L 80.574219 84.066406 L 80.570312 84.070312 C 80.566406 84.070312 80.550781 84.128906 80.550781 84.132812 L 80.539062 84.15625 L 80.492188 84.257812 C 80.253906 84.789062 80.019531 85.316406 79.785156 85.839844 C 79.679688 86.09375 79.523438 86.371094 79.382812 86.636719 C 79.238281 86.90625 79.097656 87.167969 78.957031 87.429688 C 78.699219 87.964844 78.351562 88.4375 78.046875 88.917969 C 77.753906 89.402344 77.394531 89.847656 77.054688 90.28125 C 76.734375 90.71875 76.339844 91.113281 75.980469 91.496094 C 75.886719 91.589844 75.796875 91.683594 75.710938 91.777344 C 75.617188 91.871094 75.511719 91.953125 75.417969 92.039062 C 75.222656 92.210938 75.035156 92.378906 74.84375 92.539062 C 74.664062 92.707031 74.453125 92.84375 74.257812 92.988281 C 74.058594 93.125 73.867188 93.261719 73.679688 93.394531 C 73.472656 93.511719 73.273438 93.621094 73.082031 93.734375 C 72.890625 93.84375 72.707031 93.953125 72.511719 94.03125 C 72.316406 94.117188 72.128906 94.203125 71.949219 94.28125 C 71.773438 94.363281 71.582031 94.414062 71.414062 94.476562 C 71.070312 94.605469 70.730469 94.675781 70.433594 94.75 C 69.832031 94.871094 69.347656 94.917969 69.015625 94.914062 C 68.847656 94.921875 68.71875 94.910156 68.632812 94.90625 C 68.546875 94.902344 68.496094 94.894531 68.496094 94.894531 L 68.523438 94.585938 C 68.527344 94.585938 68.558594 94.589844 68.636719 94.582031 C 68.710938 94.574219 68.824219 94.566406 68.976562 94.539062 C 69.273438 94.5 69.707031 94.398438 70.226562 94.214844 C 70.484375 94.109375 70.773438 94.007812 71.058594 93.847656 C 71.203125 93.769531 71.359375 93.703125 71.507812 93.609375 C 71.648438 93.515625 71.800781 93.417969 71.957031 93.320312 C 72.121094 93.226562 72.269531 93.109375 72.414062 92.984375 C 72.566406 92.863281 72.722656 92.738281 72.886719 92.613281 C 73.03125 92.472656 73.175781 92.328125 73.324219 92.179688 C 73.472656 92.027344 73.640625 91.890625 73.773438 91.714844 C 73.910156 91.546875 74.050781 91.375 74.195312 91.203125 C 74.265625 91.113281 74.34375 91.03125 74.410156 90.9375 C 74.472656 90.839844 74.535156 90.746094 74.601562 90.644531 C 74.855469 90.261719 75.136719 89.875 75.351562 89.433594 C 75.582031 89.003906 75.832031 88.570312 76.011719 88.09375 C 76.199219 87.621094 76.433594 87.152344 76.570312 86.65625 C 76.648438 86.410156 76.730469 86.164062 76.808594 85.914062 C 76.886719 85.664062 76.980469 85.433594 77.035156 85.148438 C 77.171875 84.601562 77.308594 84.046875 77.441406 83.488281 L 77.464844 83.386719 L 77.472656 83.359375 L 77.464844 83.375 L 77.480469 83.320312 L 77.535156 83.09375 L 77.648438 82.640625 C 77.714844 82.335938 77.808594 82.035156 77.910156 81.738281 C 78.089844 81.128906 78.339844 80.539062 78.59375 79.941406 C 79.648438 77.566406 81.347656 75.378906 83.28125 73.621094 C 85.21875 71.859375 87.359375 70.507812 89.296875 69.519531 C 89.527344 69.402344 89.753906 69.289062 89.976562 69.183594 C 89.984375 67.183594 89.96875 65.265625 89.914062 63.449219 C 89.226562 64.316406 88.453125 65.171875 87.5625 65.988281 C 84.992188 68.390625 81.492188 70.339844 77.75 71.382812 C 76.824219 71.683594 75.875 71.863281 74.925781 72.066406 L 74.574219 72.140625 L 74.269531 72.191406 L 73.664062 72.296875 C 73.257812 72.367188 72.851562 72.4375 72.445312 72.507812 C 71.613281 72.65625 70.777344 72.800781 69.9375 72.945312 C 69.675781 74.414062 69.292969 76.230469 68.722656 78.289062 C 67.964844 81.007812 66.894531 84.15625 65.230469 87.398438 C 64.398438 89.015625 63.414062 90.660156 62.226562 92.246094 C 61.039062 93.828125 59.640625 95.363281 57.996094 96.710938 C 57.183594 97.386719 56.285156 98.003906 55.359375 98.566406 C 54.484375 99.089844 53.628906 99.566406 52.777344 100.066406 C 51.117188 101.054688 49.472656 102.042969 47.953125 103.058594 C 46.410156 104.054688 45.003906 105.085938 43.726562 106.113281 C 42.457031 107.144531 41.382812 108.207031 40.488281 109.253906 C 40.089844 109.796875 39.664062 110.304688 39.375 110.835938 C 39.027344 111.347656 38.8125 111.875 38.582031 112.359375 C 38.523438 112.480469 38.480469 112.605469 38.441406 112.726562 C 38.402344 112.851562 38.363281 112.972656 38.324219 113.089844 C 38.253906 113.328125 38.160156 113.554688 38.113281 113.777344 C 38.039062 114.230469 37.929688 114.644531 37.898438 115.027344 C 37.871094 115.40625 37.851562 115.75 37.828125 116.046875 C 37.824219 116.34375 37.855469 116.597656 37.855469 116.804688 C 37.878906 117.21875 37.890625 117.441406 37.890625 117.441406 L 37.53125 117.484375 C 37.53125 117.484375 37.496094 117.261719 37.421875 116.839844 C 37.386719 116.632812 37.332031 116.375 37.296875 116.0625 C 37.28125 115.757812 37.257812 115.398438 37.238281 115 C 37.226562 114.601562 37.28125 114.160156 37.304688 113.671875 C 37.328125 113.429688 37.394531 113.183594 37.4375 112.921875 C 37.464844 112.792969 37.488281 112.660156 37.519531 112.527344 C 37.539062 112.390625 37.570312 112.253906 37.617188 112.121094 C 37.800781 111.578125 37.96875 110.988281 38.269531 110.40625 C 38.515625 109.804688 38.898438 109.226562 39.261719 108.597656 C 40.078125 107.398438 41.089844 106.160156 42.285156 104.957031 C 43.492188 103.769531 44.824219 102.558594 46.28125 101.398438 C 47.71875 100.210938 49.265625 99.0625 50.851562 97.894531 C 51.632812 97.328125 52.449219 96.757812 53.21875 96.183594 C 53.925781 95.652344 54.601562 95.082031 55.210938 94.453125 C 56.445312 93.207031 57.472656 91.800781 58.335938 90.335938 C 59.195312 88.875 59.886719 87.351562 60.449219 85.84375 C 61.574219 82.820312 62.207031 79.863281 62.597656 77.324219 C 62.765625 76.203125 62.886719 75.171875 62.96875 74.226562 C 61.242188 74.578125 59.550781 74.957031 57.933594 75.402344 C 56.460938 75.84375 55 76.296875 53.738281 76.910156 C 53.070312 77.1875 52.496094 77.550781 51.886719 77.886719 C 51.585938 78.058594 51.324219 78.273438 51.035156 78.464844 L 50.613281 78.753906 C 50.46875 78.855469 50.34375 78.972656 50.210938 79.082031 C 48.082031 80.808594 46.308594 83.085938 44.734375 85.40625 C 44.527344 85.707031 44.324219 86.003906 44.117188 86.300781 C 43.914062 86.597656 43.722656 86.882812 43.5 87.199219 C 43.0625 87.816406 42.621094 88.40625 42.175781 88.984375 C 41.277344 90.136719 40.320312 91.230469 39.308594 92.246094 C 37.296875 94.28125 35.042969 95.988281 32.667969 97.183594 C 30.300781 98.390625 27.855469 99.042969 25.679688 99.300781 C 23.5 99.558594 21.597656 99.457031 20.074219 99.28125 C 18.542969 99.097656 17.382812 98.835938 16.59375 98.65625 C 15.816406 98.453125 15.394531 98.347656 15.394531 98.347656 L 15.488281 98.046875 C 15.488281 98.046875 15.914062 98.113281 16.703125 98.230469 C 17.496094 98.328125 18.664062 98.464844 20.148438 98.484375 C 21.625 98.503906 23.425781 98.414062 25.371094 97.972656 C 27.316406 97.535156 29.386719 96.734375 31.316406 95.464844 C 33.246094 94.199219 35.023438 92.492188 36.574219 90.484375 C 37.347656 89.476562 38.074219 88.398438 38.75 87.261719 C 39.082031 86.6875 39.414062 86.105469 39.71875 85.523438 C 39.871094 85.242188 40.03125 84.917969 40.191406 84.605469 C 40.347656 84.289062 40.507812 83.976562 40.667969 83.660156 C 41.332031 82.355469 42.050781 81.023438 42.90625 79.691406 C 43.351562 79.03125 43.773438 78.351562 44.316406 77.695312 C 44.574219 77.371094 44.820312 77.035156 45.101562 76.707031 C 45.402344 76.390625 45.699219 76.066406 46 75.746094 C 46.152344 75.585938 46.289062 75.421875 46.460938 75.269531 L 46.96875 74.816406 C 47.3125 74.515625 47.640625 74.199219 48.007812 73.917969 C 48.757812 73.371094 49.5 72.792969 50.320312 72.332031 L 50.925781 71.964844 C 51.128906 71.839844 51.332031 71.722656 51.542969 71.621094 L 52.796875 70.988281 C 53.214844 70.765625 53.636719 70.605469 54.058594 70.414062 C 54.484375 70.234375 54.910156 70.042969 55.332031 69.867188 C 58.734375 68.539062 62.09375 67.550781 65.355469 66.601562 C 66.980469 66.140625 68.589844 65.683594 70.179688 65.226562 C 70.574219 65.117188 70.972656 65.007812 71.367188 64.894531 L 71.953125 64.730469 L 72.246094 64.644531 C 72.339844 64.617188 72.40625 64.59375 72.488281 64.566406 C 73.101562 64.351562 73.734375 64.171875 74.285156 63.914062 C 75.441406 63.457031 76.425781 62.875 77.300781 62.257812 C 77.511719 62.097656 77.722656 61.941406 77.933594 61.785156 C 78.125 61.613281 78.3125 61.441406 78.507812 61.269531 C 78.703125 61.113281 78.855469 60.917969 79.027344 60.742188 C 79.199219 60.566406 79.375 60.394531 79.515625 60.199219 C 80.746094 58.722656 81.507812 57.03125 81.976562 55.355469 C 82.042969 55.117188 82.101562 54.878906 82.15625 54.640625 C 81.9375 54.84375 81.710938 55.042969 81.492188 55.242188 C 81.34375 55.378906 81.191406 55.511719 81.042969 55.644531 C 80.886719 55.777344 80.730469 55.90625 80.570312 56.035156 C 80.25 56.292969 79.933594 56.550781 79.601562 56.804688 C 79.265625 57.046875 78.921875 57.292969 78.578125 57.539062 C 77.179688 58.496094 75.675781 59.394531 74.058594 60.15625 C 73.265625 60.558594 72.425781 60.894531 71.589844 61.242188 C 71.175781 61.425781 70.738281 61.558594 70.308594 61.71875 L 69.660156 61.949219 L 69.335938 62.0625 L 69.257812 62.09375 C 69.191406 62.117188 69.167969 62.125 69.15625 62.128906 C 69.15625 62.128906 69.152344 62.132812 69.140625 62.136719 L 69.101562 62.144531 L 68.953125 62.191406 C 68.144531 62.429688 67.421875 62.667969 66.453125 62.917969 C 65.996094 63.039062 65.527344 63.175781 65.078125 63.28125 C 64.628906 63.386719 64.179688 63.484375 63.722656 63.589844 C 61.90625 63.976562 60.050781 64.296875 58.175781 64.507812 C 58.050781 64.523438 57.925781 64.535156 57.800781 64.546875 C 57.1875 64.671875 56.542969 64.8125 55.859375 64.972656 C 53.65625 65.488281 51.113281 66.183594 48.574219 67.175781 C 47.3125 67.675781 46.050781 68.257812 44.894531 68.9375 L 44.460938 69.191406 L 44.046875 69.46875 C 43.761719 69.648438 43.511719 69.84375 43.25 70.039062 C 42.984375 70.234375 42.765625 70.449219 42.519531 70.652344 L 42.195312 70.976562 C 42.085938 71.085938 41.976562 71.195312 41.890625 71.308594 L 41.605469 71.652344 C 41.515625 71.769531 41.441406 71.890625 41.359375 72.007812 L 41.242188 72.1875 L 41.222656 72.203125 L 41.222656 72.207031 L 41.21875 72.207031 C 41.21875 72.210938 41.21875 72.210938 41.21875 72.214844 C 41.214844 72.214844 41.214844 72.21875 41.214844 72.21875 L 41.1875 72.261719 L 41.128906 72.375 L 40.875 72.839844 C 40.527344 73.464844 40.246094 74.046875 39.953125 74.632812 C 39.378906 75.847656 38.859375 77.09375 38.234375 78.320312 C 38.070312 78.632812 37.921875 78.9375 37.722656 79.234375 C 37.527344 79.539062 37.371094 79.835938 37.132812 80.117188 C 36.714844 80.691406 36.203125 81.214844 35.671875 81.667969 C 34.589844 82.597656 33.328125 83.132812 32.210938 83.589844 C 31.921875 83.6875 31.640625 83.785156 31.367188 83.878906 C 31.089844 83.96875 30.824219 84.070312 30.558594 84.132812 C 30.027344 84.273438 29.523438 84.40625 29.050781 84.535156 C 28.09375 84.730469 27.265625 84.917969 26.574219 85.035156 C 25.199219 85.261719 24.414062 85.390625 24.414062 85.390625 L 24.332031 85.09375 C 24.332031 85.09375 25.085938 84.882812 26.40625 84.511719 C 27.0625 84.320312 27.84375 84.054688 28.738281 83.761719 C 29.171875 83.59375 29.632812 83.410156 30.121094 83.222656 C 30.367188 83.136719 30.597656 83.015625 30.839844 82.902344 C 31.082031 82.789062 31.332031 82.671875 31.578125 82.550781 C 32.535156 82.027344 33.5625 81.433594 34.300781 80.59375 C 35.066406 79.777344 35.582031 78.769531 35.984375 77.609375 C 36.382812 76.445312 36.710938 75.15625 37.125 73.828125 C 37.347656 73.152344 37.574219 72.453125 37.816406 71.820312 L 38 71.335938 L 38.042969 71.214844 L 38.0625 71.15625 L 38.109375 71.058594 L 38.242188 70.777344 C 38.335938 70.589844 38.421875 70.398438 38.523438 70.214844 L 38.855469 69.683594 C 38.957031 69.503906 39.082031 69.335938 39.210938 69.167969 L 39.589844 68.671875 C 39.867188 68.367188 40.132812 68.039062 40.429688 67.757812 C 40.722656 67.46875 41.019531 67.171875 41.335938 66.914062 L 41.800781 66.515625 L 42.285156 66.140625 C 42.871094 65.691406 43.476562 65.28125 44.085938 64.890625 C 41.847656 64.871094 39.707031 64.898438 37.71875 65.15625 C 37.449219 65.1875 37.183594 65.226562 36.917969 65.269531 C 35.394531 65.519531 33.976562 65.921875 32.6875 66.542969 C 32.617188 66.578125 32.542969 66.613281 32.476562 66.652344 C 31.265625 67.246094 30.164062 68.023438 29.167969 68.90625 C 28.910156 69.152344 28.660156 69.394531 28.40625 69.636719 C 28.15625 69.886719 27.925781 70.148438 27.6875 70.402344 L 27.511719 70.597656 L 27.320312 70.808594 L 26.953125 71.230469 C 26.703125 71.511719 26.46875 71.785156 26.203125 72.066406 C 25.191406 73.207031 24.164062 74.253906 23.125 75.269531 C 21.054688 77.292969 18.910156 79.070312 16.785156 80.570312 C 14.652344 82.058594 12.535156 83.261719 10.503906 84.097656 C 8.476562 84.933594 6.558594 85.417969 4.929688 85.527344 C 3.304688 85.660156 2.019531 85.4375 1.207031 85.203125 C 0.796875 85.070312 0.492188 84.96875 0.296875 84.871094 C 0.0976562 84.789062 -0.0078125 84.746094 -0.0078125 84.746094 L 0.15625 84.46875 C 0.15625 84.46875 0.257812 84.503906 0.453125 84.566406 C 0.644531 84.636719 0.949219 84.710938 1.339844 84.804688 C 2.125 84.957031 3.332031 85.0625 4.816406 84.8125 C 6.300781 84.589844 8.027344 83.988281 9.832031 83.050781 C 11.640625 82.105469 13.511719 80.804688 15.367188 79.230469 C 17.210938 77.640625 19.054688 75.78125 20.808594 73.691406 C 21.679688 72.648438 22.558594 71.539062 23.378906 70.410156 C 23.585938 70.132812 23.796875 69.828125 24.007812 69.535156 L 24.328125 69.082031 L 24.488281 68.867188 L 24.664062 68.625 C 24.90625 68.3125 25.132812 67.984375 25.390625 67.667969 C 25.660156 67.359375 25.925781 67.046875 26.199219 66.734375 C 26.480469 66.425781 26.777344 66.121094 27.089844 65.824219 C 26.601562 65.8125 26.101562 65.8125 25.585938 65.824219 C 25.074219 65.851562 24.554688 65.882812 24.027344 65.910156 C 23.5 65.972656 22.964844 66.035156 22.429688 66.097656 C 22.15625 66.121094 21.890625 66.175781 21.621094 66.222656 C 21.347656 66.273438 21.078125 66.320312 20.808594 66.371094 L 19.988281 66.515625 L 19.179688 66.71875 C 18.058594 66.992188 16.945312 67.265625 15.84375 67.539062 C 15.308594 67.6875 14.699219 67.785156 14.128906 67.894531 C 13.839844 67.949219 13.554688 68.003906 13.269531 68.058594 C 12.988281 68.113281 12.699219 68.132812 12.421875 68.171875 C 11.304688 68.335938 10.203125 68.394531 9.160156 68.410156 C 8.894531 68.398438 8.636719 68.390625 8.382812 68.386719 C 8.125 68.375 7.878906 68.378906 7.632812 68.34375 C 7.386719 68.316406 7.148438 68.289062 6.910156 68.261719 C 6.792969 68.246094 6.675781 68.234375 6.558594 68.21875 C 6.445312 68.203125 6.332031 68.175781 6.21875 68.15625 C 5.773438 68.058594 5.34375 67.988281 4.953125 67.84375 C 4.753906 67.785156 4.5625 67.726562 4.378906 67.667969 C 4.199219 67.59375 4.023438 67.519531 3.859375 67.449219 C 3.1875 67.167969 2.667969 66.820312 2.269531 66.515625 C 1.882812 66.199219 1.613281 65.925781 1.460938 65.71875 C 1.375 65.617188 1.324219 65.53125 1.285156 65.472656 C 1.25 65.417969 1.230469 65.386719 1.230469 65.386719 L 1.550781 65.242188 C 1.550781 65.242188 1.570312 65.269531 1.605469 65.308594 C 1.644531 65.355469 1.699219 65.421875 1.789062 65.507812 C 1.953125 65.679688 2.238281 65.898438 2.625 66.152344 C 3.027344 66.386719 3.535156 66.648438 4.175781 66.835938 C 4.335938 66.886719 4.496094 66.9375 4.667969 66.988281 C 4.84375 67.019531 5.023438 67.058594 5.210938 67.09375 C 5.570312 67.183594 5.972656 67.203125 6.386719 67.246094 C 6.492188 67.257812 6.589844 67.273438 6.699219 67.277344 C 6.804688 67.277344 6.914062 67.28125 7.019531 67.28125 C 7.242188 67.28125 7.460938 67.28125 7.683594 67.285156 C 7.910156 67.296875 8.140625 67.265625 8.371094 67.25 C 8.601562 67.234375 8.839844 67.214844 9.078125 67.199219 C 10.03125 67.085938 11.027344 66.921875 12.042969 66.664062 C 12.296875 66.605469 12.554688 66.5625 12.804688 66.480469 C 13.058594 66.40625 13.304688 66.328125 13.5625 66.253906 C 14.066406 66.09375 14.566406 65.96875 15.105469 65.753906 C 16.164062 65.371094 17.246094 64.976562 18.324219 64.582031 L 19.15625 64.28125 L 20.019531 64.027344 C 20.308594 63.945312 20.59375 63.859375 20.878906 63.773438 C 21.167969 63.691406 21.449219 63.601562 21.746094 63.542969 C 22.332031 63.410156 22.914062 63.28125 23.488281 63.152344 C 24.074219 63.050781 24.660156 62.960938 25.234375 62.867188 C 26.386719 62.71875 27.527344 62.617188 28.625 62.605469 C 29.167969 62.574219 29.703125 62.605469 30.222656 62.621094 C 30.664062 62.628906 31.097656 62.671875 31.511719 62.710938 C 32.828125 62.058594 34.261719 61.554688 35.710938 61.1875 C 37.605469 60.703125 39.519531 60.4375 41.378906 60.25 C 43.238281 60.066406 45.054688 59.953125 46.824219 59.828125 C 50.367188 59.589844 53.734375 59.246094 56.917969 58.605469 C 58.515625 58.285156 60.050781 57.878906 61.542969 57.425781 C 61.910156 57.308594 62.28125 57.1875 62.648438 57.070312 C 63.015625 56.949219 63.34375 56.820312 63.691406 56.695312 C 64.332031 56.480469 65.15625 56.128906 65.902344 55.835938 L 66.042969 55.777344 L 66.070312 55.765625 L 66.097656 55.75 L 66.34375 55.636719 L 66.828125 55.414062 C 67.144531 55.261719 67.476562 55.132812 67.777344 54.960938 C 68.386719 54.636719 68.996094 54.328125 69.554688 53.972656 C 70.699219 53.304688 71.707031 52.554688 72.628906 51.785156 C 72.851562 51.589844 73.074219 51.394531 73.296875 51.203125 C 73.503906 50.996094 73.707031 50.796875 73.910156 50.597656 C 74.011719 50.496094 74.117188 50.398438 74.214844 50.296875 L 74.492188 49.988281 C 74.671875 49.78125 74.867188 49.582031 75.035156 49.371094 C 75.726562 48.542969 76.300781 47.691406 76.808594 46.859375 C 77.289062 46.007812 77.699219 45.175781 78.023438 44.359375 C 78.339844 43.535156 78.609375 42.75 78.792969 41.988281 C 79.179688 40.472656 79.324219 39.105469 79.386719 37.996094 C 79.433594 36.882812 79.386719 36.019531 79.332031 35.46875 C 79.3125 35.261719 79.289062 35.09375 79.269531 34.976562 L 107.714844 34.976562 C 107.695312 35.09375 107.671875 35.261719 107.652344 35.46875 C 107.597656 36.019531 107.550781 36.882812 107.597656 37.996094 C 107.660156 39.105469 107.804688 40.472656 108.195312 41.988281 C 108.375 42.75 108.644531 43.535156 108.960938 44.359375 C 109.285156 45.175781 109.695312 46.007812 110.175781 46.859375 C 110.683594 47.691406 111.257812 48.542969 111.953125 49.371094 C 112.117188 49.582031 112.3125 49.78125 112.492188 49.988281 L 112.769531 50.296875 C 112.871094 50.398438 112.972656 50.496094 113.074219 50.597656 C 113.277344 50.796875 113.480469 50.996094 113.6875 51.203125 C 113.914062 51.394531 114.132812 51.589844 114.355469 51.785156 C 115.277344 52.554688 116.285156 53.304688 117.433594 53.972656 C 117.988281 54.328125 118.597656 54.636719 119.207031 54.960938 C 119.503906 55.132812 119.839844 55.261719 120.15625 55.414062 L 120.640625 55.636719 L 120.886719 55.75 L 120.917969 55.765625 L 120.9375 55.777344 L 121.082031 55.835938 C 121.828125 56.128906 122.652344 56.480469 123.292969 56.695312 C 123.640625 56.820312 123.96875 56.949219 124.335938 57.070312 C 124.703125 57.1875 125.074219 57.308594 125.441406 57.425781 C 126.933594 57.878906 128.472656 58.285156 130.066406 58.605469 C 133.25 59.246094 136.621094 59.589844 140.160156 59.828125 C 141.929688 59.953125 143.746094 60.066406 145.609375 60.25 C 147.464844 60.4375 149.378906 60.703125 151.277344 61.1875 C 152.722656 61.554688 154.15625 62.058594 155.476562 62.710938 C 155.894531 62.671875 156.324219 62.628906 156.761719 62.621094 C 157.285156 62.605469 157.816406 62.574219 158.363281 62.605469 C 159.460938 62.617188 160.597656 62.71875 161.753906 62.867188 C 162.324219 62.960938 162.910156 63.050781 163.496094 63.152344 C 164.070312 63.28125 164.652344 63.410156 165.238281 63.542969 C 165.535156 63.601562 165.816406 63.691406 166.105469 63.773438 C 166.390625 63.859375 166.675781 63.945312 166.964844 64.027344 L 167.824219 64.28125 L 168.660156 64.582031 C 169.742188 64.976562 170.820312 65.371094 171.882812 65.753906 C 172.417969 65.96875 172.917969 66.09375 173.421875 66.253906 C 173.679688 66.328125 173.929688 66.40625 174.179688 66.480469 C 174.429688 66.5625 174.691406 66.605469 174.941406 66.664062 C 175.957031 66.921875 176.953125 67.085938 177.90625 67.199219 C 178.144531 67.214844 178.382812 67.234375 178.613281 67.25 C 178.84375 67.265625 179.074219 67.296875 179.300781 67.285156 C 179.523438 67.28125 179.742188 67.28125 179.960938 67.28125 C 180.070312 67.28125 180.179688 67.277344 180.285156 67.277344 C 180.394531 67.273438 180.496094 67.257812 180.597656 67.246094 C 181.007812 67.203125 181.414062 67.183594 181.777344 67.09375 C 181.960938 67.058594 182.140625 67.019531 182.316406 66.988281 C 182.488281 66.9375 182.648438 66.886719 182.808594 66.835938 C 183.453125 66.648438 183.957031 66.386719 184.359375 66.152344 C 184.746094 65.898438 185.03125 65.679688 185.195312 65.507812 C 185.285156 65.421875 185.339844 65.355469 185.378906 65.308594 C 185.414062 65.269531 185.433594 65.242188 185.433594 65.242188 L 185.753906 65.386719 C 185.753906 65.386719 185.734375 65.417969 185.695312 65.472656 C 185.660156 65.53125 185.609375 65.617188 185.523438 65.71875 C 185.371094 65.925781 185.101562 66.199219 184.714844 66.515625 C 184.316406 66.820312 183.796875 67.167969 183.125 67.449219 C 182.960938 67.519531 182.785156 67.59375 182.605469 67.667969 C 182.421875 67.726562 182.230469 67.785156 182.03125 67.84375 C 181.640625 67.988281 181.214844 68.058594 180.765625 68.15625 C 180.652344 68.175781 180.542969 68.203125 180.425781 68.21875 C 180.3125 68.234375 180.191406 68.246094 180.074219 68.261719 C 179.839844 68.289062 179.597656 68.316406 179.355469 68.34375 C 179.105469 68.378906 178.855469 68.375 178.601562 68.386719 C 178.351562 68.390625 178.089844 68.398438 177.828125 68.410156 C 176.785156 68.394531 175.683594 68.335938 174.5625 68.171875 C 174.285156 68.132812 173.996094 68.113281 173.714844 68.058594 C 173.429688 68.003906 173.144531 67.949219 172.855469 67.894531 C 172.285156 67.785156 171.671875 67.6875 171.140625 67.539062 C 170.039062 67.265625 168.925781 66.992188 167.804688 66.71875 L 166.996094 66.515625 L 166.179688 66.371094 C 165.90625 66.320312 165.632812 66.273438 165.367188 66.222656 C 165.09375 66.175781 164.828125 66.121094 164.554688 66.097656 C 164.015625 66.035156 163.484375 65.972656 162.957031 65.910156 C 162.429688 65.882812 161.910156 65.851562 161.398438 65.824219 C 160.886719 65.8125 160.382812 65.8125 159.898438 65.824219 C 160.207031 66.121094 160.507812 66.425781 160.789062 66.734375 C 161.058594 67.046875 161.324219 67.359375 161.597656 67.667969 C 161.851562 67.984375 162.078125 68.3125 162.320312 68.625 L 162.5 68.867188 L 162.660156 69.082031 L 162.976562 69.535156 C 163.1875 69.828125 163.398438 70.132812 163.609375 70.410156 C 164.425781 71.539062 165.304688 72.648438 166.179688 73.691406 C 167.929688 75.78125 169.769531 77.640625 171.617188 79.230469 C 173.472656 80.804688 175.34375 82.105469 177.152344 83.050781 C 178.953125 83.988281 180.683594 84.589844 182.167969 84.8125 C 183.652344 85.0625 184.859375 84.957031 185.644531 84.804688 C 186.035156 84.710938 186.339844 84.636719 186.53125 84.566406 C 186.730469 84.503906 186.832031 84.46875 186.832031 84.46875 L 186.992188 84.746094 " fill-opacity="1" fill-rule="nonzero"/></g></svg>