<svg xmlns="http://www.w3.org/2000/svg" xmlns:xlink="http://www.w3.org/1999/xlink" width="250" zoomAndPan="magnify" viewBox="0 0 187.5 187.499992" height="250" preserveAspectRatio="xMidYMid meet" version="1.0"><path fill="#215520" d="M 79.449219 171.121094 C 42.003906 164.371094 14.828125 131.808594 14.828125 93.695312 C 14.828125 51.925781 47.554688 17.652344 88.710938 15.167969 L 85.066406 22.460938 C 84.347656 23.898438 84.929688 25.652344 86.367188 26.371094 C 86.789062 26.578125 87.230469 26.679688 87.667969 26.679688 C 88.738281 26.679688 89.765625 26.089844 90.28125 25.066406 L 96.109375 13.414062 C 96.117188 13.398438 96.125 13.386719 96.128906 13.371094 C 96.148438 13.332031 96.167969 13.289062 96.183594 13.246094 C 96.21875 13.167969 96.246094 13.09375 96.269531 13.011719 C 96.28125 12.988281 96.289062 12.960938 96.292969 12.9375 C 96.3125 12.882812 96.328125 12.828125 96.339844 12.773438 C 96.347656 12.71875 96.363281 12.664062 96.371094 12.609375 C 96.378906 12.5625 96.386719 12.515625 96.394531 12.472656 C 96.417969 12.269531 96.421875 12.0625 96.402344 11.859375 C 96.398438 11.796875 96.394531 11.734375 96.382812 11.671875 C 96.382812 11.667969 96.382812 11.664062 96.382812 11.664062 C 96.371094 11.597656 96.359375 11.53125 96.34375 11.46875 C 96.34375 11.457031 96.339844 11.449219 96.339844 11.441406 C 96.324219 11.375 96.304688 11.308594 96.28125 11.242188 C 96.199219 10.976562 96.078125 10.71875 95.914062 10.480469 C 95.890625 10.441406 95.863281 10.402344 95.835938 10.363281 L 89.8125 1.703125 C 88.894531 0.378906 87.074219 0.0585938 85.757812 0.972656 C 84.433594 1.894531 84.105469 3.710938 85.027344 5.03125 L 88.042969 9.371094 C 67.527344 10.667969 48.417969 19.277344 33.75 33.945312 C 17.789062 49.90625 9 71.125 9 93.695312 C 9 113.621094 16.070312 132.972656 28.90625 148.175781 C 41.585938 163.203125 59.171875 173.386719 78.414062 176.851562 C 78.589844 176.886719 78.765625 176.902344 78.9375 176.902344 C 80.320312 176.902344 81.546875 175.914062 81.796875 174.503906 C 82.085938 172.917969 81.035156 171.402344 79.449219 171.121094 Z M 79.449219 171.121094 " fill-opacity="1" fill-rule="nonzero"/><path fill="#215520" d="M 178 93.695312 C 178 73.769531 170.933594 54.417969 158.097656 39.214844 C 145.414062 24.191406 127.828125 14.003906 108.585938 10.539062 C 107.003906 10.253906 105.488281 11.304688 105.203125 12.886719 C 104.914062 14.472656 105.96875 15.988281 107.550781 16.269531 C 144.996094 23.019531 172.175781 55.582031 172.175781 93.695312 C 172.175781 135.464844 139.449219 169.738281 98.289062 172.222656 L 101.9375 164.929688 C 102.652344 163.492188 102.070312 161.738281 100.632812 161.019531 C 99.191406 160.300781 97.441406 160.882812 96.71875 162.324219 L 90.894531 173.976562 C 90.886719 173.992188 90.878906 174.003906 90.875 174.019531 C 90.851562 174.058594 90.835938 174.101562 90.816406 174.144531 C 90.785156 174.222656 90.753906 174.296875 90.730469 174.378906 C 90.722656 174.402344 90.714844 174.429688 90.707031 174.453125 C 90.6875 174.507812 90.675781 174.5625 90.664062 174.617188 C 90.652344 174.671875 90.636719 174.726562 90.628906 174.78125 C 90.621094 174.824219 90.617188 174.875 90.609375 174.917969 C 90.582031 175.121094 90.578125 175.328125 90.597656 175.53125 C 90.601562 175.59375 90.609375 175.65625 90.621094 175.71875 C 90.621094 175.722656 90.621094 175.726562 90.621094 175.726562 C 90.628906 175.792969 90.640625 175.859375 90.65625 175.921875 C 90.660156 175.933594 90.664062 175.941406 90.664062 175.949219 C 90.675781 176.015625 90.695312 176.082031 90.71875 176.148438 C 90.800781 176.414062 90.921875 176.671875 91.085938 176.910156 C 91.089844 176.914062 91.089844 176.921875 91.097656 176.929688 C 91.117188 176.960938 91.140625 176.996094 91.167969 177.027344 L 97.191406 185.6875 C 97.753906 186.5 98.660156 186.9375 99.582031 186.9375 C 100.160156 186.9375 100.738281 186.769531 101.242188 186.417969 C 102.566406 185.496094 102.894531 183.679688 101.972656 182.359375 L 98.957031 178.019531 C 119.472656 176.722656 138.585938 168.113281 153.25 153.445312 C 169.210938 137.488281 178 116.265625 178 93.695312 Z M 178 93.695312 " fill-opacity="1" fill-rule="nonzero"/><path fill="#215520" d="M 93.5 61.644531 L 93.5 105.953125 C 93.5 78.308594 71.007812 55.816406 43.363281 55.816406 L 41.050781 55.816406 L 41.050781 58.128906 C 41.050781 85.773438 63.542969 108.265625 91.1875 108.265625 L 93.5 108.265625 L 93.5 134.488281 C 93.5 136.097656 94.804688 137.402344 96.414062 137.402344 C 98.023438 137.402344 99.328125 136.097656 99.328125 134.488281 L 99.328125 108.265625 L 102.152344 108.265625 C 126.304688 108.265625 145.949219 88.617188 145.949219 64.464844 L 145.949219 61.644531 L 143.125 61.644531 C 118.972656 61.644531 99.328125 81.289062 99.328125 105.441406 L 99.328125 61.644531 C 99.328125 60.035156 98.023438 58.730469 96.414062 58.730469 C 94.804688 58.730469 93.5 60.035156 93.5 61.644531 Z M 93.5 61.644531 " fill-opacity="1" fill-rule="nonzero"/></svg>