<svg xmlns="http://www.w3.org/2000/svg" xmlns:xlink="http://www.w3.org/1999/xlink" width="250" zoomAndPan="magnify" viewBox="0 0 187.5 187.499992" height="250" preserveAspectRatio="xMidYMid meet" version="1.0"><defs><clipPath id="a65005e909"><path d="M 0 27.394531 L 187 27.394531 L 187 157.546875 L 0 157.546875 Z M 0 27.394531 " clip-rule="nonzero"/></clipPath></defs><g clip-path="url(#a65005e909)"><path fill="#215520" d="M 138.148438 115.976562 C 134.25 89.386719 127.992188 82.179688 121.882812 60.933594 C 122.078125 79.710938 123.050781 97.675781 117.636719 116.128906 L 113.382812 131.746094 C 113.324219 117.824219 114.835938 104.933594 114.371094 90.199219 C 113.839844 81.210938 112.488281 72.679688 110.457031 64.417969 C 108.511719 56.5 102.261719 42.53125 102.25 42.480469 L 103.875 69.070312 C 103.886719 78.867188 102.707031 87.144531 101.855469 96.496094 L 97.792969 116.742188 L 94.714844 126.320312 L 94.8125 116.332031 C 94.957031 106.460938 95.199219 96.789062 95.152344 86.855469 C 95.015625 73.523438 93.242188 56.832031 89.761719 45.054688 L 81.746094 136.960938 C 79.519531 129.839844 78.453125 122.113281 77.421875 114.773438 L 76.34375 101.9375 C 76.175781 82.363281 76.796875 69.292969 79.277344 50.097656 C 80.269531 43.773438 82.960938 35.734375 83.339844 29.648438 C 74.273438 34.238281 70.253906 60.777344 68.769531 70.695312 C 67.203125 67.859375 66.46875 56.078125 61.613281 45.132812 C 61.496094 45.285156 60.027344 87.898438 59.167969 96.488281 C 58.863281 98.578125 53.167969 142.769531 54.210938 117.457031 L 53.371094 93.417969 C 52.0625 79.792969 47.683594 59.21875 39.5 46.992188 L 37.015625 44.070312 C 37.066406 46.835938 37.734375 48.953125 38.289062 51.863281 C 41.179688 67.019531 41.464844 77.746094 41.039062 93.160156 L 39.914062 109.875 L 36.675781 129.847656 L 35.460938 123.578125 C 33.480469 116.058594 31.808594 111.082031 28.011719 104.800781 C 22.886719 96.585938 11.28125 83.964844 1.027344 81.277344 C 3.171875 84.207031 6.328125 87.347656 8.707031 90.8125 C 17.195312 103.179688 19.84375 115.53125 21.175781 129.554688 L 20.261719 145.582031 C 17.347656 137.859375 8.695312 131.261719 0.00390625 128.898438 C 4.117188 133.324219 6.738281 134.832031 9.894531 141.71875 C 14.265625 151.257812 12.625 156.90625 15.710938 157.628906 L 173.035156 157.488281 C 173.457031 148.050781 175.453125 135.640625 177.941406 126.652344 C 179.925781 119.476562 182.761719 113.703125 185.148438 107.503906 C 173.394531 115.527344 171.3125 134.128906 168.867188 137.648438 C 168.5 123.464844 174.515625 94.457031 179.636719 82.609375 C 181.902344 77.371094 184.847656 72.957031 186.992188 68.273438 C 180.867188 70.035156 172.570312 80.019531 169.257812 88.3125 C 164.519531 79.515625 172.746094 50.191406 157.863281 27.394531 C 157.714844 31.726562 159.949219 39.339844 160.429688 44.238281 C 161.101562 51.078125 160.902344 57.9375 160.730469 64.785156 L 155.886719 99.066406 C 154.863281 103.628906 154.023438 111.054688 150.949219 113.917969 L 148.609375 93.175781 L 148.894531 52.125 C 145.105469 58.15625 141.675781 77.191406 141.128906 85.90625 Z M 138.148438 115.976562 " fill-opacity="1" fill-rule="evenodd"/></g></svg>