<svg xmlns="http://www.w3.org/2000/svg" xmlns:xlink="http://www.w3.org/1999/xlink" width="500" zoomAndPan="magnify" viewBox="0 0 375 112.499997" height="150" preserveAspectRatio="xMidYMid meet" version="1.0"><defs><g/><clipPath id="876d38ccbc"><rect x="0" width="297" y="0" height="69"/></clipPath><clipPath id="70be9528b3"><path d="M 53 55 L 344 55 L 344 112.003906 L 53 112.003906 Z M 53 55 " clip-rule="nonzero"/></clipPath><clipPath id="6d00d11d36"><rect x="0" width="291" y="0" height="58"/></clipPath></defs><g transform="matrix(1, 0, 0, 1, 32, 0)"><g clip-path="url(#876d38ccbc)"><g fill="#ffffff" fill-opacity="1"><g transform="translate(2.243572, 50.823484)"><g><path d="M 5.765625 0 L 5.765625 -35.703125 L 0.515625 -35.703125 L 0.515625 -44.203125 L 19.859375 -44.203125 L 19.859375 -35.703125 L 14.609375 -35.703125 L 14.609375 0 Z M 5.765625 0 "/></g></g></g><g fill="#ffffff" fill-opacity="1"><g transform="translate(23.491463, 50.823484)"><g><path d="M 1.953125 0 L 1.953125 -44.203125 L 10.75 -44.203125 L 10.75 -28.40625 L 14.921875 -28.40625 L 14.921875 -44.203125 L 23.71875 -44.203125 L 23.71875 0 L 14.921875 0 L 14.921875 -20.0625 L 10.75 -20.0625 L 10.75 0 Z M 1.953125 0 "/></g></g></g><g fill="#ffffff" fill-opacity="1"><g transform="translate(50.038384, 50.823484)"><g><path d="M 12.5 0.40625 C 8.9375 0.40625 6.226562 -0.679688 4.375 -2.859375 C 2.519531 -5.035156 1.59375 -8.097656 1.59375 -12.046875 L 1.59375 -33.078125 C 1.59375 -36.890625 2.519531 -39.765625 4.375 -41.703125 C 6.226562 -43.640625 8.9375 -44.609375 12.5 -44.609375 C 16.070312 -44.609375 18.78125 -43.640625 20.625 -41.703125 C 22.476562 -39.765625 23.40625 -36.890625 23.40625 -33.078125 L 23.40625 -12.046875 C 23.40625 -8.066406 22.476562 -4.992188 20.625 -2.828125 C 18.78125 -0.671875 16.070312 0.40625 12.5 0.40625 Z M 12.5 -7.71875 C 13.289062 -7.71875 13.820312 -8.0625 14.09375 -8.75 C 14.375 -9.4375 14.515625 -10.394531 14.515625 -11.625 L 14.515625 -33.234375 C 14.515625 -34.191406 14.382812 -34.972656 14.125 -35.578125 C 13.863281 -36.179688 13.335938 -36.484375 12.546875 -36.484375 C 11.078125 -36.484375 10.34375 -35.367188 10.34375 -33.140625 L 10.34375 -11.578125 C 10.34375 -10.304688 10.492188 -9.34375 10.796875 -8.6875 C 11.109375 -8.039062 11.675781 -7.71875 12.5 -7.71875 Z M 12.5 -7.71875 "/></g></g></g><g fill="#ffffff" fill-opacity="1"><g transform="translate(75.916502, 50.823484)"><g><path d="M 1.953125 0 L 1.953125 -44.203125 L 15.4375 -44.203125 L 19.140625 -17.234375 L 22.84375 -44.203125 L 36.421875 -44.203125 L 36.421875 0 L 28.34375 0 L 28.34375 -31.84375 L 23.25 0 L 15.328125 0 L 9.9375 -31.84375 L 9.9375 0 Z M 1.953125 0 "/></g></g></g><g fill="#ffffff" fill-opacity="1"><g transform="translate(115.170758, 50.823484)"><g><path d="M 0.765625 0 L 5.046875 -44.203125 L 20.015625 -44.203125 L 24.234375 0 L 15.84375 0 L 15.234375 -7.15625 L 9.875 -7.15625 L 9.359375 0 Z M 10.546875 -14.203125 L 14.5625 -14.203125 L 12.609375 -36.6875 L 12.1875 -36.6875 Z M 10.546875 -14.203125 "/></g></g></g><g fill="#ffffff" fill-opacity="1"><g transform="translate(140.997428, 50.823484)"><g><path d="M 12.453125 0.40625 C 8.441406 0.40625 5.539062 -0.585938 3.75 -2.578125 C 1.96875 -4.566406 1.078125 -7.769531 1.078125 -12.1875 L 1.078125 -16.515625 L 9.78125 -16.515625 L 9.78125 -11.015625 C 9.78125 -8.816406 10.484375 -7.71875 11.890625 -7.71875 C 12.671875 -7.71875 13.21875 -7.945312 13.53125 -8.40625 C 13.84375 -8.875 14 -9.65625 14 -10.75 C 14 -12.195312 13.828125 -13.390625 13.484375 -14.328125 C 13.140625 -15.273438 12.703125 -16.0625 12.171875 -16.6875 C 11.640625 -17.320312 10.6875 -18.3125 9.3125 -19.65625 L 5.5 -23.46875 C 2.550781 -26.34375 1.078125 -29.53125 1.078125 -33.03125 C 1.078125 -36.800781 1.941406 -39.671875 3.671875 -41.640625 C 5.410156 -43.617188 7.941406 -44.609375 11.265625 -44.609375 C 15.242188 -44.609375 18.109375 -43.550781 19.859375 -41.4375 C 21.609375 -39.332031 22.484375 -36.035156 22.484375 -31.546875 L 13.484375 -31.546875 L 13.421875 -34.578125 C 13.421875 -35.160156 13.257812 -35.625 12.9375 -35.96875 C 12.613281 -36.3125 12.160156 -36.484375 11.578125 -36.484375 C 10.890625 -36.484375 10.375 -36.289062 10.03125 -35.90625 C 9.6875 -35.53125 9.515625 -35.019531 9.515625 -34.375 C 9.515625 -32.925781 10.335938 -31.429688 11.984375 -29.890625 L 17.140625 -24.953125 C 18.335938 -23.785156 19.328125 -22.675781 20.109375 -21.625 C 20.898438 -20.582031 21.535156 -19.347656 22.015625 -17.921875 C 22.503906 -16.503906 22.75 -14.816406 22.75 -12.859375 C 22.75 -8.503906 21.945312 -5.203125 20.34375 -2.953125 C 18.75 -0.710938 16.117188 0.40625 12.453125 0.40625 Z M 12.453125 0.40625 "/></g></g></g><g fill="#ffffff" fill-opacity="1"><g transform="translate(165.58936, 50.823484)"><g/></g></g><g fill="#ffffff" fill-opacity="1"><g transform="translate(178.502872, 50.823484)"><g><path d="M 8.953125 0.515625 C 6.304688 0.515625 4.296875 -0.425781 2.921875 -2.3125 C 1.554688 -4.195312 0.875 -6.648438 0.875 -9.671875 C 0.875 -13.035156 1.351562 -15.738281 2.3125 -17.78125 C 3.269531 -19.820312 4.78125 -21.613281 6.84375 -23.15625 C 5.164062 -26.445312 4.328125 -29.289062 4.328125 -31.6875 C 4.328125 -34.195312 5.140625 -36.160156 6.765625 -37.578125 C 8.390625 -39.003906 10.488281 -39.71875 13.0625 -39.71875 C 15.601562 -39.71875 17.6875 -39.039062 19.3125 -37.6875 C 20.945312 -36.332031 21.765625 -34.4375 21.765625 -32 C 21.765625 -28.4375 19.789062 -25.09375 15.84375 -21.96875 L 17.4375 -18.21875 C 18.40625 -20.75 19.847656 -22.71875 21.765625 -24.125 L 25.265625 -18.671875 C 23.242188 -17.097656 21.597656 -14.492188 20.328125 -10.859375 L 24.796875 0 L 16.265625 0 L 15.328125 -2.421875 C 14.609375 -1.554688 13.691406 -0.847656 12.578125 -0.296875 C 11.460938 0.242188 10.253906 0.515625 8.953125 0.515625 Z M 14 -28.34375 C 14.34375 -28.726562 14.648438 -29.269531 14.921875 -29.96875 C 15.191406 -30.675781 15.328125 -31.351562 15.328125 -32 C 15.328125 -33.03125 14.832031 -33.546875 13.84375 -33.546875 C 13.425781 -33.546875 13.097656 -33.398438 12.859375 -33.109375 C 12.617188 -32.816406 12.5 -32.445312 12.5 -32 C 12.5 -31.113281 12.859375 -29.742188 13.578125 -27.890625 Z M 10.34375 -5.921875 C 10.988281 -5.921875 11.535156 -6.164062 11.984375 -6.65625 C 12.429688 -7.15625 12.722656 -7.734375 12.859375 -8.390625 L 9.828125 -15.6875 L 9.515625 -15.234375 C 9.242188 -14.816406 9.019531 -14.160156 8.84375 -13.265625 C 8.675781 -12.378906 8.59375 -11.507812 8.59375 -10.65625 L 8.59375 -10.390625 C 8.59375 -9.054688 8.691406 -7.976562 8.890625 -7.15625 C 9.097656 -6.332031 9.582031 -5.921875 10.34375 -5.921875 Z M 10.34375 -5.921875 "/></g></g></g><g fill="#ffffff" fill-opacity="1"><g transform="translate(205.358455, 50.823484)"><g/></g></g><g fill="#ffffff" fill-opacity="1"><g transform="translate(218.271967, 50.823484)"><g><path d="M 12.453125 0.40625 C 8.441406 0.40625 5.539062 -0.585938 3.75 -2.578125 C 1.96875 -4.566406 1.078125 -7.769531 1.078125 -12.1875 L 1.078125 -16.515625 L 9.78125 -16.515625 L 9.78125 -11.015625 C 9.78125 -8.816406 10.484375 -7.71875 11.890625 -7.71875 C 12.671875 -7.71875 13.21875 -7.945312 13.53125 -8.40625 C 13.84375 -8.875 14 -9.65625 14 -10.75 C 14 -12.195312 13.828125 -13.390625 13.484375 -14.328125 C 13.140625 -15.273438 12.703125 -16.0625 12.171875 -16.6875 C 11.640625 -17.320312 10.6875 -18.3125 9.3125 -19.65625 L 5.5 -23.46875 C 2.550781 -26.34375 1.078125 -29.53125 1.078125 -33.03125 C 1.078125 -36.800781 1.941406 -39.671875 3.671875 -41.640625 C 5.410156 -43.617188 7.941406 -44.609375 11.265625 -44.609375 C 15.242188 -44.609375 18.109375 -43.550781 19.859375 -41.4375 C 21.609375 -39.332031 22.484375 -36.035156 22.484375 -31.546875 L 13.484375 -31.546875 L 13.421875 -34.578125 C 13.421875 -35.160156 13.257812 -35.625 12.9375 -35.96875 C 12.613281 -36.3125 12.160156 -36.484375 11.578125 -36.484375 C 10.890625 -36.484375 10.375 -36.289062 10.03125 -35.90625 C 9.6875 -35.53125 9.515625 -35.019531 9.515625 -34.375 C 9.515625 -32.925781 10.335938 -31.429688 11.984375 -29.890625 L 17.140625 -24.953125 C 18.335938 -23.785156 19.328125 -22.675781 20.109375 -21.625 C 20.898438 -20.582031 21.535156 -19.347656 22.015625 -17.921875 C 22.503906 -16.503906 22.75 -14.816406 22.75 -12.859375 C 22.75 -8.503906 21.945312 -5.203125 20.34375 -2.953125 C 18.75 -0.710938 16.117188 0.40625 12.453125 0.40625 Z M 12.453125 0.40625 "/></g></g></g><g fill="#ffffff" fill-opacity="1"><g transform="translate(242.8639, 50.823484)"><g><path d="M 12.5 0.40625 C 8.9375 0.40625 6.226562 -0.679688 4.375 -2.859375 C 2.519531 -5.035156 1.59375 -8.097656 1.59375 -12.046875 L 1.59375 -33.078125 C 1.59375 -36.890625 2.519531 -39.765625 4.375 -41.703125 C 6.226562 -43.640625 8.9375 -44.609375 12.5 -44.609375 C 16.070312 -44.609375 18.78125 -43.640625 20.625 -41.703125 C 22.476562 -39.765625 23.40625 -36.890625 23.40625 -33.078125 L 23.40625 -12.046875 C 23.40625 -8.066406 22.476562 -4.992188 20.625 -2.828125 C 18.78125 -0.671875 16.070312 0.40625 12.5 0.40625 Z M 12.5 -7.71875 C 13.289062 -7.71875 13.820312 -8.0625 14.09375 -8.75 C 14.375 -9.4375 14.515625 -10.394531 14.515625 -11.625 L 14.515625 -33.234375 C 14.515625 -34.191406 14.382812 -34.972656 14.125 -35.578125 C 13.863281 -36.179688 13.335938 -36.484375 12.546875 -36.484375 C 11.078125 -36.484375 10.34375 -35.367188 10.34375 -33.140625 L 10.34375 -11.578125 C 10.34375 -10.304688 10.492188 -9.34375 10.796875 -8.6875 C 11.109375 -8.039062 11.675781 -7.71875 12.5 -7.71875 Z M 12.5 -7.71875 "/></g></g></g><g fill="#ffffff" fill-opacity="1"><g transform="translate(268.742018, 50.823484)"><g><path d="M 1.953125 0 L 1.953125 -44.203125 L 11.0625 -44.203125 L 15.125 -23.046875 L 15.125 -44.203125 L 23.671875 -44.203125 L 23.671875 0 L 15.03125 0 L 10.59375 -22.125 L 10.59375 0 Z M 1.953125 0 "/></g></g></g></g></g><g clip-path="url(#70be9528b3)"><g transform="matrix(1, 0, 0, 1, 53, 55)"><g clip-path="url(#6d00d11d36)"><g fill="#ffffff" fill-opacity="1"><g transform="translate(1.698858, 48.432139)"><g><path d="M 1.625 0 L 1.625 -36.796875 L 9 -36.796875 L 9 -6.25 L 16.578125 -6.25 L 16.578125 0 Z M 1.625 0 "/></g></g></g><g fill="#ffffff" fill-opacity="1"><g transform="translate(19.432624, 48.432139)"><g><path d="M 0.640625 0 L 4.203125 -36.796875 L 16.671875 -36.796875 L 20.171875 0 L 13.203125 0 L 12.6875 -5.953125 L 8.21875 -5.953125 L 7.796875 0 Z M 8.78125 -11.828125 L 12.125 -11.828125 L 10.5 -30.546875 L 10.15625 -30.546875 Z M 8.78125 -11.828125 "/></g></g></g><g fill="#ffffff" fill-opacity="1"><g transform="translate(40.935831, 48.432139)"><g><path d="M 1.625 0 L 1.625 -36.796875 L 9.21875 -36.796875 L 12.59375 -19.1875 L 12.59375 -36.796875 L 19.703125 -36.796875 L 19.703125 0 L 12.515625 0 L 8.828125 -18.421875 L 8.828125 0 Z M 1.625 0 "/></g></g></g><g fill="#ffffff" fill-opacity="1"><g transform="translate(62.995881, 48.432139)"><g><path d="M 1.625 -36.796875 L 11.78125 -36.796875 C 14.40625 -36.796875 16.375 -36.066406 17.6875 -34.609375 C 19.007812 -33.160156 19.679688 -31.003906 19.703125 -28.140625 L 19.796875 -10.921875 C 19.828125 -7.296875 19.195312 -4.566406 17.90625 -2.734375 C 16.625 -0.910156 14.5 0 11.53125 0 L 1.625 0 Z M 10.328125 -6.515625 C 11.671875 -6.515625 12.34375 -7.171875 12.34375 -8.484375 L 12.34375 -27.46875 C 12.34375 -28.289062 12.273438 -28.910156 12.140625 -29.328125 C 12.015625 -29.742188 11.78125 -30.019531 11.4375 -30.15625 C 11.09375 -30.300781 10.566406 -30.375 9.859375 -30.375 L 9.046875 -30.375 L 9.046875 -6.515625 Z M 10.328125 -6.515625 "/></g></g></g><g fill="#ffffff" fill-opacity="1"><g transform="translate(84.841751, 48.432139)"><g><path d="M 10.375 0.34375 C 7.03125 0.34375 4.613281 -0.484375 3.125 -2.140625 C 1.644531 -3.796875 0.90625 -6.46875 0.90625 -10.15625 L 0.90625 -13.75 L 8.140625 -13.75 L 8.140625 -9.171875 C 8.140625 -7.335938 8.722656 -6.421875 9.890625 -6.421875 C 10.546875 -6.421875 11.003906 -6.613281 11.265625 -7 C 11.523438 -7.382812 11.65625 -8.035156 11.65625 -8.953125 C 11.65625 -10.148438 11.507812 -11.140625 11.21875 -11.921875 C 10.9375 -12.710938 10.570312 -13.375 10.125 -13.90625 C 9.6875 -14.4375 8.894531 -15.253906 7.75 -16.359375 L 4.578125 -19.53125 C 2.128906 -21.9375 0.90625 -24.59375 0.90625 -27.5 C 0.90625 -30.644531 1.625 -33.035156 3.0625 -34.671875 C 4.507812 -36.316406 6.613281 -37.140625 9.375 -37.140625 C 12.695312 -37.140625 15.082031 -36.257812 16.53125 -34.5 C 17.988281 -32.75 18.71875 -30.003906 18.71875 -26.265625 L 11.21875 -26.265625 L 11.1875 -28.796875 C 11.1875 -29.273438 11.050781 -29.65625 10.78125 -29.9375 C 10.507812 -30.226562 10.128906 -30.375 9.640625 -30.375 C 9.066406 -30.375 8.632812 -30.21875 8.34375 -29.90625 C 8.0625 -29.59375 7.921875 -29.164062 7.921875 -28.625 C 7.921875 -27.414062 8.609375 -26.171875 9.984375 -24.890625 L 14.265625 -20.78125 C 15.265625 -19.8125 16.09375 -18.890625 16.75 -18.015625 C 17.40625 -17.140625 17.929688 -16.109375 18.328125 -14.921875 C 18.734375 -13.742188 18.9375 -12.34375 18.9375 -10.71875 C 18.9375 -7.082031 18.269531 -4.328125 16.9375 -2.453125 C 15.613281 -0.585938 13.425781 0.34375 10.375 0.34375 Z M 10.375 0.34375 "/></g></g></g><g fill="#ffffff" fill-opacity="1"><g transform="translate(105.31692, 48.432139)"><g><path d="M 10.203125 0.34375 C 7.515625 0.34375 5.363281 -0.5 3.75 -2.1875 C 2.132812 -3.875 1.328125 -6.1875 1.328125 -9.125 L 1.328125 -26.09375 C 1.328125 -29.75 2.054688 -32.503906 3.515625 -34.359375 C 4.972656 -36.210938 7.257812 -37.140625 10.375 -37.140625 C 13.082031 -37.140625 15.265625 -36.394531 16.921875 -34.90625 C 18.578125 -33.425781 19.40625 -31.285156 19.40625 -28.484375 L 19.40625 -22.15625 L 12.078125 -22.15625 L 12.078125 -27.59375 C 12.078125 -28.644531 11.945312 -29.367188 11.6875 -29.765625 C 11.4375 -30.171875 11 -30.375 10.375 -30.375 C 9.707031 -30.375 9.253906 -30.144531 9.015625 -29.6875 C 8.773438 -29.226562 8.65625 -28.554688 8.65625 -27.671875 L 8.65625 -9.21875 C 8.65625 -8.238281 8.796875 -7.523438 9.078125 -7.078125 C 9.367188 -6.640625 9.800781 -6.421875 10.375 -6.421875 C 11.507812 -6.421875 12.078125 -7.351562 12.078125 -9.21875 L 12.078125 -15.859375 L 19.5 -15.859375 L 19.5 -8.90625 C 19.5 -2.738281 16.398438 0.34375 10.203125 0.34375 Z M 10.203125 0.34375 "/></g></g></g><g fill="#ffffff" fill-opacity="1"><g transform="translate(126.348931, 48.432139)"><g><path d="M 0.640625 0 L 4.203125 -36.796875 L 16.671875 -36.796875 L 20.171875 0 L 13.203125 0 L 12.6875 -5.953125 L 8.21875 -5.953125 L 7.796875 0 Z M 8.78125 -11.828125 L 12.125 -11.828125 L 10.5 -30.546875 L 10.15625 -30.546875 Z M 8.78125 -11.828125 "/></g></g></g><g fill="#ffffff" fill-opacity="1"><g transform="translate(147.852138, 48.432139)"><g><path d="M 1.625 -36.796875 L 11.359375 -36.796875 C 14.296875 -36.796875 16.390625 -35.847656 17.640625 -33.953125 C 18.898438 -32.054688 19.53125 -29.28125 19.53125 -25.625 C 19.53125 -21.96875 18.972656 -19.207031 17.859375 -17.34375 C 16.742188 -15.488281 14.75 -14.5625 11.875 -14.5625 L 8.875 -14.5625 L 8.875 0 L 1.625 0 Z M 9.296875 -21.203125 C 10.179688 -21.203125 10.832031 -21.363281 11.25 -21.6875 C 11.664062 -22.019531 11.9375 -22.492188 12.0625 -23.109375 C 12.1875 -23.722656 12.25 -24.601562 12.25 -25.75 C 12.25 -27.289062 12.078125 -28.40625 11.734375 -29.09375 C 11.390625 -29.78125 10.707031 -30.125 9.6875 -30.125 L 8.875 -30.125 L 8.875 -21.203125 Z M 9.296875 -21.203125 "/></g></g></g><g fill="#ffffff" fill-opacity="1"><g transform="translate(168.798502, 48.432139)"><g><path d="M 1.28125 0 L 1.28125 -36.796875 L 8.390625 -36.796875 L 8.390625 0 Z M 1.28125 0 "/></g></g></g><g fill="#ffffff" fill-opacity="1"><g transform="translate(179.250426, 48.432139)"><g><path d="M 1.625 0 L 1.625 -36.796875 L 9.21875 -36.796875 L 12.59375 -19.1875 L 12.59375 -36.796875 L 19.703125 -36.796875 L 19.703125 0 L 12.515625 0 L 8.828125 -18.421875 L 8.828125 0 Z M 1.625 0 "/></g></g></g><g fill="#ffffff" fill-opacity="1"><g transform="translate(201.310476, 48.432139)"><g><path d="M 9.21875 0.34375 C 6.5625 0.34375 4.582031 -0.585938 3.28125 -2.453125 C 1.976562 -4.328125 1.328125 -7.164062 1.328125 -10.96875 L 1.328125 -26.8125 C 1.328125 -30.21875 2.082031 -32.789062 3.59375 -34.53125 C 5.113281 -36.269531 7.375 -37.140625 10.375 -37.140625 C 12.800781 -37.140625 14.679688 -36.65625 16.015625 -35.6875 C 17.359375 -34.71875 18.285156 -33.300781 18.796875 -31.4375 C 19.316406 -29.582031 19.578125 -27.203125 19.578125 -24.296875 L 12.375 -24.296875 L 12.375 -27.59375 C 12.375 -28.476562 12.253906 -29.160156 12.015625 -29.640625 C 11.773438 -30.128906 11.34375 -30.375 10.71875 -30.375 C 9.3125 -30.375 8.609375 -29.460938 8.609375 -27.640625 L 8.609375 -9.8125 C 8.609375 -8.695312 8.75 -7.851562 9.03125 -7.28125 C 9.320312 -6.707031 9.828125 -6.421875 10.546875 -6.421875 C 11.253906 -6.421875 11.75 -6.707031 12.03125 -7.28125 C 12.320312 -7.851562 12.46875 -8.695312 12.46875 -9.8125 L 12.46875 -15.078125 L 10.5 -15.078125 L 10.5 -21.421875 L 19.5 -21.421875 L 19.5 0 L 16.53125 0 L 15.296875 -3.078125 C 13.984375 -0.796875 11.957031 0.34375 9.21875 0.34375 Z M 9.21875 0.34375 "/></g></g></g><g fill="#ffffff" fill-opacity="1"><g transform="translate(222.813683, 48.432139)"><g/></g></g><g fill="#ffffff" fill-opacity="1"><g transform="translate(233.565434, 48.432139)"><g><path d="M 1.625 0 L 1.625 -36.796875 L 9 -36.796875 L 9 -6.25 L 16.578125 -6.25 L 16.578125 0 Z M 1.625 0 "/></g></g></g><g fill="#ffffff" fill-opacity="1"><g transform="translate(251.2992, 48.432139)"><g><path d="M 1.625 0 L 1.625 -36.796875 L 9 -36.796875 L 9 -6.25 L 16.578125 -6.25 L 16.578125 0 Z M 1.625 0 "/></g></g></g><g fill="#ffffff" fill-opacity="1"><g transform="translate(269.032966, 48.432139)"><g><path d="M 10.203125 0.34375 C 7.515625 0.34375 5.363281 -0.5 3.75 -2.1875 C 2.132812 -3.875 1.328125 -6.1875 1.328125 -9.125 L 1.328125 -26.09375 C 1.328125 -29.75 2.054688 -32.503906 3.515625 -34.359375 C 4.972656 -36.210938 7.257812 -37.140625 10.375 -37.140625 C 13.082031 -37.140625 15.265625 -36.394531 16.921875 -34.90625 C 18.578125 -33.425781 19.40625 -31.285156 19.40625 -28.484375 L 19.40625 -22.15625 L 12.078125 -22.15625 L 12.078125 -27.59375 C 12.078125 -28.644531 11.945312 -29.367188 11.6875 -29.765625 C 11.4375 -30.171875 11 -30.375 10.375 -30.375 C 9.707031 -30.375 9.253906 -30.144531 9.015625 -29.6875 C 8.773438 -29.226562 8.65625 -28.554688 8.65625 -27.671875 L 8.65625 -9.21875 C 8.65625 -8.238281 8.796875 -7.523438 9.078125 -7.078125 C 9.367188 -6.640625 9.800781 -6.421875 10.375 -6.421875 C 11.507812 -6.421875 12.078125 -7.351562 12.078125 -9.21875 L 12.078125 -15.859375 L 19.5 -15.859375 L 19.5 -8.90625 C 19.5 -2.738281 16.398438 0.34375 10.203125 0.34375 Z M 10.203125 0.34375 "/></g></g></g></g></g></g></svg>