<svg xmlns="http://www.w3.org/2000/svg" xmlns:xlink="http://www.w3.org/1999/xlink" width="500" zoomAndPan="magnify" viewBox="0 0 375 374.999991" height="500" preserveAspectRatio="xMidYMid meet" version="1.0"><defs><clipPath id="88820f522d"><path d="M 187.5 0 C 83.945312 0 0 83.945312 0 187.5 C 0 291.054688 83.945312 375 187.5 375 C 291.054688 375 375 291.054688 375 187.5 C 375 83.945312 291.054688 0 187.5 0 Z M 187.5 0 " clip-rule="nonzero"/></clipPath><clipPath id="63e6d47864"><path d="M 0 0 L 375 0 L 375 375 L 0 375 Z M 0 0 " clip-rule="nonzero"/></clipPath><clipPath id="abc9a680d7"><path d="M 187.5 0 C 83.945312 0 0 83.945312 0 187.5 C 0 291.054688 83.945312 375 187.5 375 C 291.054688 375 375 291.054688 375 187.5 C 375 83.945312 291.054688 0 187.5 0 Z M 187.5 0 " clip-rule="nonzero"/></clipPath><clipPath id="2b563b9061"><rect x="0" width="375" y="0" height="375"/></clipPath><clipPath id="a12ba0ff09"><path d="M 83 197 L 292 197 L 292 262.578125 L 83 262.578125 Z M 83 197 " clip-rule="nonzero"/></clipPath><clipPath id="a1926f0fc6"><path d="M 70.664062 122 L 149 122 L 149 253 L 70.664062 253 Z M 70.664062 122 " clip-rule="nonzero"/></clipPath><clipPath id="4b7fc60eb7"><path d="M 83 112.578125 L 292 112.578125 L 292 201 L 83 201 Z M 83 112.578125 " clip-rule="nonzero"/></clipPath><clipPath id="4cb832e5a1"><path d="M 226 122 L 304.664062 122 L 304.664062 253 L 226 253 Z M 226 122 " clip-rule="nonzero"/></clipPath></defs><g clip-path="url(#88820f522d)"><g transform="matrix(1, 0, 0, 1, 0, 0)"><g clip-path="url(#2b563b9061)"><g clip-path="url(#63e6d47864)"><g clip-path="url(#abc9a680d7)"><rect x="-82.5" width="540" fill="#efd3ab" height="539.999987" y="-82.499998" fill-opacity="1"/></g></g></g></g></g><g clip-path="url(#a12ba0ff09)"><path fill="#1c681b" d="M 291.429688 259.691406 L 218.097656 198.804688 C 215.953125 197.023438 212.847656 197.023438 210.703125 198.804688 L 190.949219 215.207031 C 188.960938 216.859375 186.078125 216.859375 184.089844 215.207031 L 164.335938 198.804688 C 162.191406 197.023438 159.085938 197.023438 156.9375 198.804688 L 83.609375 259.691406 C 82.601562 260.53125 83.191406 262.167969 84.503906 262.167969 L 290.535156 262.167969 C 291.84375 262.167969 292.4375 260.53125 291.429688 259.691406 " fill-opacity="1" fill-rule="nonzero"/></g><g clip-path="url(#a1926f0fc6)"><path fill="#1c681b" d="M 147.78125 185.058594 L 72.992188 122.960938 C 72.082031 122.203125 70.695312 122.851562 70.695312 124.039062 L 70.695312 250.941406 C 70.695312 252.128906 72.082031 252.777344 72.992188 252.023438 L 147.78125 189.925781 C 149.304688 188.65625 149.304688 186.320312 147.78125 185.058594 " fill-opacity="1" fill-rule="nonzero"/></g><g clip-path="url(#4b7fc60eb7)"><path fill="#1c681b" d="M 83.609375 115.289062 L 184.710938 199.238281 C 186.339844 200.585938 188.699219 200.585938 190.324219 199.238281 L 291.429688 115.289062 C 292.4375 114.453125 291.84375 112.808594 290.535156 112.808594 L 84.503906 112.808594 C 83.191406 112.808594 82.601562 114.453125 83.609375 115.289062 " fill-opacity="1" fill-rule="nonzero"/></g><g clip-path="url(#4cb832e5a1)"><path fill="#1c681b" d="M 302.046875 122.960938 L 227.261719 185.058594 C 225.738281 186.320312 225.738281 188.65625 227.261719 189.925781 L 302.046875 252.023438 C 302.960938 252.777344 304.34375 252.128906 304.34375 250.945312 L 304.34375 124.039062 C 304.34375 122.851562 302.960938 122.203125 302.046875 122.960938 " fill-opacity="1" fill-rule="nonzero"/></g></svg>