<svg xmlns="http://www.w3.org/2000/svg" xmlns:xlink="http://www.w3.org/1999/xlink" width="500" zoomAndPan="magnify" viewBox="0 0 375 374.999991" height="500" preserveAspectRatio="xMidYMid meet" version="1.0"><defs><clipPath id="b417f2e18a"><path d="M 19 67.265625 L 356 67.265625 L 356 208 L 19 208 Z M 19 67.265625 " clip-rule="nonzero"/></clipPath></defs><path fill="#1c681b" d="M 354.304688 303.367188 L 236.617188 205.644531 C 233.175781 202.789062 228.191406 202.789062 224.75 205.644531 L 193.042969 231.972656 C 189.851562 234.621094 185.226562 234.621094 182.039062 231.972656 L 150.332031 205.644531 C 146.890625 202.789062 141.90625 202.789062 138.460938 205.644531 L 20.773438 303.367188 C 19.15625 304.710938 20.105469 307.34375 22.214844 307.34375 L 352.867188 307.34375 C 354.972656 307.34375 355.921875 304.710938 354.304688 303.367188 " fill-opacity="1" fill-rule="nonzero"/><path fill="#1c681b" d="M 123.761719 183.585938 L 3.734375 83.925781 C 2.273438 82.707031 0.0507812 83.75 0.0507812 85.65625 L 0.0507812 289.320312 C 0.0507812 291.226562 2.273438 292.269531 3.734375 291.054688 L 123.761719 191.394531 C 126.207031 189.363281 126.207031 185.613281 123.761719 183.585938 " fill-opacity="1" fill-rule="nonzero"/><g clip-path="url(#b417f2e18a)"><path fill="#1c681b" d="M 20.777344 71.613281 L 183.035156 206.339844 C 185.648438 208.507812 189.433594 208.507812 192.042969 206.339844 L 354.304688 71.613281 C 355.921875 70.269531 354.972656 67.636719 352.867188 67.636719 L 22.214844 67.636719 C 20.105469 67.636719 19.15625 70.269531 20.777344 71.613281 " fill-opacity="1" fill-rule="nonzero"/></g><path fill="#1c681b" d="M 371.347656 83.925781 L 251.320312 183.585938 C 248.875 185.613281 248.875 189.363281 251.320312 191.394531 L 371.347656 291.054688 C 372.808594 292.269531 375.027344 291.230469 375.027344 289.324219 L 375.027344 85.65625 C 375.027344 83.75 372.808594 82.707031 371.347656 83.925781 " fill-opacity="1" fill-rule="nonzero"/></svg>