<svg xmlns="http://www.w3.org/2000/svg" xmlns:xlink="http://www.w3.org/1999/xlink" width="500" zoomAndPan="magnify" viewBox="0 0 375 374.999991" height="500" preserveAspectRatio="xMidYMid meet" version="1.0"><defs><clipPath id="29be5a2833"><path d="M 0 250 L 52 250 L 52 302.671875 L 0 302.671875 Z M 0 250 " clip-rule="nonzero"/></clipPath><clipPath id="3774ab97e9"><path d="M 199 72.421875 L 375 72.421875 L 375 227 L 199 227 Z M 199 72.421875 " clip-rule="nonzero"/></clipPath></defs><path fill="#1c681b" d="M 156.207031 261.382812 C 157.574219 242.171875 173.054688 226.621094 192.253906 225.1875 C 192.957031 225.132812 193.667969 225.101562 194.363281 225.089844 L 261.835938 166.285156 L 232.28125 171.304688 L 222.125 173.03125 L 193.019531 177.972656 C 188.417969 178.753906 184.292969 181.234375 181.46875 184.9375 C 174.996094 193.390625 163.625 208.253906 163 209.089844 C 162.753906 209.417969 162.332031 210.789062 161.839844 212.601562 C 159.84375 220.003906 153.386719 225.355469 145.734375 225.953125 L 132.585938 226.972656 L 132.585938 237.34375 C 137.738281 239.910156 138.917969 243.09375 138.917969 245.480469 C 138.917969 254.546875 122.972656 257.769531 109.3125 257.769531 C 99.855469 257.769531 87.867188 256.085938 82.582031 251.371094 L 78.90625 248.089844 L 58.769531 248.089844 C 54.25 248.089844 50.566406 244.40625 50.566406 239.875 L 50.566406 233.367188 L 26.894531 235.203125 C 22.402344 235.558594 18.433594 238.273438 16.480469 242.347656 L 16.113281 243.105469 L 14.652344 248.363281 C 18.144531 246.953125 21.953125 246.183594 25.9375 246.183594 C 27.011719 246.183594 28.082031 246.234375 29.171875 246.351562 C 43.371094 247.835938 54.75 259.308594 56.132812 273.507812 C 56.511719 277.328125 56.167969 281.03125 55.21875 284.496094 C 68.804688 289.0625 82.863281 290.664062 95.898438 290.664062 C 126.550781 290.664062 151.566406 281.804688 151.566406 281.804688 L 160.300781 281.804688 C 157.222656 275.734375 155.691406 268.75 156.207031 261.382812 " fill-opacity="1" fill-rule="nonzero"/><path fill="#1c681b" d="M 292.574219 174.753906 L 281.5625 165.4375 L 209.878906 227.914062 C 220.917969 232.371094 229.46875 241.722656 232.835938 253.261719 L 291.972656 237.265625 C 294.5625 236.570312 296.34375 234.167969 296.246094 231.476562 L 294.433594 178.589844 C 294.378906 177.101562 293.714844 175.710938 292.574219 174.753906 " fill-opacity="1" fill-rule="nonzero"/><path fill="#1c681b" d="M 195.253906 284.882812 C 188.816406 284.882812 182.859375 281.953125 178.910156 276.84375 C 176.078125 273.195312 174.582031 268.824219 174.582031 264.214844 C 174.582031 252.8125 183.855469 243.542969 195.253906 243.542969 C 205.375 243.542969 214.164062 251.089844 215.683594 261.089844 C 215.84375 262.078125 215.925781 263.132812 215.925781 264.214844 C 215.925781 275.613281 206.652344 284.882812 195.253906 284.882812 Z M 195.253906 230.351562 C 176.578125 230.351562 161.390625 245.539062 161.390625 264.214844 C 161.390625 270.082031 162.910156 275.859375 165.796875 280.933594 C 171.8125 291.507812 183.105469 298.078125 195.253906 298.078125 C 213.925781 298.078125 229.117188 282.886719 229.117188 264.214844 C 229.117188 261.109375 228.703125 258.058594 227.875 255.128906 C 223.828125 240.535156 210.417969 230.351562 195.253906 230.351562 " fill-opacity="1" fill-rule="nonzero"/><path fill="#1c681b" d="M 195.253906 257.175781 C 191.371094 257.175781 188.214844 260.332031 188.214844 264.214844 C 188.214844 265.835938 188.765625 267.324219 189.691406 268.511719 C 190.976562 270.175781 192.992188 271.25 195.253906 271.25 C 199.136719 271.25 202.289062 268.09375 202.289062 264.214844 C 202.289062 263.855469 202.265625 263.5 202.207031 263.148438 C 201.695312 259.773438 198.773438 257.175781 195.253906 257.175781 " fill-opacity="1" fill-rule="nonzero"/><g clip-path="url(#29be5a2833)"><path fill="#1c681b" d="M 42.140625 278.039062 C 41.75 282.175781 39.78125 285.867188 36.867188 288.527344 C 33.957031 291.179688 30.097656 292.800781 25.9375 292.800781 C 16.964844 292.800781 9.664062 285.5 9.664062 276.527344 C 9.664062 271.410156 12.128906 266.527344 16.253906 263.46875 C 19.066406 261.363281 22.417969 260.253906 25.9375 260.253906 C 34.90625 260.253906 42.207031 267.554688 42.207031 276.527344 C 42.207031 277.003906 42.183594 277.503906 42.140625 278.039062 Z M 25.9375 250.582031 C 21.652344 250.582031 17.582031 251.59375 13.824219 253.589844 C 5.292969 258.09375 -0.0117188 266.878906 -0.0117188 276.527344 C -0.0117188 290.835938 11.625 302.476562 25.9375 302.476562 C 37.742188 302.476562 48.066406 294.503906 51.039062 283.105469 C 51.601562 280.980469 51.882812 278.769531 51.882812 276.527344 C 51.882812 262.21875 40.246094 250.582031 25.9375 250.582031 " fill-opacity="1" fill-rule="nonzero"/></g><path fill="#1c681b" d="M 25.9375 270.035156 C 24.496094 270.035156 23.15625 270.511719 22.078125 271.316406 C 20.480469 272.5 19.445312 274.394531 19.445312 276.527344 C 19.445312 280.105469 22.359375 283.015625 25.9375 283.015625 C 29.3125 283.015625 32.09375 280.429688 32.398438 277.132812 C 32.414062 276.929688 32.425781 276.730469 32.425781 276.527344 C 32.425781 272.949219 29.515625 270.035156 25.9375 270.035156 " fill-opacity="1" fill-rule="nonzero"/><path fill="#1c681b" d="M 88.097656 211.148438 C 92.617188 211.148438 96.300781 214.835938 96.300781 219.355469 L 96.300781 239.875 C 96.300781 244.40625 92.617188 248.089844 88.097656 248.089844 L 85.511719 248.089844 C 88.949219 251.164062 98.308594 253.367188 109.3125 253.367188 C 123.234375 253.367188 134.519531 249.832031 134.519531 245.480469 C 134.519531 243.480469 132.125 241.652344 128.1875 240.261719 L 128.1875 212.757812 L 136.769531 212.757812 C 140.238281 212.757812 143.472656 211 145.363281 208.097656 C 146.886719 205.742188 147.386719 202.855469 146.726562 200.121094 L 144.976562 192.851562 C 144.398438 190.433594 142.222656 188.738281 139.753906 188.738281 L 139.550781 188.738281 L 137.640625 188.808594 L 137.640625 189.378906 C 137.640625 192.730469 134.914062 195.457031 131.554688 195.457031 L 124.519531 195.457031 C 123.285156 195.457031 122.136719 195.085938 121.175781 194.453125 L 120.445312 194.5625 C 111.933594 195.792969 104.375 196.417969 97.992188 196.417969 C 82.351562 196.417969 78.402344 192.660156 78.007812 192.238281 L 77.214844 191.386719 L 73.179688 192.371094 C 64.277344 194.527344 57.390625 201.578125 55.445312 210.53125 L 55.128906 212.003906 C 56.230469 211.457031 57.460938 211.148438 58.769531 211.148438 L 88.097656 211.148438 " fill-opacity="1" fill-rule="nonzero"/><path fill="#1c681b" d="M 97.992188 192.898438 C 104.253906 192.898438 111.675781 192.28125 120.066406 191.070312 L 120.199219 191.050781 C 120.558594 191.140625 120.957031 190.9375 120.957031 190.9375 L 121.792969 190.820312 L 122.609375 191.363281 C 123.175781 191.738281 123.839844 191.941406 124.519531 191.941406 L 131.5625 191.941406 C 133.464844 191.941406 135.003906 190.398438 135.003906 188.5 L 135.003906 183.082031 C 135.003906 181.167969 133.511719 179.503906 131.597656 179.484375 C 131.582031 179.484375 131.570312 179.484375 131.554688 179.484375 L 124.519531 179.484375 C 122.136719 179.484375 120.199219 181.421875 120.199219 183.804688 L 120.199219 180.488281 C 120.199219 179.496094 119.445312 178.667969 118.449219 178.589844 C 116.789062 178.445312 114.050781 178.28125 110.761719 178.28125 C 100.515625 178.28125 84.929688 179.914062 79.722656 189.324219 L 79.914062 189.539062 C 79.949219 189.574219 83.511719 192.898438 97.992188 192.898438 " fill-opacity="1" fill-rule="nonzero"/><g clip-path="url(#3774ab97e9)"><path fill="#1c681b" d="M 374.324219 77.460938 L 372.570312 75.449219 C 372.253906 75.082031 371.800781 74.855469 371.320312 74.820312 L 342.230469 72.617188 C 340.816406 72.507812 339.417969 72.96875 338.335938 73.890625 L 227.351562 168.578125 L 237.5 166.851562 L 341.761719 77.894531 C 342.839844 76.976562 344.234375 76.519531 345.648438 76.625 L 363.734375 77.972656 C 365.371094 78.097656 366.046875 80.128906 364.8125 81.207031 L 268.496094 165.15625 L 199.476562 225.308594 C 201.726562 225.539062 203.917969 225.976562 206.027344 226.597656 L 278.046875 163.828125 L 374.144531 80.066406 C 374.914062 79.398438 374.996094 78.230469 374.324219 77.460938 " fill-opacity="1" fill-rule="nonzero"/></g><path fill="#1c681b" d="M 58.769531 243.691406 L 88.097656 243.691406 C 90.199219 243.691406 91.90625 241.988281 91.90625 239.875 L 91.90625 219.355469 C 91.90625 217.253906 90.199219 215.546875 88.097656 215.546875 L 58.769531 215.546875 C 56.667969 215.546875 54.960938 217.253906 54.960938 219.355469 L 54.960938 239.875 C 54.960938 241.988281 56.667969 243.691406 58.769531 243.691406 " fill-opacity="1" fill-rule="nonzero"/></svg>