<svg xmlns="http://www.w3.org/2000/svg" xmlns:xlink="http://www.w3.org/1999/xlink" width="500" zoomAndPan="magnify" viewBox="0 0 375 374.999991" height="500" preserveAspectRatio="xMidYMid meet" version="1.0"><defs><clipPath id="19e5803a0e"><path d="M 57.421875 0 L 317.671875 0 L 317.671875 375 L 57.421875 375 Z M 57.421875 0 " clip-rule="nonzero"/></clipPath></defs><g clip-path="url(#19e5803a0e)"><path fill="#1c681b" d="M 187.503906 -0.0429688 C 115.703125 -0.0429688 57.519531 58.148438 57.519531 129.941406 C 57.519531 141.882812 59.15625 153.441406 62.179688 164.417969 C 64.796875 173.980469 68.460938 183.117188 73.085938 191.667969 C 74.203125 193.726562 75.382812 195.761719 76.601562 197.761719 L 174.601562 367.507812 C 174.808594 367.871094 175 368.253906 175.230469 368.609375 C 177.925781 372.5 182.410156 375.042969 187.496094 375.042969 C 192.59375 375.042969 197.09375 372.464844 199.78125 368.558594 L 200.199219 367.835938 L 298.378906 197.792969 L 301.921875 191.652344 C 306.539062 183.105469 310.199219 173.96875 312.828125 164.417969 C 315.835938 153.441406 317.480469 141.882812 317.480469 129.941406 C 317.480469 58.148438 259.289062 -0.0429688 187.503906 -0.0429688 Z M 187.496094 184.433594 C 157.390625 184.433594 132.988281 160.03125 132.988281 129.941406 C 132.988281 99.835938 157.386719 75.429688 187.496094 75.429688 C 217.597656 75.429688 241.984375 99.835938 241.984375 129.941406 C 241.984375 160.03125 217.597656 184.433594 187.496094 184.433594 Z M 187.496094 184.433594 " fill-opacity="1" fill-rule="nonzero"/></g></svg>