<svg xmlns="http://www.w3.org/2000/svg" xmlns:xlink="http://www.w3.org/1999/xlink" width="500" zoomAndPan="magnify" viewBox="0 0 375 374.999991" height="500" preserveAspectRatio="xMidYMid meet" version="1.0"><path fill="#1c681b" d="M 59.308594 15.1875 C 56.8125 15.058594 54.328125 15.160156 51.851562 15.492188 C 49.375 15.820312 46.949219 16.375 44.570312 17.148438 C 42.195312 17.921875 39.910156 18.90625 37.714844 20.101562 C 35.519531 21.296875 33.453125 22.679688 31.511719 24.253906 C 28.980469 26.621094 26.578125 29.113281 24.3125 31.734375 C 22.042969 34.355469 19.921875 37.089844 17.945312 39.9375 C 15.96875 42.785156 14.148438 45.730469 12.488281 48.769531 C 10.824219 51.8125 9.324219 54.933594 7.996094 58.132812 C 6.664062 61.332031 5.503906 64.59375 4.519531 67.917969 C 3.535156 71.242188 2.730469 74.605469 2.105469 78.015625 C 1.476562 81.425781 1.035156 84.855469 0.773438 88.3125 C 0.511719 91.769531 0.433594 95.230469 0.542969 98.695312 C 1.183594 107.199219 2.460938 115.609375 4.371094 123.921875 C 6.285156 132.234375 8.808594 140.359375 11.949219 148.289062 C 15.089844 156.222656 18.804688 163.871094 23.101562 171.242188 C 27.394531 178.613281 32.222656 185.617188 37.574219 192.257812 L 39.851562 195.691406 C 44.65625 203.191406 49.71875 210.515625 55.035156 217.660156 C 60.355469 224.804688 65.914062 231.757812 71.722656 238.511719 C 77.527344 245.269531 83.5625 251.8125 89.824219 258.144531 C 96.089844 264.480469 102.566406 270.585938 109.257812 276.464844 C 115.953125 282.34375 122.839844 287.980469 129.929688 293.375 C 137.015625 298.773438 144.28125 303.914062 151.730469 308.800781 C 159.179688 313.6875 166.789062 318.308594 174.558594 322.660156 C 182.332031 327.015625 190.246094 331.089844 198.300781 334.886719 C 212.902344 341.972656 228.007812 347.726562 243.625 352.140625 C 259.238281 356.554688 275.121094 359.566406 291.269531 361.175781 C 297.136719 361.136719 302.914062 360.390625 308.601562 358.9375 C 331.472656 354.179688 360.1875 337.070312 366.828125 318.023438 C 369.398438 311.808594 371.210938 305.382812 372.261719 298.746094 C 373.316406 292.105469 373.582031 285.433594 373.058594 278.730469 C 370.164062 277.070312 367.191406 275.566406 364.140625 274.214844 L 358.542969 271.34375 C 332.425781 258.84375 300.316406 243.078125 293.957031 240.558594 C 292.09375 240.003906 290.191406 239.699219 288.246094 239.644531 C 287.375 239.636719 286.519531 239.742188 285.679688 239.96875 C 284.839844 240.191406 284.042969 240.527344 283.292969 240.972656 C 282.546875 241.417969 281.871094 241.953125 281.269531 242.582031 C 280.667969 243.214844 280.164062 243.914062 279.757812 244.683594 L 276.027344 250.019531 C 268.972656 260.296875 261.398438 270.171875 253.300781 279.644531 C 252.257812 280.660156 251.140625 281.59375 249.957031 282.445312 C 248.773438 283.296875 247.535156 284.058594 246.238281 284.726562 C 244.941406 285.394531 243.605469 285.964844 242.226562 286.4375 C 240.84375 286.910156 239.4375 287.277344 238.003906 287.542969 C 236.570312 287.808594 235.125 287.964844 233.667969 288.019531 C 232.210938 288.070312 230.757812 288.015625 229.308594 287.855469 C 227.859375 287.691406 226.429688 287.425781 225.019531 287.054688 C 223.609375 286.683594 222.234375 286.207031 220.894531 285.632812 L 218.023438 284.328125 C 203.90625 278.652344 190.40625 271.769531 177.523438 263.675781 C 164.644531 255.582031 152.582031 246.410156 141.34375 236.15625 C 130.515625 226.179688 120.472656 215.464844 111.222656 204.011719 C 101.972656 192.554688 93.609375 180.484375 86.136719 167.796875 C 85.417969 166.632812 84.804688 165.410156 84.296875 164.132812 C 83.792969 162.859375 83.402344 161.546875 83.128906 160.203125 C 82.855469 158.859375 82.699219 157.5 82.664062 156.128906 C 82.632812 154.757812 82.71875 153.394531 82.925781 152.035156 C 83.132812 150.679688 83.457031 149.351562 83.898438 148.050781 C 84.339844 146.753906 84.890625 145.503906 85.554688 144.300781 C 86.214844 143.097656 86.976562 141.964844 87.839844 140.898438 C 88.703125 139.832031 89.652344 138.847656 90.691406 137.949219 C 93.425781 134.4375 96.429688 131.171875 99.703125 128.152344 C 101.363281 125.933594 103.433594 124.105469 105.1875 121.960938 C 109.070312 118.035156 112.273438 113.621094 114.792969 108.710938 C 115.304688 106.941406 115.425781 105.144531 115.167969 103.320312 C 114.90625 101.496094 114.285156 99.804688 113.300781 98.246094 C 111.4375 94.851562 103.789062 75.542969 92.480469 48.695312 L 83.601562 26.625 C 79.03125 15.558594 77.6875 15.429688 69.871094 15.429688 L 67.164062 15.429688 C 64.851562 15.296875 61.976562 15.1875 59.308594 15.1875 Z M 59.308594 15.1875 " fill-opacity="1" fill-rule="nonzero"/></svg>