<svg xmlns="http://www.w3.org/2000/svg" xmlns:xlink="http://www.w3.org/1999/xlink" width="500" zoomAndPan="magnify" viewBox="0 0 375 374.999991" height="500" preserveAspectRatio="xMidYMid meet" version="1.0"><defs><clipPath id="72aa6f1d42"><path d="M 187.5 0 C 83.945312 0 0 83.945312 0 187.5 C 0 291.054688 83.945312 375 187.5 375 C 291.054688 375 375 291.054688 375 187.5 C 375 83.945312 291.054688 0 187.5 0 Z M 187.5 0 " clip-rule="nonzero"/></clipPath><clipPath id="723a83c462"><path d="M 0 0 L 375 0 L 375 375 L 0 375 Z M 0 0 " clip-rule="nonzero"/></clipPath><clipPath id="d889e39bdb"><path d="M 187.5 0 C 83.945312 0 0 83.945312 0 187.5 C 0 291.054688 83.945312 375 187.5 375 C 291.054688 375 375 291.054688 375 187.5 C 375 83.945312 291.054688 0 187.5 0 Z M 187.5 0 " clip-rule="nonzero"/></clipPath><clipPath id="1effe585cf"><rect x="0" width="375" y="0" height="375"/></clipPath><clipPath id="d11c040c77"><path d="M 88.382812 80 L 298 80 L 298 275 L 88.382812 275 Z M 88.382812 80 " clip-rule="nonzero"/></clipPath></defs><g clip-path="url(#72aa6f1d42)"><g transform="matrix(1, 0, 0, 1, 0, 0)"><g clip-path="url(#1effe585cf)"><g clip-path="url(#723a83c462)"><g clip-path="url(#d889e39bdb)"><rect x="-82.5" width="540" fill="#efd3ab" height="539.999987" y="-82.499998" fill-opacity="1"/></g></g></g></g></g><g clip-path="url(#d11c040c77)"><path fill="#1c681b" d="M 121.632812 80.847656 C 118.8125 80.707031 116.058594 81.074219 113.371094 81.949219 C 110.683594 82.824219 108.242188 84.152344 106.050781 85.933594 C 103.199219 88.59375 100.667969 91.523438 98.445312 94.726562 C 96.222656 97.929688 94.363281 101.328125 92.863281 104.925781 C 91.367188 108.523438 90.265625 112.242188 89.5625 116.074219 C 88.859375 119.90625 88.566406 123.773438 88.683594 127.667969 C 89.046875 132.4375 89.761719 137.152344 90.832031 141.8125 C 91.90625 146.472656 93.320312 151.027344 95.082031 155.472656 C 96.839844 159.921875 98.925781 164.210938 101.332031 168.34375 C 103.742188 172.472656 106.445312 176.402344 109.449219 180.125 L 110.722656 182.050781 C 116.117188 190.46875 122.074219 198.472656 128.59375 206.058594 C 135.109375 213.644531 142.125 220.734375 149.640625 227.335938 C 157.152344 233.9375 165.089844 239.980469 173.449219 245.464844 C 181.8125 250.953125 190.515625 255.828125 199.5625 260.089844 C 207.746094 264.0625 216.214844 267.289062 224.972656 269.765625 C 233.726562 272.238281 242.628906 273.929688 251.683594 274.828125 C 254.972656 274.808594 258.214844 274.390625 261.402344 273.574219 C 274.226562 270.90625 290.324219 261.316406 294.046875 250.636719 C 295.488281 247.152344 296.503906 243.550781 297.09375 239.828125 C 297.683594 236.105469 297.832031 232.363281 297.539062 228.605469 C 295.917969 227.675781 294.25 226.832031 292.539062 226.074219 L 289.402344 224.464844 C 274.757812 217.457031 256.757812 208.617188 253.191406 207.207031 C 252.144531 206.894531 251.078125 206.722656 249.988281 206.691406 C 249.5 206.6875 249.019531 206.746094 248.550781 206.875 C 248.078125 207 247.632812 207.1875 247.210938 207.4375 C 246.792969 207.6875 246.414062 207.988281 246.078125 208.339844 C 245.742188 208.695312 245.457031 209.085938 245.230469 209.515625 L 243.136719 212.507812 C 239.183594 218.269531 234.9375 223.808594 230.398438 229.121094 C 229.8125 229.6875 229.1875 230.210938 228.523438 230.6875 C 227.859375 231.167969 227.164062 231.59375 226.4375 231.96875 C 225.710938 232.34375 224.960938 232.664062 224.1875 232.925781 C 223.414062 233.191406 222.625 233.398438 221.820312 233.546875 C 221.015625 233.695312 220.207031 233.785156 219.390625 233.8125 C 218.574219 233.84375 217.757812 233.8125 216.945312 233.722656 C 216.132812 233.632812 215.332031 233.480469 214.542969 233.273438 C 213.75 233.0625 212.980469 232.800781 212.226562 232.476562 L 210.617188 231.746094 C 202.703125 228.5625 195.136719 224.703125 187.914062 220.167969 C 180.691406 215.628906 173.929688 210.484375 167.628906 204.738281 C 155.417969 193.488281 145.101562 180.714844 136.675781 166.410156 C 136.269531 165.757812 135.925781 165.070312 135.644531 164.355469 C 135.359375 163.640625 135.140625 162.90625 134.988281 162.152344 C 134.835938 161.398438 134.75 160.636719 134.730469 159.867188 C 134.710938 159.101562 134.757812 158.335938 134.875 157.574219 C 134.992188 156.8125 135.171875 156.070312 135.417969 155.339844 C 135.667969 154.613281 135.976562 153.910156 136.347656 153.238281 C 136.71875 152.5625 137.148438 151.925781 137.628906 151.328125 C 138.113281 150.730469 138.648438 150.179688 139.226562 149.675781 C 140.761719 147.707031 142.445312 145.875 144.28125 144.183594 C 145.210938 142.9375 146.371094 141.914062 147.355469 140.710938 C 149.53125 138.511719 151.328125 136.035156 152.742188 133.285156 C 153.027344 132.292969 153.097656 131.285156 152.953125 130.261719 C 152.804688 129.238281 152.457031 128.289062 151.90625 127.417969 C 150.859375 125.511719 146.570312 114.6875 140.230469 99.636719 L 135.253906 87.261719 C 132.691406 81.058594 131.9375 80.984375 127.554688 80.984375 L 126.039062 80.984375 C 124.742188 80.910156 123.128906 80.847656 121.632812 80.847656 Z M 121.632812 80.847656 " fill-opacity="1" fill-rule="nonzero"/></g></svg>