<svg xmlns="http://www.w3.org/2000/svg" xmlns:xlink="http://www.w3.org/1999/xlink" width="500" zoomAndPan="magnify" viewBox="0 0 375 374.999991" height="500" preserveAspectRatio="xMidYMid meet" version="1.0"><defs><clipPath id="bf5e25fd0b"><path d="M 0 11.25 L 375 11.25 L 375 363.75 L 0 363.75 Z M 0 11.25 " clip-rule="nonzero"/></clipPath></defs><g clip-path="url(#bf5e25fd0b)"><path fill="#ffffff" d="M 374.789062 11.222656 L 374.789062 171.183594 C 374.789062 236.75 360.597656 284.878906 332.242188 315.570312 C 303.875 346.261719 258.53125 362.304688 196.226562 363.699219 L 196.226562 261.167969 C 217.605469 258.375 232.953125 251.519531 242.261719 240.589844 C 251.558594 229.667969 256.210938 213.277344 256.210938 191.414062 L 256.210938 180.953125 L 196.226562 180.953125 L 196.226562 11.222656 Z M 178.773438 11.222656 L 178.773438 171.183594 C 178.773438 236.75 164.582031 284.878906 136.226562 315.570312 C 107.859375 346.261719 62.519531 362.304688 0.210938 363.699219 L 0.210938 261.167969 C 21.597656 258.375 36.941406 251.519531 46.25 240.589844 C 55.546875 229.667969 60.195312 213.277344 60.195312 191.414062 L 60.195312 180.953125 L 0.210938 180.953125 L 0.210938 11.222656 L 178.773438 11.222656 " fill-opacity="1" fill-rule="nonzero"/></g></svg>